<svg xmlns="http://www.w3.org/2000/svg" xmlns:xlink="http://www.w3.org/1999/xlink" width="1024" zoomAndPan="magnify" viewBox="0 0 768 576" height="768" preserveAspectRatio="xMidYMid meet" version="1.0"><defs><g/><clipPath id="4d0e632a75"><path d="M 284 200 L 683.640625 200 L 683.640625 575.46875 L 284 575.46875 Z M 284 200 " clip-rule="nonzero"/></clipPath><clipPath id="b317a02183"><path d="M 84.390625 175 L 385 175 L 385 575.46875 L 84.390625 575.46875 Z M 84.390625 175 " clip-rule="nonzero"/></clipPath></defs><rect x="-76.8" width="921.6" fill="#ffffff" y="-57.6" height="691.2" fill-opacity="1"/><rect x="-76.8" width="921.6" fill="#ffffff" y="-57.6" height="691.2" fill-opacity="1"/><g clip-path="url(#4d0e632a75)"><path fill="#e35e85" d="M 580.402344 200.855469 C 580.210938 273.207031 541.542969 336.515625 483.769531 371.410156 C 453.671875 389.574219 418.394531 400.042969 380.675781 400.042969 C 345.65625 400.042969 312.765625 391.011719 284.144531 375.171875 C 284.144531 375.367188 284.132812 375.546875 284.132812 375.726562 C 284.132812 449.644531 324.316406 514.136719 384.003906 548.683594 C 413.394531 565.691406 447.480469 575.46875 483.875 575.46875 C 594.1875 575.46875 683.613281 486.039062 683.613281 375.726562 C 683.613281 300.429688 641.941406 234.886719 580.402344 200.855469 " fill-opacity="1" fill-rule="nonzero"/></g><path fill="#000000" d="M 380.675781 0.546875 C 270.359375 0.546875 180.933594 89.988281 180.933594 200.304688 C 180.933594 201.753906 181.011719 203.179688 181.050781 204.632812 C 211.136719 186.453125 246.414062 175.984375 284.132812 175.984375 C 320.527344 175.984375 354.621094 185.773438 384.003906 202.769531 C 442.519531 236.632812 482.230469 299.300781 483.769531 371.410156 C 541.542969 336.515625 580.210938 273.207031 580.402344 200.855469 C 580.402344 200.664062 580.417969 200.484375 580.417969 200.304688 C 580.417969 89.988281 490.992188 0.546875 380.675781 0.546875 " fill-opacity="1" fill-rule="nonzero"/><g clip-path="url(#b317a02183)"><path fill="#986373" d="M 284.132812 375.726562 C 284.132812 375.546875 284.144531 375.367188 284.144531 375.171875 C 284.351562 301.484375 324.46875 237.222656 384.003906 202.769531 C 354.621094 185.773438 320.527344 175.984375 284.132812 175.984375 C 246.414062 175.984375 211.136719 186.453125 181.050781 204.632812 C 123.125 239.601562 84.390625 303.140625 84.390625 375.726562 C 84.390625 486.039062 173.816406 575.46875 284.132812 575.46875 C 320.527344 575.46875 354.621094 565.691406 384.003906 548.683594 C 324.316406 514.136719 284.132812 449.644531 284.132812 375.726562 " fill-opacity="1" fill-rule="nonzero"/></g><g fill="#f9f6f9" fill-opacity="1"><g transform="translate(285.18012, 105.736115)"><g><path d="M 16.9375 0 L 14.984375 0 L 4.1875 -16.40625 L 4.1875 0 L 2.234375 0 L 2.234375 -19.5 L 4.1875 -19.5 L 14.984375 -3.125 L 14.984375 -19.5 L 16.9375 -19.5 Z M 16.9375 0 "/></g></g></g><g fill="#f9f6f9" fill-opacity="1"><g transform="translate(304.321095, 105.736115)"><g><path d="M 16.015625 -8.40625 C 16.015625 -7.726562 16 -7.210938 15.96875 -6.859375 L 3.328125 -6.859375 C 3.378906 -5.710938 3.65625 -4.726562 4.15625 -3.90625 C 4.65625 -3.082031 5.316406 -2.460938 6.140625 -2.046875 C 6.960938 -1.628906 7.851562 -1.421875 8.8125 -1.421875 C 10.082031 -1.421875 11.148438 -1.726562 12.015625 -2.34375 C 12.878906 -2.957031 13.453125 -3.785156 13.734375 -4.828125 L 15.796875 -4.828125 C 15.421875 -3.335938 14.625 -2.125 13.40625 -1.1875 C 12.1875 -0.25 10.65625 0.21875 8.8125 0.21875 C 7.382812 0.21875 6.101562 -0.0976562 4.96875 -0.734375 C 3.832031 -1.378906 2.941406 -2.289062 2.296875 -3.46875 C 1.660156 -4.65625 1.34375 -6.039062 1.34375 -7.625 C 1.34375 -9.195312 1.65625 -10.578125 2.28125 -11.765625 C 2.914062 -12.960938 3.800781 -13.875 4.9375 -14.5 C 6.070312 -15.132812 7.363281 -15.453125 8.8125 -15.453125 C 10.269531 -15.453125 11.539062 -15.132812 12.625 -14.5 C 13.71875 -13.875 14.554688 -13.023438 15.140625 -11.953125 C 15.722656 -10.890625 16.015625 -9.707031 16.015625 -8.40625 Z M 14.03125 -8.453125 C 14.050781 -9.585938 13.820312 -10.554688 13.34375 -11.359375 C 12.875 -12.160156 12.226562 -12.765625 11.40625 -13.171875 C 10.59375 -13.578125 9.703125 -13.78125 8.734375 -13.78125 C 7.285156 -13.78125 6.046875 -13.316406 5.015625 -12.390625 C 3.992188 -11.460938 3.429688 -10.148438 3.328125 -8.453125 Z M 14.03125 -8.453125 "/></g></g></g><g fill="#f9f6f9" fill-opacity="1"><g transform="translate(321.676323, 105.736115)"><g><path d="M 15.4375 -15.234375 L 15.4375 0 L 13.484375 0 L 13.484375 -2.671875 C 13.035156 -1.722656 12.34375 -1 11.40625 -0.5 C 10.476562 0 9.4375 0.25 8.28125 0.25 C 6.457031 0.25 4.96875 -0.3125 3.8125 -1.4375 C 2.664062 -2.5625 2.09375 -4.191406 2.09375 -6.328125 L 2.09375 -15.234375 L 4.015625 -15.234375 L 4.015625 -6.5625 C 4.015625 -4.90625 4.425781 -3.640625 5.25 -2.765625 C 6.082031 -1.890625 7.21875 -1.453125 8.65625 -1.453125 C 10.125 -1.453125 11.296875 -1.914062 12.171875 -2.84375 C 13.046875 -3.769531 13.484375 -5.140625 13.484375 -6.953125 L 13.484375 -15.234375 Z M 15.4375 -15.234375 "/></g></g></g><g fill="#f9f6f9" fill-opacity="1"><g transform="translate(339.338481, 105.736115)"><g><path d="M 4.1875 -12.53125 C 4.613281 -13.476562 5.269531 -14.210938 6.15625 -14.734375 C 7.039062 -15.253906 8.125 -15.515625 9.40625 -15.515625 L 9.40625 -13.484375 L 8.875 -13.484375 C 7.457031 -13.484375 6.320312 -13.097656 5.46875 -12.328125 C 4.613281 -11.566406 4.1875 -10.296875 4.1875 -8.515625 L 4.1875 0 L 2.234375 0 L 2.234375 -15.234375 L 4.1875 -15.234375 Z M 4.1875 -12.53125 "/></g></g></g><g fill="#f9f6f9" fill-opacity="1"><g transform="translate(349.439116, 105.736115)"><g><path d="M 8.90625 0.21875 C 7.46875 0.21875 6.175781 -0.0976562 5.03125 -0.734375 C 3.894531 -1.378906 2.992188 -2.289062 2.328125 -3.46875 C 1.671875 -4.65625 1.34375 -6.039062 1.34375 -7.625 C 1.34375 -9.195312 1.675781 -10.570312 2.34375 -11.75 C 3.007812 -12.9375 3.921875 -13.847656 5.078125 -14.484375 C 6.234375 -15.128906 7.523438 -15.453125 8.953125 -15.453125 C 10.390625 -15.453125 11.6875 -15.128906 12.84375 -14.484375 C 14.007812 -13.847656 14.921875 -12.9375 15.578125 -11.75 C 16.242188 -10.570312 16.578125 -9.195312 16.578125 -7.625 C 16.578125 -6.0625 16.238281 -4.679688 15.5625 -3.484375 C 14.894531 -2.296875 13.972656 -1.378906 12.796875 -0.734375 C 11.628906 -0.0976562 10.332031 0.21875 8.90625 0.21875 Z M 8.90625 -1.484375 C 9.90625 -1.484375 10.832031 -1.707031 11.6875 -2.15625 C 12.539062 -2.613281 13.234375 -3.300781 13.765625 -4.21875 C 14.296875 -5.144531 14.5625 -6.28125 14.5625 -7.625 C 14.5625 -8.957031 14.300781 -10.082031 13.78125 -11 C 13.257812 -11.925781 12.570312 -12.613281 11.71875 -13.0625 C 10.863281 -13.519531 9.9375 -13.75 8.9375 -13.75 C 7.925781 -13.75 6.992188 -13.519531 6.140625 -13.0625 C 5.285156 -12.613281 4.601562 -11.925781 4.09375 -11 C 3.582031 -10.082031 3.328125 -8.957031 3.328125 -7.625 C 3.328125 -6.28125 3.582031 -5.144531 4.09375 -4.21875 C 4.601562 -3.300781 5.28125 -2.613281 6.125 -2.15625 C 6.96875 -1.707031 7.894531 -1.484375 8.90625 -1.484375 Z M 8.90625 -1.484375 "/></g></g></g><g fill="#f9f6f9" fill-opacity="1"><g transform="translate(367.352392, 105.736115)"><g><path d="M 3.203125 -18.109375 C 2.816406 -18.109375 2.484375 -18.25 2.203125 -18.53125 C 1.921875 -18.8125 1.78125 -19.15625 1.78125 -19.5625 C 1.78125 -19.96875 1.921875 -20.304688 2.203125 -20.578125 C 2.484375 -20.847656 2.816406 -20.984375 3.203125 -20.984375 C 3.597656 -20.984375 3.929688 -20.847656 4.203125 -20.578125 C 4.484375 -20.304688 4.625 -19.96875 4.625 -19.5625 C 4.625 -19.15625 4.484375 -18.8125 4.203125 -18.53125 C 3.929688 -18.25 3.597656 -18.109375 3.203125 -18.109375 Z M 4.1875 -15.234375 L 4.1875 0 L 2.234375 0 L 2.234375 -15.234375 Z M 4.1875 -15.234375 "/></g></g></g><g fill="#f9f6f9" fill-opacity="1"><g transform="translate(373.742018, 105.736115)"><g><path d="M 20.375 -15.515625 C 22.15625 -15.515625 23.609375 -14.953125 24.734375 -13.828125 C 25.859375 -12.703125 26.421875 -11.070312 26.421875 -8.9375 L 26.421875 0 L 24.5 0 L 24.5 -8.703125 C 24.5 -10.359375 24.097656 -11.625 23.296875 -12.5 C 22.503906 -13.375 21.414062 -13.8125 20.03125 -13.8125 C 18.601562 -13.8125 17.460938 -13.335938 16.609375 -12.390625 C 15.753906 -11.441406 15.328125 -10.066406 15.328125 -8.265625 L 15.328125 0 L 13.390625 0 L 13.390625 -8.703125 C 13.390625 -10.359375 12.988281 -11.625 12.1875 -12.5 C 11.394531 -13.375 10.300781 -13.8125 8.90625 -13.8125 C 7.46875 -13.8125 6.320312 -13.335938 5.46875 -12.390625 C 4.613281 -11.441406 4.1875 -10.066406 4.1875 -8.265625 L 4.1875 0 L 2.234375 0 L 2.234375 -15.234375 L 4.1875 -15.234375 L 4.1875 -12.609375 C 4.664062 -13.554688 5.351562 -14.273438 6.25 -14.765625 C 7.144531 -15.265625 8.140625 -15.515625 9.234375 -15.515625 C 10.554688 -15.515625 11.710938 -15.195312 12.703125 -14.5625 C 13.703125 -13.9375 14.425781 -13.007812 14.875 -11.78125 C 15.28125 -12.988281 15.976562 -13.910156 16.96875 -14.546875 C 17.96875 -15.191406 19.101562 -15.515625 20.375 -15.515625 Z M 20.375 -15.515625 "/></g></g></g><g fill="#f9f6f9" fill-opacity="1"><g transform="translate(402.258175, 105.736115)"><g><path d="M 1.34375 -7.640625 C 1.34375 -9.203125 1.648438 -10.570312 2.265625 -11.75 C 2.890625 -12.9375 3.753906 -13.847656 4.859375 -14.484375 C 5.972656 -15.128906 7.226562 -15.453125 8.625 -15.453125 C 10.070312 -15.453125 11.320312 -15.117188 12.375 -14.453125 C 13.425781 -13.785156 14.1875 -12.929688 14.65625 -11.890625 L 14.65625 -15.234375 L 16.609375 -15.234375 L 16.609375 0 L 14.65625 0 L 14.65625 -3.375 C 14.164062 -2.332031 13.394531 -1.472656 12.34375 -0.796875 C 11.289062 -0.117188 10.039062 0.21875 8.59375 0.21875 C 7.21875 0.21875 5.972656 -0.101562 4.859375 -0.75 C 3.753906 -1.40625 2.890625 -2.328125 2.265625 -3.515625 C 1.648438 -4.703125 1.34375 -6.078125 1.34375 -7.640625 Z M 14.65625 -7.625 C 14.65625 -8.84375 14.398438 -9.914062 13.890625 -10.84375 C 13.390625 -11.78125 12.707031 -12.5 11.84375 -13 C 10.976562 -13.5 10.023438 -13.75 8.984375 -13.75 C 7.910156 -13.75 6.941406 -13.507812 6.078125 -13.03125 C 5.222656 -12.550781 4.550781 -11.847656 4.0625 -10.921875 C 3.570312 -10.003906 3.328125 -8.910156 3.328125 -7.640625 C 3.328125 -6.398438 3.570312 -5.304688 4.0625 -4.359375 C 4.550781 -3.421875 5.222656 -2.707031 6.078125 -2.21875 C 6.941406 -1.726562 7.910156 -1.484375 8.984375 -1.484375 C 10.023438 -1.484375 10.976562 -1.734375 11.84375 -2.234375 C 12.707031 -2.734375 13.390625 -3.445312 13.890625 -4.375 C 14.398438 -5.3125 14.65625 -6.394531 14.65625 -7.625 Z M 14.65625 -7.625 "/></g></g></g><g fill="#f9f6f9" fill-opacity="1"><g transform="translate(421.092232, 105.736115)"><g><path d="M 8.625 -15.453125 C 10.050781 -15.453125 11.296875 -15.117188 12.359375 -14.453125 C 13.421875 -13.785156 14.1875 -12.941406 14.65625 -11.921875 L 14.65625 -15.234375 L 16.609375 -15.234375 L 16.609375 0.390625 C 16.609375 1.785156 16.304688 3.019531 15.703125 4.09375 C 15.097656 5.175781 14.253906 6.007812 13.171875 6.59375 C 12.085938 7.1875 10.859375 7.484375 9.484375 7.484375 C 7.535156 7.484375 5.910156 7.015625 4.609375 6.078125 C 3.316406 5.148438 2.515625 3.882812 2.203125 2.28125 L 4.125 2.28125 C 4.457031 3.34375 5.09375 4.191406 6.03125 4.828125 C 6.976562 5.460938 8.128906 5.78125 9.484375 5.78125 C 10.472656 5.78125 11.359375 5.566406 12.140625 5.140625 C 12.921875 4.722656 13.535156 4.101562 13.984375 3.28125 C 14.429688 2.46875 14.65625 1.503906 14.65625 0.390625 L 14.65625 -3.375 C 14.164062 -2.332031 13.394531 -1.472656 12.34375 -0.796875 C 11.289062 -0.117188 10.050781 0.21875 8.625 0.21875 C 7.226562 0.21875 5.972656 -0.101562 4.859375 -0.75 C 3.753906 -1.40625 2.890625 -2.328125 2.265625 -3.515625 C 1.648438 -4.703125 1.34375 -6.078125 1.34375 -7.640625 C 1.34375 -9.203125 1.648438 -10.570312 2.265625 -11.75 C 2.890625 -12.9375 3.753906 -13.847656 4.859375 -14.484375 C 5.972656 -15.128906 7.226562 -15.453125 8.625 -15.453125 Z M 14.65625 -7.625 C 14.65625 -8.84375 14.398438 -9.914062 13.890625 -10.84375 C 13.390625 -11.78125 12.707031 -12.5 11.84375 -13 C 10.976562 -13.5 10.023438 -13.75 8.984375 -13.75 C 7.910156 -13.75 6.941406 -13.507812 6.078125 -13.03125 C 5.222656 -12.550781 4.550781 -11.847656 4.0625 -10.921875 C 3.570312 -10.003906 3.328125 -8.910156 3.328125 -7.640625 C 3.328125 -6.398438 3.570312 -5.304688 4.0625 -4.359375 C 4.550781 -3.421875 5.222656 -2.707031 6.078125 -2.21875 C 6.941406 -1.726562 7.910156 -1.484375 8.984375 -1.484375 C 10.023438 -1.484375 10.976562 -1.734375 11.84375 -2.234375 C 12.707031 -2.734375 13.390625 -3.445312 13.890625 -4.375 C 14.398438 -5.3125 14.65625 -6.394531 14.65625 -7.625 Z M 14.65625 -7.625 "/></g></g></g><g fill="#f9f6f9" fill-opacity="1"><g transform="translate(439.926288, 105.736115)"><g><path d="M 3.203125 -18.109375 C 2.816406 -18.109375 2.484375 -18.25 2.203125 -18.53125 C 1.921875 -18.8125 1.78125 -19.15625 1.78125 -19.5625 C 1.78125 -19.96875 1.921875 -20.304688 2.203125 -20.578125 C 2.484375 -20.847656 2.816406 -20.984375 3.203125 -20.984375 C 3.597656 -20.984375 3.929688 -20.847656 4.203125 -20.578125 C 4.484375 -20.304688 4.625 -19.96875 4.625 -19.5625 C 4.625 -19.15625 4.484375 -18.8125 4.203125 -18.53125 C 3.929688 -18.25 3.597656 -18.109375 3.203125 -18.109375 Z M 4.1875 -15.234375 L 4.1875 0 L 2.234375 0 L 2.234375 -15.234375 Z M 4.1875 -15.234375 "/></g></g></g><g fill="#f9f6f9" fill-opacity="1"><g transform="translate(446.315913, 105.736115)"><g><path d="M 9.375 -15.515625 C 11.195312 -15.515625 12.6875 -14.953125 13.84375 -13.828125 C 15 -12.703125 15.578125 -11.070312 15.578125 -8.9375 L 15.578125 0 L 13.640625 0 L 13.640625 -8.703125 C 13.640625 -10.359375 13.222656 -11.625 12.390625 -12.5 C 11.566406 -13.375 10.441406 -13.8125 9.015625 -13.8125 C 7.546875 -13.8125 6.375 -13.34375 5.5 -12.40625 C 4.625 -11.476562 4.1875 -10.113281 4.1875 -8.3125 L 4.1875 0 L 2.234375 0 L 2.234375 -15.234375 L 4.1875 -15.234375 L 4.1875 -12.640625 C 4.664062 -13.566406 5.359375 -14.273438 6.265625 -14.765625 C 7.179688 -15.265625 8.21875 -15.515625 9.375 -15.515625 Z M 9.375 -15.515625 "/></g></g></g><g fill="#f9f6f9" fill-opacity="1"><g transform="translate(463.978071, 105.736115)"><g><path d="M 8.625 -15.453125 C 10.050781 -15.453125 11.296875 -15.117188 12.359375 -14.453125 C 13.421875 -13.785156 14.1875 -12.941406 14.65625 -11.921875 L 14.65625 -15.234375 L 16.609375 -15.234375 L 16.609375 0.390625 C 16.609375 1.785156 16.304688 3.019531 15.703125 4.09375 C 15.097656 5.175781 14.253906 6.007812 13.171875 6.59375 C 12.085938 7.1875 10.859375 7.484375 9.484375 7.484375 C 7.535156 7.484375 5.910156 7.015625 4.609375 6.078125 C 3.316406 5.148438 2.515625 3.882812 2.203125 2.28125 L 4.125 2.28125 C 4.457031 3.34375 5.09375 4.191406 6.03125 4.828125 C 6.976562 5.460938 8.128906 5.78125 9.484375 5.78125 C 10.472656 5.78125 11.359375 5.566406 12.140625 5.140625 C 12.921875 4.722656 13.535156 4.101562 13.984375 3.28125 C 14.429688 2.46875 14.65625 1.503906 14.65625 0.390625 L 14.65625 -3.375 C 14.164062 -2.332031 13.394531 -1.472656 12.34375 -0.796875 C 11.289062 -0.117188 10.050781 0.21875 8.625 0.21875 C 7.226562 0.21875 5.972656 -0.101562 4.859375 -0.75 C 3.753906 -1.40625 2.890625 -2.328125 2.265625 -3.515625 C 1.648438 -4.703125 1.34375 -6.078125 1.34375 -7.640625 C 1.34375 -9.203125 1.648438 -10.570312 2.265625 -11.75 C 2.890625 -12.9375 3.753906 -13.847656 4.859375 -14.484375 C 5.972656 -15.128906 7.226562 -15.453125 8.625 -15.453125 Z M 14.65625 -7.625 C 14.65625 -8.84375 14.398438 -9.914062 13.890625 -10.84375 C 13.390625 -11.78125 12.707031 -12.5 11.84375 -13 C 10.976562 -13.5 10.023438 -13.75 8.984375 -13.75 C 7.910156 -13.75 6.941406 -13.507812 6.078125 -13.03125 C 5.222656 -12.550781 4.550781 -11.847656 4.0625 -10.921875 C 3.570312 -10.003906 3.328125 -8.910156 3.328125 -7.640625 C 3.328125 -6.398438 3.570312 -5.304688 4.0625 -4.359375 C 4.550781 -3.421875 5.222656 -2.707031 6.078125 -2.21875 C 6.941406 -1.726562 7.910156 -1.484375 8.984375 -1.484375 C 10.023438 -1.484375 10.976562 -1.734375 11.84375 -2.234375 C 12.707031 -2.734375 13.390625 -3.445312 13.890625 -4.375 C 14.398438 -5.3125 14.65625 -6.394531 14.65625 -7.625 Z M 14.65625 -7.625 "/></g></g></g><g fill="#f9f6f9" fill-opacity="1"><g transform="translate(304.609807, 144.736113)"><g><path d="M 13.640625 -19.5 L 13.640625 -17.890625 L 8.234375 -17.890625 L 8.234375 0 L 6.28125 0 L 6.28125 -17.890625 L 0.84375 -17.890625 L 0.84375 -19.5 Z M 13.640625 -19.5 "/></g></g></g><g fill="#f9f6f9" fill-opacity="1"><g transform="translate(319.119004, 144.736113)"><g><path d="M 16.015625 -8.40625 C 16.015625 -7.726562 16 -7.210938 15.96875 -6.859375 L 3.328125 -6.859375 C 3.378906 -5.710938 3.65625 -4.726562 4.15625 -3.90625 C 4.65625 -3.082031 5.316406 -2.460938 6.140625 -2.046875 C 6.960938 -1.628906 7.851562 -1.421875 8.8125 -1.421875 C 10.082031 -1.421875 11.148438 -1.726562 12.015625 -2.34375 C 12.878906 -2.957031 13.453125 -3.785156 13.734375 -4.828125 L 15.796875 -4.828125 C 15.421875 -3.335938 14.625 -2.125 13.40625 -1.1875 C 12.1875 -0.25 10.65625 0.21875 8.8125 0.21875 C 7.382812 0.21875 6.101562 -0.0976562 4.96875 -0.734375 C 3.832031 -1.378906 2.941406 -2.289062 2.296875 -3.46875 C 1.660156 -4.65625 1.34375 -6.039062 1.34375 -7.625 C 1.34375 -9.195312 1.65625 -10.578125 2.28125 -11.765625 C 2.914062 -12.960938 3.800781 -13.875 4.9375 -14.5 C 6.070312 -15.132812 7.363281 -15.453125 8.8125 -15.453125 C 10.269531 -15.453125 11.539062 -15.132812 12.625 -14.5 C 13.71875 -13.875 14.554688 -13.023438 15.140625 -11.953125 C 15.722656 -10.890625 16.015625 -9.707031 16.015625 -8.40625 Z M 14.03125 -8.453125 C 14.050781 -9.585938 13.820312 -10.554688 13.34375 -11.359375 C 12.875 -12.160156 12.226562 -12.765625 11.40625 -13.171875 C 10.59375 -13.578125 9.703125 -13.78125 8.734375 -13.78125 C 7.285156 -13.78125 6.046875 -13.316406 5.015625 -12.390625 C 3.992188 -11.460938 3.429688 -10.148438 3.328125 -8.453125 Z M 14.03125 -8.453125 "/></g></g></g><g fill="#f9f6f9" fill-opacity="1"><g transform="translate(336.474232, 144.736113)"><g><path d="M 1.34375 -7.625 C 1.34375 -9.195312 1.65625 -10.570312 2.28125 -11.75 C 2.914062 -12.9375 3.789062 -13.847656 4.90625 -14.484375 C 6.019531 -15.128906 7.296875 -15.453125 8.734375 -15.453125 C 10.609375 -15.453125 12.15625 -14.988281 13.375 -14.0625 C 14.59375 -13.132812 15.378906 -11.867188 15.734375 -10.265625 L 13.640625 -10.265625 C 13.378906 -11.367188 12.816406 -12.226562 11.953125 -12.84375 C 11.085938 -13.46875 10.015625 -13.78125 8.734375 -13.78125 C 7.710938 -13.78125 6.789062 -13.546875 5.96875 -13.078125 C 5.15625 -12.617188 4.507812 -11.925781 4.03125 -11 C 3.5625 -10.082031 3.328125 -8.957031 3.328125 -7.625 C 3.328125 -6.28125 3.5625 -5.140625 4.03125 -4.203125 C 4.507812 -3.273438 5.15625 -2.578125 5.96875 -2.109375 C 6.789062 -1.648438 7.710938 -1.421875 8.734375 -1.421875 C 10.015625 -1.421875 11.085938 -1.734375 11.953125 -2.359375 C 12.816406 -2.984375 13.378906 -3.851562 13.640625 -4.96875 L 15.734375 -4.96875 C 15.378906 -3.40625 14.585938 -2.148438 13.359375 -1.203125 C 12.140625 -0.253906 10.597656 0.21875 8.734375 0.21875 C 7.296875 0.21875 6.019531 -0.0976562 4.90625 -0.734375 C 3.789062 -1.378906 2.914062 -2.289062 2.28125 -3.46875 C 1.65625 -4.65625 1.34375 -6.039062 1.34375 -7.625 Z M 1.34375 -7.625 "/></g></g></g><g fill="#f9f6f9" fill-opacity="1"><g transform="translate(353.578342, 144.736113)"><g><path d="M 9.484375 -15.515625 C 10.640625 -15.515625 11.675781 -15.269531 12.59375 -14.78125 C 13.519531 -14.300781 14.25 -13.5625 14.78125 -12.5625 C 15.3125 -11.570312 15.578125 -10.363281 15.578125 -8.9375 L 15.578125 0 L 13.640625 0 L 13.640625 -8.703125 C 13.640625 -10.359375 13.222656 -11.625 12.390625 -12.5 C 11.566406 -13.375 10.441406 -13.8125 9.015625 -13.8125 C 7.546875 -13.8125 6.375 -13.34375 5.5 -12.40625 C 4.625 -11.476562 4.1875 -10.113281 4.1875 -8.3125 L 4.1875 0 L 2.234375 0 L 2.234375 -20.65625 L 4.1875 -20.65625 L 4.1875 -12.640625 C 4.664062 -13.554688 5.375 -14.265625 6.3125 -14.765625 C 7.257812 -15.265625 8.316406 -15.515625 9.484375 -15.515625 Z M 9.484375 -15.515625 "/></g></g></g><g fill="#f9f6f9" fill-opacity="1"><g transform="translate(371.2405, 144.736113)"><g><path d="M 9.375 -15.515625 C 11.195312 -15.515625 12.6875 -14.953125 13.84375 -13.828125 C 15 -12.703125 15.578125 -11.070312 15.578125 -8.9375 L 15.578125 0 L 13.640625 0 L 13.640625 -8.703125 C 13.640625 -10.359375 13.222656 -11.625 12.390625 -12.5 C 11.566406 -13.375 10.441406 -13.8125 9.015625 -13.8125 C 7.546875 -13.8125 6.375 -13.34375 5.5 -12.40625 C 4.625 -11.476562 4.1875 -10.113281 4.1875 -8.3125 L 4.1875 0 L 2.234375 0 L 2.234375 -15.234375 L 4.1875 -15.234375 L 4.1875 -12.640625 C 4.664062 -13.566406 5.359375 -14.273438 6.265625 -14.765625 C 7.179688 -15.265625 8.21875 -15.515625 9.375 -15.515625 Z M 9.375 -15.515625 "/></g></g></g><g fill="#f9f6f9" fill-opacity="1"><g transform="translate(388.902658, 144.736113)"><g><path d="M 3.203125 -18.109375 C 2.816406 -18.109375 2.484375 -18.25 2.203125 -18.53125 C 1.921875 -18.8125 1.78125 -19.15625 1.78125 -19.5625 C 1.78125 -19.96875 1.921875 -20.304688 2.203125 -20.578125 C 2.484375 -20.847656 2.816406 -20.984375 3.203125 -20.984375 C 3.597656 -20.984375 3.929688 -20.847656 4.203125 -20.578125 C 4.484375 -20.304688 4.625 -19.96875 4.625 -19.5625 C 4.625 -19.15625 4.484375 -18.8125 4.203125 -18.53125 C 3.929688 -18.25 3.597656 -18.109375 3.203125 -18.109375 Z M 4.1875 -15.234375 L 4.1875 0 L 2.234375 0 L 2.234375 -15.234375 Z M 4.1875 -15.234375 "/></g></g></g><g fill="#f9f6f9" fill-opacity="1"><g transform="translate(395.292283, 144.736113)"><g><path d="M 1.34375 -7.640625 C 1.34375 -9.203125 1.65625 -10.570312 2.28125 -11.75 C 2.914062 -12.9375 3.785156 -13.847656 4.890625 -14.484375 C 6.003906 -15.128906 7.257812 -15.453125 8.65625 -15.453125 C 10.082031 -15.453125 11.328125 -15.113281 12.390625 -14.4375 C 13.453125 -13.757812 14.207031 -12.910156 14.65625 -11.890625 L 14.65625 -15.234375 L 16.609375 -15.234375 L 16.609375 7.203125 L 14.65625 7.203125 L 14.65625 -3.34375 C 14.207031 -2.320312 13.445312 -1.472656 12.375 -0.796875 C 11.300781 -0.117188 10.039062 0.21875 8.59375 0.21875 C 7.21875 0.21875 5.972656 -0.101562 4.859375 -0.75 C 3.753906 -1.40625 2.890625 -2.328125 2.265625 -3.515625 C 1.648438 -4.703125 1.34375 -6.078125 1.34375 -7.640625 Z M 14.65625 -7.625 C 14.65625 -8.84375 14.398438 -9.914062 13.890625 -10.84375 C 13.390625 -11.78125 12.707031 -12.5 11.84375 -13 C 10.976562 -13.5 10.023438 -13.75 8.984375 -13.75 C 7.910156 -13.75 6.941406 -13.507812 6.078125 -13.03125 C 5.222656 -12.550781 4.550781 -11.847656 4.0625 -10.921875 C 3.570312 -10.003906 3.328125 -8.910156 3.328125 -7.640625 C 3.328125 -6.398438 3.570312 -5.304688 4.0625 -4.359375 C 4.550781 -3.421875 5.222656 -2.707031 6.078125 -2.21875 C 6.941406 -1.726562 7.910156 -1.484375 8.984375 -1.484375 C 10.023438 -1.484375 10.976562 -1.734375 11.84375 -2.234375 C 12.707031 -2.734375 13.390625 -3.445312 13.890625 -4.375 C 14.398438 -5.3125 14.65625 -6.394531 14.65625 -7.625 Z M 14.65625 -7.625 "/></g></g></g><g fill="#f9f6f9" fill-opacity="1"><g transform="translate(414.126339, 144.736113)"><g><path d="M 15.4375 -15.234375 L 15.4375 0 L 13.484375 0 L 13.484375 -2.671875 C 13.035156 -1.722656 12.34375 -1 11.40625 -0.5 C 10.476562 0 9.4375 0.25 8.28125 0.25 C 6.457031 0.25 4.96875 -0.3125 3.8125 -1.4375 C 2.664062 -2.5625 2.09375 -4.191406 2.09375 -6.328125 L 2.09375 -15.234375 L 4.015625 -15.234375 L 4.015625 -6.5625 C 4.015625 -4.90625 4.425781 -3.640625 5.25 -2.765625 C 6.082031 -1.890625 7.21875 -1.453125 8.65625 -1.453125 C 10.125 -1.453125 11.296875 -1.914062 12.171875 -2.84375 C 13.046875 -3.769531 13.484375 -5.140625 13.484375 -6.953125 L 13.484375 -15.234375 Z M 15.4375 -15.234375 "/></g></g></g><g fill="#f9f6f9" fill-opacity="1"><g transform="translate(431.788497, 144.736113)"><g><path d="M 16.015625 -8.40625 C 16.015625 -7.726562 16 -7.210938 15.96875 -6.859375 L 3.328125 -6.859375 C 3.378906 -5.710938 3.65625 -4.726562 4.15625 -3.90625 C 4.65625 -3.082031 5.316406 -2.460938 6.140625 -2.046875 C 6.960938 -1.628906 7.851562 -1.421875 8.8125 -1.421875 C 10.082031 -1.421875 11.148438 -1.726562 12.015625 -2.34375 C 12.878906 -2.957031 13.453125 -3.785156 13.734375 -4.828125 L 15.796875 -4.828125 C 15.421875 -3.335938 14.625 -2.125 13.40625 -1.1875 C 12.1875 -0.25 10.65625 0.21875 8.8125 0.21875 C 7.382812 0.21875 6.101562 -0.0976562 4.96875 -0.734375 C 3.832031 -1.378906 2.941406 -2.289062 2.296875 -3.46875 C 1.660156 -4.65625 1.34375 -6.039062 1.34375 -7.625 C 1.34375 -9.195312 1.65625 -10.578125 2.28125 -11.765625 C 2.914062 -12.960938 3.800781 -13.875 4.9375 -14.5 C 6.070312 -15.132812 7.363281 -15.453125 8.8125 -15.453125 C 10.269531 -15.453125 11.539062 -15.132812 12.625 -14.5 C 13.71875 -13.875 14.554688 -13.023438 15.140625 -11.953125 C 15.722656 -10.890625 16.015625 -9.707031 16.015625 -8.40625 Z M 14.03125 -8.453125 C 14.050781 -9.585938 13.820312 -10.554688 13.34375 -11.359375 C 12.875 -12.160156 12.226562 -12.765625 11.40625 -13.171875 C 10.59375 -13.578125 9.703125 -13.78125 8.734375 -13.78125 C 7.285156 -13.78125 6.046875 -13.316406 5.015625 -12.390625 C 3.992188 -11.460938 3.429688 -10.148438 3.328125 -8.453125 Z M 14.03125 -8.453125 "/></g></g></g><g fill="#f9f6f9" fill-opacity="1"><g transform="translate(449.143725, 144.736113)"><g><path d="M 7.484375 0.21875 C 5.734375 0.21875 4.300781 -0.179688 3.1875 -0.984375 C 2.082031 -1.796875 1.46875 -2.898438 1.34375 -4.296875 L 3.34375 -4.296875 C 3.4375 -3.441406 3.84375 -2.75 4.5625 -2.21875 C 5.28125 -1.6875 6.242188 -1.421875 7.453125 -1.421875 C 8.515625 -1.421875 9.347656 -1.671875 9.953125 -2.171875 C 10.554688 -2.679688 10.859375 -3.304688 10.859375 -4.046875 C 10.859375 -4.566406 10.6875 -4.992188 10.34375 -5.328125 C 10.007812 -5.660156 9.585938 -5.925781 9.078125 -6.125 C 8.566406 -6.320312 7.875 -6.53125 7 -6.75 C 5.863281 -7.050781 4.941406 -7.347656 4.234375 -7.640625 C 3.535156 -7.941406 2.9375 -8.382812 2.4375 -8.96875 C 1.945312 -9.550781 1.703125 -10.335938 1.703125 -11.328125 C 1.703125 -12.078125 1.925781 -12.765625 2.375 -13.390625 C 2.820312 -14.023438 3.453125 -14.523438 4.265625 -14.890625 C 5.085938 -15.265625 6.019531 -15.453125 7.0625 -15.453125 C 8.695312 -15.453125 10.015625 -15.035156 11.015625 -14.203125 C 12.023438 -13.378906 12.566406 -12.242188 12.640625 -10.796875 L 10.6875 -10.796875 C 10.632812 -11.691406 10.285156 -12.410156 9.640625 -12.953125 C 8.992188 -13.503906 8.113281 -13.78125 7 -13.78125 C 6.019531 -13.78125 5.222656 -13.546875 4.609375 -13.078125 C 3.992188 -12.617188 3.6875 -12.046875 3.6875 -11.359375 C 3.6875 -10.765625 3.863281 -10.273438 4.21875 -9.890625 C 4.582031 -9.515625 5.035156 -9.21875 5.578125 -9 C 6.117188 -8.78125 6.847656 -8.539062 7.765625 -8.28125 C 8.859375 -7.988281 9.726562 -7.703125 10.375 -7.421875 C 11.03125 -7.140625 11.585938 -6.726562 12.046875 -6.1875 C 12.515625 -5.65625 12.757812 -4.941406 12.78125 -4.046875 C 12.78125 -3.222656 12.554688 -2.488281 12.109375 -1.84375 C 11.660156 -1.207031 11.035156 -0.703125 10.234375 -0.328125 C 9.441406 0.0351562 8.523438 0.21875 7.484375 0.21875 Z M 7.484375 0.21875 "/></g></g></g><g fill="#f9f6f9" fill-opacity="1"><g transform="translate(450.843731, 442.687754)"><g><path d="M 4.1875 -17.921875 L 4.1875 -10.625 L 11.578125 -10.625 L 11.578125 -9.015625 L 4.1875 -9.015625 L 4.1875 -1.625 L 12.421875 -1.625 L 12.421875 0 L 2.234375 0 L 2.234375 -19.53125 L 12.421875 -19.53125 L 12.421875 -17.921875 Z M 4.1875 -17.921875 "/></g></g></g><g fill="#f9f6f9" fill-opacity="1"><g transform="translate(464.878593, 442.687754)"><g><path d="M 4.15625 -11.890625 C 4.644531 -12.910156 5.410156 -13.757812 6.453125 -14.4375 C 7.503906 -15.113281 8.757812 -15.453125 10.21875 -15.453125 C 11.59375 -15.453125 12.832031 -15.128906 13.9375 -14.484375 C 15.039062 -13.847656 15.90625 -12.9375 16.53125 -11.75 C 17.15625 -10.570312 17.46875 -9.203125 17.46875 -7.640625 C 17.46875 -6.078125 17.15625 -4.703125 16.53125 -3.515625 C 15.90625 -2.328125 15.039062 -1.40625 13.9375 -0.75 C 12.832031 -0.101562 11.59375 0.21875 10.21875 0.21875 C 8.78125 0.21875 7.53125 -0.117188 6.46875 -0.796875 C 5.414062 -1.472656 4.644531 -2.320312 4.15625 -3.34375 L 4.15625 7.203125 L 2.234375 7.203125 L 2.234375 -15.234375 L 4.15625 -15.234375 Z M 15.484375 -7.640625 C 15.484375 -8.910156 15.238281 -10.003906 14.75 -10.921875 C 14.257812 -11.847656 13.582031 -12.550781 12.71875 -13.03125 C 11.863281 -13.507812 10.898438 -13.75 9.828125 -13.75 C 8.785156 -13.75 7.832031 -13.5 6.96875 -13 C 6.101562 -12.5 5.414062 -11.78125 4.90625 -10.84375 C 4.40625 -9.914062 4.15625 -8.84375 4.15625 -7.625 C 4.15625 -6.394531 4.40625 -5.3125 4.90625 -4.375 C 5.414062 -3.445312 6.101562 -2.734375 6.96875 -2.234375 C 7.832031 -1.734375 8.785156 -1.484375 9.828125 -1.484375 C 10.898438 -1.484375 11.863281 -1.726562 12.71875 -2.21875 C 13.582031 -2.707031 14.257812 -3.421875 14.75 -4.359375 C 15.238281 -5.304688 15.484375 -6.398438 15.484375 -7.640625 Z M 15.484375 -7.640625 "/></g></g></g><g fill="#f9f6f9" fill-opacity="1"><g transform="translate(483.712649, 442.687754)"><g><path d="M 3.203125 -18.109375 C 2.816406 -18.109375 2.484375 -18.25 2.203125 -18.53125 C 1.921875 -18.8125 1.78125 -19.15625 1.78125 -19.5625 C 1.78125 -19.96875 1.921875 -20.304688 2.203125 -20.578125 C 2.484375 -20.847656 2.816406 -20.984375 3.203125 -20.984375 C 3.597656 -20.984375 3.929688 -20.847656 4.203125 -20.578125 C 4.484375 -20.304688 4.625 -19.96875 4.625 -19.5625 C 4.625 -19.15625 4.484375 -18.8125 4.203125 -18.53125 C 3.929688 -18.25 3.597656 -18.109375 3.203125 -18.109375 Z M 4.1875 -15.234375 L 4.1875 0 L 2.234375 0 L 2.234375 -15.234375 Z M 4.1875 -15.234375 "/></g></g></g><g fill="#f9f6f9" fill-opacity="1"><g transform="translate(490.102275, 442.687754)"><g><path d="M 8.625 -15.453125 C 10.050781 -15.453125 11.296875 -15.117188 12.359375 -14.453125 C 13.421875 -13.785156 14.1875 -12.941406 14.65625 -11.921875 L 14.65625 -15.234375 L 16.609375 -15.234375 L 16.609375 0.390625 C 16.609375 1.785156 16.304688 3.019531 15.703125 4.09375 C 15.097656 5.175781 14.253906 6.007812 13.171875 6.59375 C 12.085938 7.1875 10.859375 7.484375 9.484375 7.484375 C 7.535156 7.484375 5.910156 7.015625 4.609375 6.078125 C 3.316406 5.148438 2.515625 3.882812 2.203125 2.28125 L 4.125 2.28125 C 4.457031 3.34375 5.09375 4.191406 6.03125 4.828125 C 6.976562 5.460938 8.128906 5.78125 9.484375 5.78125 C 10.472656 5.78125 11.359375 5.566406 12.140625 5.140625 C 12.921875 4.722656 13.535156 4.101562 13.984375 3.28125 C 14.429688 2.46875 14.65625 1.503906 14.65625 0.390625 L 14.65625 -3.375 C 14.164062 -2.332031 13.394531 -1.472656 12.34375 -0.796875 C 11.289062 -0.117188 10.050781 0.21875 8.625 0.21875 C 7.226562 0.21875 5.972656 -0.101562 4.859375 -0.75 C 3.753906 -1.40625 2.890625 -2.328125 2.265625 -3.515625 C 1.648438 -4.703125 1.34375 -6.078125 1.34375 -7.640625 C 1.34375 -9.203125 1.648438 -10.570312 2.265625 -11.75 C 2.890625 -12.9375 3.753906 -13.847656 4.859375 -14.484375 C 5.972656 -15.128906 7.226562 -15.453125 8.625 -15.453125 Z M 14.65625 -7.625 C 14.65625 -8.84375 14.398438 -9.914062 13.890625 -10.84375 C 13.390625 -11.78125 12.707031 -12.5 11.84375 -13 C 10.976562 -13.5 10.023438 -13.75 8.984375 -13.75 C 7.910156 -13.75 6.941406 -13.507812 6.078125 -13.03125 C 5.222656 -12.550781 4.550781 -11.847656 4.0625 -10.921875 C 3.570312 -10.003906 3.328125 -8.910156 3.328125 -7.640625 C 3.328125 -6.398438 3.570312 -5.304688 4.0625 -4.359375 C 4.550781 -3.421875 5.222656 -2.707031 6.078125 -2.21875 C 6.941406 -1.726562 7.910156 -1.484375 8.984375 -1.484375 C 10.023438 -1.484375 10.976562 -1.734375 11.84375 -2.234375 C 12.707031 -2.734375 13.390625 -3.445312 13.890625 -4.375 C 14.398438 -5.3125 14.65625 -6.394531 14.65625 -7.625 Z M 14.65625 -7.625 "/></g></g></g><g fill="#f9f6f9" fill-opacity="1"><g transform="translate(508.936331, 442.687754)"><g><path d="M 16.015625 -8.40625 C 16.015625 -7.726562 16 -7.210938 15.96875 -6.859375 L 3.328125 -6.859375 C 3.378906 -5.710938 3.65625 -4.726562 4.15625 -3.90625 C 4.65625 -3.082031 5.316406 -2.460938 6.140625 -2.046875 C 6.960938 -1.628906 7.851562 -1.421875 8.8125 -1.421875 C 10.082031 -1.421875 11.148438 -1.726562 12.015625 -2.34375 C 12.878906 -2.957031 13.453125 -3.785156 13.734375 -4.828125 L 15.796875 -4.828125 C 15.421875 -3.335938 14.625 -2.125 13.40625 -1.1875 C 12.1875 -0.25 10.65625 0.21875 8.8125 0.21875 C 7.382812 0.21875 6.101562 -0.0976562 4.96875 -0.734375 C 3.832031 -1.378906 2.941406 -2.289062 2.296875 -3.46875 C 1.660156 -4.65625 1.34375 -6.039062 1.34375 -7.625 C 1.34375 -9.195312 1.65625 -10.578125 2.28125 -11.765625 C 2.914062 -12.960938 3.800781 -13.875 4.9375 -14.5 C 6.070312 -15.132812 7.363281 -15.453125 8.8125 -15.453125 C 10.269531 -15.453125 11.539062 -15.132812 12.625 -14.5 C 13.71875 -13.875 14.554688 -13.023438 15.140625 -11.953125 C 15.722656 -10.890625 16.015625 -9.707031 16.015625 -8.40625 Z M 14.03125 -8.453125 C 14.050781 -9.585938 13.820312 -10.554688 13.34375 -11.359375 C 12.875 -12.160156 12.226562 -12.765625 11.40625 -13.171875 C 10.59375 -13.578125 9.703125 -13.78125 8.734375 -13.78125 C 7.285156 -13.78125 6.046875 -13.316406 5.015625 -12.390625 C 3.992188 -11.460938 3.429688 -10.148438 3.328125 -8.453125 Z M 14.03125 -8.453125 "/></g></g></g><g fill="#f9f6f9" fill-opacity="1"><g transform="translate(526.291559, 442.687754)"><g><path d="M 9.375 -15.515625 C 11.195312 -15.515625 12.6875 -14.953125 13.84375 -13.828125 C 15 -12.703125 15.578125 -11.070312 15.578125 -8.9375 L 15.578125 0 L 13.640625 0 L 13.640625 -8.703125 C 13.640625 -10.359375 13.222656 -11.625 12.390625 -12.5 C 11.566406 -13.375 10.441406 -13.8125 9.015625 -13.8125 C 7.546875 -13.8125 6.375 -13.34375 5.5 -12.40625 C 4.625 -11.476562 4.1875 -10.113281 4.1875 -8.3125 L 4.1875 0 L 2.234375 0 L 2.234375 -15.234375 L 4.1875 -15.234375 L 4.1875 -12.640625 C 4.664062 -13.566406 5.359375 -14.273438 6.265625 -14.765625 C 7.179688 -15.265625 8.21875 -15.515625 9.375 -15.515625 Z M 9.375 -15.515625 "/></g></g></g><g fill="#f9f6f9" fill-opacity="1"><g transform="translate(543.953717, 442.687754)"><g><path d="M 16.015625 -8.40625 C 16.015625 -7.726562 16 -7.210938 15.96875 -6.859375 L 3.328125 -6.859375 C 3.378906 -5.710938 3.65625 -4.726562 4.15625 -3.90625 C 4.65625 -3.082031 5.316406 -2.460938 6.140625 -2.046875 C 6.960938 -1.628906 7.851562 -1.421875 8.8125 -1.421875 C 10.082031 -1.421875 11.148438 -1.726562 12.015625 -2.34375 C 12.878906 -2.957031 13.453125 -3.785156 13.734375 -4.828125 L 15.796875 -4.828125 C 15.421875 -3.335938 14.625 -2.125 13.40625 -1.1875 C 12.1875 -0.25 10.65625 0.21875 8.8125 0.21875 C 7.382812 0.21875 6.101562 -0.0976562 4.96875 -0.734375 C 3.832031 -1.378906 2.941406 -2.289062 2.296875 -3.46875 C 1.660156 -4.65625 1.34375 -6.039062 1.34375 -7.625 C 1.34375 -9.195312 1.65625 -10.578125 2.28125 -11.765625 C 2.914062 -12.960938 3.800781 -13.875 4.9375 -14.5 C 6.070312 -15.132812 7.363281 -15.453125 8.8125 -15.453125 C 10.269531 -15.453125 11.539062 -15.132812 12.625 -14.5 C 13.71875 -13.875 14.554688 -13.023438 15.140625 -11.953125 C 15.722656 -10.890625 16.015625 -9.707031 16.015625 -8.40625 Z M 14.03125 -8.453125 C 14.050781 -9.585938 13.820312 -10.554688 13.34375 -11.359375 C 12.875 -12.160156 12.226562 -12.765625 11.40625 -13.171875 C 10.59375 -13.578125 9.703125 -13.78125 8.734375 -13.78125 C 7.285156 -13.78125 6.046875 -13.316406 5.015625 -12.390625 C 3.992188 -11.460938 3.429688 -10.148438 3.328125 -8.453125 Z M 14.03125 -8.453125 "/></g></g></g><g fill="#f9f6f9" fill-opacity="1"><g transform="translate(561.308945, 442.687754)"><g><path d="M 4.765625 -13.59375 L 4.765625 -4.125 C 4.765625 -3.195312 4.941406 -2.554688 5.296875 -2.203125 C 5.648438 -1.847656 6.273438 -1.671875 7.171875 -1.671875 L 8.953125 -1.671875 L 8.953125 0 L 6.859375 0 C 5.484375 0 4.460938 -0.316406 3.796875 -0.953125 C 3.128906 -1.597656 2.796875 -2.65625 2.796875 -4.125 L 2.796875 -13.59375 L 0.671875 -13.59375 L 0.671875 -15.234375 L 2.796875 -15.234375 L 2.796875 -19.0625 L 4.765625 -19.0625 L 4.765625 -15.234375 L 8.953125 -15.234375 L 8.953125 -13.59375 Z M 4.765625 -13.59375 "/></g></g></g><g fill="#f9f6f9" fill-opacity="1"><g transform="translate(571.242164, 442.687754)"><g><path d="M 3.203125 -18.109375 C 2.816406 -18.109375 2.484375 -18.25 2.203125 -18.53125 C 1.921875 -18.8125 1.78125 -19.15625 1.78125 -19.5625 C 1.78125 -19.96875 1.921875 -20.304688 2.203125 -20.578125 C 2.484375 -20.847656 2.816406 -20.984375 3.203125 -20.984375 C 3.597656 -20.984375 3.929688 -20.847656 4.203125 -20.578125 C 4.484375 -20.304688 4.625 -19.96875 4.625 -19.5625 C 4.625 -19.15625 4.484375 -18.8125 4.203125 -18.53125 C 3.929688 -18.25 3.597656 -18.109375 3.203125 -18.109375 Z M 4.1875 -15.234375 L 4.1875 0 L 2.234375 0 L 2.234375 -15.234375 Z M 4.1875 -15.234375 "/></g></g></g><g fill="#f9f6f9" fill-opacity="1"><g transform="translate(577.63179, 442.687754)"><g><path d="M 1.34375 -7.625 C 1.34375 -9.195312 1.65625 -10.570312 2.28125 -11.75 C 2.914062 -12.9375 3.789062 -13.847656 4.90625 -14.484375 C 6.019531 -15.128906 7.296875 -15.453125 8.734375 -15.453125 C 10.609375 -15.453125 12.15625 -14.988281 13.375 -14.0625 C 14.59375 -13.132812 15.378906 -11.867188 15.734375 -10.265625 L 13.640625 -10.265625 C 13.378906 -11.367188 12.816406 -12.226562 11.953125 -12.84375 C 11.085938 -13.46875 10.015625 -13.78125 8.734375 -13.78125 C 7.710938 -13.78125 6.789062 -13.546875 5.96875 -13.078125 C 5.15625 -12.617188 4.507812 -11.925781 4.03125 -11 C 3.5625 -10.082031 3.328125 -8.957031 3.328125 -7.625 C 3.328125 -6.28125 3.5625 -5.140625 4.03125 -4.203125 C 4.507812 -3.273438 5.15625 -2.578125 5.96875 -2.109375 C 6.789062 -1.648438 7.710938 -1.421875 8.734375 -1.421875 C 10.015625 -1.421875 11.085938 -1.734375 11.953125 -2.359375 C 12.816406 -2.984375 13.378906 -3.851562 13.640625 -4.96875 L 15.734375 -4.96875 C 15.378906 -3.40625 14.585938 -2.148438 13.359375 -1.203125 C 12.140625 -0.253906 10.597656 0.21875 8.734375 0.21875 C 7.296875 0.21875 6.019531 -0.0976562 4.90625 -0.734375 C 3.789062 -1.378906 2.914062 -2.289062 2.28125 -3.46875 C 1.65625 -4.65625 1.34375 -6.039062 1.34375 -7.625 Z M 1.34375 -7.625 "/></g></g></g><g fill="#f9f6f9" fill-opacity="1"><g transform="translate(594.73826, 442.687754)"><g/></g></g><g fill="#f9f6f9" fill-opacity="1"><g transform="translate(473.953105, 481.687752)"><g><path d="M 4.1875 -19.5 L 4.1875 0 L 2.234375 0 L 2.234375 -19.5 Z M 4.1875 -19.5 "/></g></g></g><g fill="#f9f6f9" fill-opacity="1"><g transform="translate(480.342731, 481.687752)"><g><path d="M 9.375 -15.515625 C 11.195312 -15.515625 12.6875 -14.953125 13.84375 -13.828125 C 15 -12.703125 15.578125 -11.070312 15.578125 -8.9375 L 15.578125 0 L 13.640625 0 L 13.640625 -8.703125 C 13.640625 -10.359375 13.222656 -11.625 12.390625 -12.5 C 11.566406 -13.375 10.441406 -13.8125 9.015625 -13.8125 C 7.546875 -13.8125 6.375 -13.34375 5.5 -12.40625 C 4.625 -11.476562 4.1875 -10.113281 4.1875 -8.3125 L 4.1875 0 L 2.234375 0 L 2.234375 -15.234375 L 4.1875 -15.234375 L 4.1875 -12.640625 C 4.664062 -13.566406 5.359375 -14.273438 6.265625 -14.765625 C 7.179688 -15.265625 8.21875 -15.515625 9.375 -15.515625 Z M 9.375 -15.515625 "/></g></g></g><g fill="#f9f6f9" fill-opacity="1"><g transform="translate(498.004889, 481.687752)"><g><path d="M 7.484375 0.21875 C 5.734375 0.21875 4.300781 -0.179688 3.1875 -0.984375 C 2.082031 -1.796875 1.46875 -2.898438 1.34375 -4.296875 L 3.34375 -4.296875 C 3.4375 -3.441406 3.84375 -2.75 4.5625 -2.21875 C 5.28125 -1.6875 6.242188 -1.421875 7.453125 -1.421875 C 8.515625 -1.421875 9.347656 -1.671875 9.953125 -2.171875 C 10.554688 -2.679688 10.859375 -3.304688 10.859375 -4.046875 C 10.859375 -4.566406 10.6875 -4.992188 10.34375 -5.328125 C 10.007812 -5.660156 9.585938 -5.925781 9.078125 -6.125 C 8.566406 -6.320312 7.875 -6.53125 7 -6.75 C 5.863281 -7.050781 4.941406 -7.347656 4.234375 -7.640625 C 3.535156 -7.941406 2.9375 -8.382812 2.4375 -8.96875 C 1.945312 -9.550781 1.703125 -10.335938 1.703125 -11.328125 C 1.703125 -12.078125 1.925781 -12.765625 2.375 -13.390625 C 2.820312 -14.023438 3.453125 -14.523438 4.265625 -14.890625 C 5.085938 -15.265625 6.019531 -15.453125 7.0625 -15.453125 C 8.695312 -15.453125 10.015625 -15.035156 11.015625 -14.203125 C 12.023438 -13.378906 12.566406 -12.242188 12.640625 -10.796875 L 10.6875 -10.796875 C 10.632812 -11.691406 10.285156 -12.410156 9.640625 -12.953125 C 8.992188 -13.503906 8.113281 -13.78125 7 -13.78125 C 6.019531 -13.78125 5.222656 -13.546875 4.609375 -13.078125 C 3.992188 -12.617188 3.6875 -12.046875 3.6875 -11.359375 C 3.6875 -10.765625 3.863281 -10.273438 4.21875 -9.890625 C 4.582031 -9.515625 5.035156 -9.21875 5.578125 -9 C 6.117188 -8.78125 6.847656 -8.539062 7.765625 -8.28125 C 8.859375 -7.988281 9.726562 -7.703125 10.375 -7.421875 C 11.03125 -7.140625 11.585938 -6.726562 12.046875 -6.1875 C 12.515625 -5.65625 12.757812 -4.941406 12.78125 -4.046875 C 12.78125 -3.222656 12.554688 -2.488281 12.109375 -1.84375 C 11.660156 -1.207031 11.035156 -0.703125 10.234375 -0.328125 C 9.441406 0.0351562 8.523438 0.21875 7.484375 0.21875 Z M 7.484375 0.21875 "/></g></g></g><g fill="#f9f6f9" fill-opacity="1"><g transform="translate(512.235067, 481.687752)"><g><path d="M 3.203125 -18.109375 C 2.816406 -18.109375 2.484375 -18.25 2.203125 -18.53125 C 1.921875 -18.8125 1.78125 -19.15625 1.78125 -19.5625 C 1.78125 -19.96875 1.921875 -20.304688 2.203125 -20.578125 C 2.484375 -20.847656 2.816406 -20.984375 3.203125 -20.984375 C 3.597656 -20.984375 3.929688 -20.847656 4.203125 -20.578125 C 4.484375 -20.304688 4.625 -19.96875 4.625 -19.5625 C 4.625 -19.15625 4.484375 -18.8125 4.203125 -18.53125 C 3.929688 -18.25 3.597656 -18.109375 3.203125 -18.109375 Z M 4.1875 -15.234375 L 4.1875 0 L 2.234375 0 L 2.234375 -15.234375 Z M 4.1875 -15.234375 "/></g></g></g><g fill="#f9f6f9" fill-opacity="1"><g transform="translate(518.624692, 481.687752)"><g><path d="M 8.625 -15.453125 C 10.050781 -15.453125 11.296875 -15.117188 12.359375 -14.453125 C 13.421875 -13.785156 14.1875 -12.941406 14.65625 -11.921875 L 14.65625 -15.234375 L 16.609375 -15.234375 L 16.609375 0.390625 C 16.609375 1.785156 16.304688 3.019531 15.703125 4.09375 C 15.097656 5.175781 14.253906 6.007812 13.171875 6.59375 C 12.085938 7.1875 10.859375 7.484375 9.484375 7.484375 C 7.535156 7.484375 5.910156 7.015625 4.609375 6.078125 C 3.316406 5.148438 2.515625 3.882812 2.203125 2.28125 L 4.125 2.28125 C 4.457031 3.34375 5.09375 4.191406 6.03125 4.828125 C 6.976562 5.460938 8.128906 5.78125 9.484375 5.78125 C 10.472656 5.78125 11.359375 5.566406 12.140625 5.140625 C 12.921875 4.722656 13.535156 4.101562 13.984375 3.28125 C 14.429688 2.46875 14.65625 1.503906 14.65625 0.390625 L 14.65625 -3.375 C 14.164062 -2.332031 13.394531 -1.472656 12.34375 -0.796875 C 11.289062 -0.117188 10.050781 0.21875 8.625 0.21875 C 7.226562 0.21875 5.972656 -0.101562 4.859375 -0.75 C 3.753906 -1.40625 2.890625 -2.328125 2.265625 -3.515625 C 1.648438 -4.703125 1.34375 -6.078125 1.34375 -7.640625 C 1.34375 -9.203125 1.648438 -10.570312 2.265625 -11.75 C 2.890625 -12.9375 3.753906 -13.847656 4.859375 -14.484375 C 5.972656 -15.128906 7.226562 -15.453125 8.625 -15.453125 Z M 14.65625 -7.625 C 14.65625 -8.84375 14.398438 -9.914062 13.890625 -10.84375 C 13.390625 -11.78125 12.707031 -12.5 11.84375 -13 C 10.976562 -13.5 10.023438 -13.75 8.984375 -13.75 C 7.910156 -13.75 6.941406 -13.507812 6.078125 -13.03125 C 5.222656 -12.550781 4.550781 -11.847656 4.0625 -10.921875 C 3.570312 -10.003906 3.328125 -8.910156 3.328125 -7.640625 C 3.328125 -6.398438 3.570312 -5.304688 4.0625 -4.359375 C 4.550781 -3.421875 5.222656 -2.707031 6.078125 -2.21875 C 6.941406 -1.726562 7.910156 -1.484375 8.984375 -1.484375 C 10.023438 -1.484375 10.976562 -1.734375 11.84375 -2.234375 C 12.707031 -2.734375 13.390625 -3.445312 13.890625 -4.375 C 14.398438 -5.3125 14.65625 -6.394531 14.65625 -7.625 Z M 14.65625 -7.625 "/></g></g></g><g fill="#f9f6f9" fill-opacity="1"><g transform="translate(537.458748, 481.687752)"><g><path d="M 9.484375 -15.515625 C 10.640625 -15.515625 11.675781 -15.269531 12.59375 -14.78125 C 13.519531 -14.300781 14.25 -13.5625 14.78125 -12.5625 C 15.3125 -11.570312 15.578125 -10.363281 15.578125 -8.9375 L 15.578125 0 L 13.640625 0 L 13.640625 -8.703125 C 13.640625 -10.359375 13.222656 -11.625 12.390625 -12.5 C 11.566406 -13.375 10.441406 -13.8125 9.015625 -13.8125 C 7.546875 -13.8125 6.375 -13.34375 5.5 -12.40625 C 4.625 -11.476562 4.1875 -10.113281 4.1875 -8.3125 L 4.1875 0 L 2.234375 0 L 2.234375 -20.65625 L 4.1875 -20.65625 L 4.1875 -12.640625 C 4.664062 -13.554688 5.375 -14.265625 6.3125 -14.765625 C 7.257812 -15.265625 8.316406 -15.515625 9.484375 -15.515625 Z M 9.484375 -15.515625 "/></g></g></g><g fill="#f9f6f9" fill-opacity="1"><g transform="translate(555.120906, 481.687752)"><g><path d="M 4.765625 -13.59375 L 4.765625 -4.125 C 4.765625 -3.195312 4.941406 -2.554688 5.296875 -2.203125 C 5.648438 -1.847656 6.273438 -1.671875 7.171875 -1.671875 L 8.953125 -1.671875 L 8.953125 0 L 6.859375 0 C 5.484375 0 4.460938 -0.316406 3.796875 -0.953125 C 3.128906 -1.597656 2.796875 -2.65625 2.796875 -4.125 L 2.796875 -13.59375 L 0.671875 -13.59375 L 0.671875 -15.234375 L 2.796875 -15.234375 L 2.796875 -19.0625 L 4.765625 -19.0625 L 4.765625 -15.234375 L 8.953125 -15.234375 L 8.953125 -13.59375 Z M 4.765625 -13.59375 "/></g></g></g><g fill="#f9f6f9" fill-opacity="1"><g transform="translate(565.054126, 481.687752)"><g><path d="M 7.484375 0.21875 C 5.734375 0.21875 4.300781 -0.179688 3.1875 -0.984375 C 2.082031 -1.796875 1.46875 -2.898438 1.34375 -4.296875 L 3.34375 -4.296875 C 3.4375 -3.441406 3.84375 -2.75 4.5625 -2.21875 C 5.28125 -1.6875 6.242188 -1.421875 7.453125 -1.421875 C 8.515625 -1.421875 9.347656 -1.671875 9.953125 -2.171875 C 10.554688 -2.679688 10.859375 -3.304688 10.859375 -4.046875 C 10.859375 -4.566406 10.6875 -4.992188 10.34375 -5.328125 C 10.007812 -5.660156 9.585938 -5.925781 9.078125 -6.125 C 8.566406 -6.320312 7.875 -6.53125 7 -6.75 C 5.863281 -7.050781 4.941406 -7.347656 4.234375 -7.640625 C 3.535156 -7.941406 2.9375 -8.382812 2.4375 -8.96875 C 1.945312 -9.550781 1.703125 -10.335938 1.703125 -11.328125 C 1.703125 -12.078125 1.925781 -12.765625 2.375 -13.390625 C 2.820312 -14.023438 3.453125 -14.523438 4.265625 -14.890625 C 5.085938 -15.265625 6.019531 -15.453125 7.0625 -15.453125 C 8.695312 -15.453125 10.015625 -15.035156 11.015625 -14.203125 C 12.023438 -13.378906 12.566406 -12.242188 12.640625 -10.796875 L 10.6875 -10.796875 C 10.632812 -11.691406 10.285156 -12.410156 9.640625 -12.953125 C 8.992188 -13.503906 8.113281 -13.78125 7 -13.78125 C 6.019531 -13.78125 5.222656 -13.546875 4.609375 -13.078125 C 3.992188 -12.617188 3.6875 -12.046875 3.6875 -11.359375 C 3.6875 -10.765625 3.863281 -10.273438 4.21875 -9.890625 C 4.582031 -9.515625 5.035156 -9.21875 5.578125 -9 C 6.117188 -8.78125 6.847656 -8.539062 7.765625 -8.28125 C 8.859375 -7.988281 9.726562 -7.703125 10.375 -7.421875 C 11.03125 -7.140625 11.585938 -6.726562 12.046875 -6.1875 C 12.515625 -5.65625 12.757812 -4.941406 12.78125 -4.046875 C 12.78125 -3.222656 12.554688 -2.488281 12.109375 -1.84375 C 11.660156 -1.207031 11.035156 -0.703125 10.234375 -0.328125 C 9.441406 0.0351562 8.523438 0.21875 7.484375 0.21875 Z M 7.484375 0.21875 "/></g></g></g><g fill="#f9f6f9" fill-opacity="1"><g transform="translate(115.011207, 406.752982)"><g><path d="M 11.359375 -10.078125 C 12.453125 -9.867188 13.378906 -9.304688 14.140625 -8.390625 C 14.910156 -7.484375 15.296875 -6.425781 15.296875 -5.21875 C 15.296875 -4.226562 15.046875 -3.335938 14.546875 -2.546875 C 14.054688 -1.765625 13.335938 -1.144531 12.390625 -0.6875 C 11.441406 -0.226562 10.304688 0 8.984375 0 L 2.234375 0 L 2.234375 -19.5 L 8.796875 -19.5 C 10.765625 -19.5 12.265625 -19.039062 13.296875 -18.125 C 14.328125 -17.21875 14.84375 -16.039062 14.84375 -14.59375 C 14.84375 -13.382812 14.515625 -12.398438 13.859375 -11.640625 C 13.210938 -10.890625 12.378906 -10.367188 11.359375 -10.078125 Z M 4.1875 -10.890625 L 8.734375 -10.890625 C 10.054688 -10.890625 11.070312 -11.195312 11.78125 -11.8125 C 12.5 -12.4375 12.859375 -13.300781 12.859375 -14.40625 C 12.859375 -15.476562 12.5 -16.320312 11.78125 -16.9375 C 11.070312 -17.550781 10.03125 -17.859375 8.65625 -17.859375 L 4.1875 -17.859375 Z M 8.84375 -1.640625 C 10.257812 -1.640625 11.363281 -1.972656 12.15625 -2.640625 C 12.945312 -3.316406 13.34375 -4.238281 13.34375 -5.40625 C 13.34375 -6.582031 12.925781 -7.519531 12.09375 -8.21875 C 11.269531 -8.914062 10.160156 -9.265625 8.765625 -9.265625 L 4.1875 -9.265625 L 4.1875 -1.640625 Z M 8.84375 -1.640625 "/></g></g></g><g fill="#f9f6f9" fill-opacity="1"><g transform="translate(131.668883, 406.752982)"><g><path d="M 16.015625 -8.40625 C 16.015625 -7.726562 16 -7.210938 15.96875 -6.859375 L 3.328125 -6.859375 C 3.378906 -5.710938 3.65625 -4.726562 4.15625 -3.90625 C 4.65625 -3.082031 5.316406 -2.460938 6.140625 -2.046875 C 6.960938 -1.628906 7.851562 -1.421875 8.8125 -1.421875 C 10.082031 -1.421875 11.148438 -1.726562 12.015625 -2.34375 C 12.878906 -2.957031 13.453125 -3.785156 13.734375 -4.828125 L 15.796875 -4.828125 C 15.421875 -3.335938 14.625 -2.125 13.40625 -1.1875 C 12.1875 -0.25 10.65625 0.21875 8.8125 0.21875 C 7.382812 0.21875 6.101562 -0.0976562 4.96875 -0.734375 C 3.832031 -1.378906 2.941406 -2.289062 2.296875 -3.46875 C 1.660156 -4.65625 1.34375 -6.039062 1.34375 -7.625 C 1.34375 -9.195312 1.65625 -10.578125 2.28125 -11.765625 C 2.914062 -12.960938 3.800781 -13.875 4.9375 -14.5 C 6.070312 -15.132812 7.363281 -15.453125 8.8125 -15.453125 C 10.269531 -15.453125 11.539062 -15.132812 12.625 -14.5 C 13.71875 -13.875 14.554688 -13.023438 15.140625 -11.953125 C 15.722656 -10.890625 16.015625 -9.707031 16.015625 -8.40625 Z M 14.03125 -8.453125 C 14.050781 -9.585938 13.820312 -10.554688 13.34375 -11.359375 C 12.875 -12.160156 12.226562 -12.765625 11.40625 -13.171875 C 10.59375 -13.578125 9.703125 -13.78125 8.734375 -13.78125 C 7.285156 -13.78125 6.046875 -13.316406 5.015625 -12.390625 C 3.992188 -11.460938 3.429688 -10.148438 3.328125 -8.453125 Z M 14.03125 -8.453125 "/></g></g></g><g fill="#f9f6f9" fill-opacity="1"><g transform="translate(149.024111, 406.752982)"><g><path d="M 9.484375 -15.515625 C 10.640625 -15.515625 11.675781 -15.269531 12.59375 -14.78125 C 13.519531 -14.300781 14.25 -13.5625 14.78125 -12.5625 C 15.3125 -11.570312 15.578125 -10.363281 15.578125 -8.9375 L 15.578125 0 L 13.640625 0 L 13.640625 -8.703125 C 13.640625 -10.359375 13.222656 -11.625 12.390625 -12.5 C 11.566406 -13.375 10.441406 -13.8125 9.015625 -13.8125 C 7.546875 -13.8125 6.375 -13.34375 5.5 -12.40625 C 4.625 -11.476562 4.1875 -10.113281 4.1875 -8.3125 L 4.1875 0 L 2.234375 0 L 2.234375 -20.65625 L 4.1875 -20.65625 L 4.1875 -12.640625 C 4.664062 -13.554688 5.375 -14.265625 6.3125 -14.765625 C 7.257812 -15.265625 8.316406 -15.515625 9.484375 -15.515625 Z M 9.484375 -15.515625 "/></g></g></g><g fill="#f9f6f9" fill-opacity="1"><g transform="translate(166.686269, 406.752982)"><g><path d="M 1.34375 -7.640625 C 1.34375 -9.203125 1.648438 -10.570312 2.265625 -11.75 C 2.890625 -12.9375 3.753906 -13.847656 4.859375 -14.484375 C 5.972656 -15.128906 7.226562 -15.453125 8.625 -15.453125 C 10.070312 -15.453125 11.320312 -15.117188 12.375 -14.453125 C 13.425781 -13.785156 14.1875 -12.929688 14.65625 -11.890625 L 14.65625 -15.234375 L 16.609375 -15.234375 L 16.609375 0 L 14.65625 0 L 14.65625 -3.375 C 14.164062 -2.332031 13.394531 -1.472656 12.34375 -0.796875 C 11.289062 -0.117188 10.039062 0.21875 8.59375 0.21875 C 7.21875 0.21875 5.972656 -0.101562 4.859375 -0.75 C 3.753906 -1.40625 2.890625 -2.328125 2.265625 -3.515625 C 1.648438 -4.703125 1.34375 -6.078125 1.34375 -7.640625 Z M 14.65625 -7.625 C 14.65625 -8.84375 14.398438 -9.914062 13.890625 -10.84375 C 13.390625 -11.78125 12.707031 -12.5 11.84375 -13 C 10.976562 -13.5 10.023438 -13.75 8.984375 -13.75 C 7.910156 -13.75 6.941406 -13.507812 6.078125 -13.03125 C 5.222656 -12.550781 4.550781 -11.847656 4.0625 -10.921875 C 3.570312 -10.003906 3.328125 -8.910156 3.328125 -7.640625 C 3.328125 -6.398438 3.570312 -5.304688 4.0625 -4.359375 C 4.550781 -3.421875 5.222656 -2.707031 6.078125 -2.21875 C 6.941406 -1.726562 7.910156 -1.484375 8.984375 -1.484375 C 10.023438 -1.484375 10.976562 -1.734375 11.84375 -2.234375 C 12.707031 -2.734375 13.390625 -3.445312 13.890625 -4.375 C 14.398438 -5.3125 14.65625 -6.394531 14.65625 -7.625 Z M 14.65625 -7.625 "/></g></g></g><g fill="#f9f6f9" fill-opacity="1"><g transform="translate(185.520325, 406.752982)"><g><path d="M 7.640625 -1.890625 L 12.78125 -15.234375 L 14.84375 -15.234375 L 8.734375 0 L 6.53125 0 L 0.421875 -15.234375 L 2.515625 -15.234375 Z M 7.640625 -1.890625 "/></g></g></g><g fill="#f9f6f9" fill-opacity="1"><g transform="translate(200.782886, 406.752982)"><g><path d="M 3.203125 -18.109375 C 2.816406 -18.109375 2.484375 -18.25 2.203125 -18.53125 C 1.921875 -18.8125 1.78125 -19.15625 1.78125 -19.5625 C 1.78125 -19.96875 1.921875 -20.304688 2.203125 -20.578125 C 2.484375 -20.847656 2.816406 -20.984375 3.203125 -20.984375 C 3.597656 -20.984375 3.929688 -20.847656 4.203125 -20.578125 C 4.484375 -20.304688 4.625 -19.96875 4.625 -19.5625 C 4.625 -19.15625 4.484375 -18.8125 4.203125 -18.53125 C 3.929688 -18.25 3.597656 -18.109375 3.203125 -18.109375 Z M 4.1875 -15.234375 L 4.1875 0 L 2.234375 0 L 2.234375 -15.234375 Z M 4.1875 -15.234375 "/></g></g></g><g fill="#f9f6f9" fill-opacity="1"><g transform="translate(207.172511, 406.752982)"><g><path d="M 8.90625 0.21875 C 7.46875 0.21875 6.175781 -0.0976562 5.03125 -0.734375 C 3.894531 -1.378906 2.992188 -2.289062 2.328125 -3.46875 C 1.671875 -4.65625 1.34375 -6.039062 1.34375 -7.625 C 1.34375 -9.195312 1.675781 -10.570312 2.34375 -11.75 C 3.007812 -12.9375 3.921875 -13.847656 5.078125 -14.484375 C 6.234375 -15.128906 7.523438 -15.453125 8.953125 -15.453125 C 10.390625 -15.453125 11.6875 -15.128906 12.84375 -14.484375 C 14.007812 -13.847656 14.921875 -12.9375 15.578125 -11.75 C 16.242188 -10.570312 16.578125 -9.195312 16.578125 -7.625 C 16.578125 -6.0625 16.238281 -4.679688 15.5625 -3.484375 C 14.894531 -2.296875 13.972656 -1.378906 12.796875 -0.734375 C 11.628906 -0.0976562 10.332031 0.21875 8.90625 0.21875 Z M 8.90625 -1.484375 C 9.90625 -1.484375 10.832031 -1.707031 11.6875 -2.15625 C 12.539062 -2.613281 13.234375 -3.300781 13.765625 -4.21875 C 14.296875 -5.144531 14.5625 -6.28125 14.5625 -7.625 C 14.5625 -8.957031 14.300781 -10.082031 13.78125 -11 C 13.257812 -11.925781 12.570312 -12.613281 11.71875 -13.0625 C 10.863281 -13.519531 9.9375 -13.75 8.9375 -13.75 C 7.925781 -13.75 6.992188 -13.519531 6.140625 -13.0625 C 5.285156 -12.613281 4.601562 -11.925781 4.09375 -11 C 3.582031 -10.082031 3.328125 -8.957031 3.328125 -7.625 C 3.328125 -6.28125 3.582031 -5.144531 4.09375 -4.21875 C 4.601562 -3.300781 5.28125 -2.613281 6.125 -2.15625 C 6.96875 -1.707031 7.894531 -1.484375 8.90625 -1.484375 Z M 8.90625 -1.484375 "/></g></g></g><g fill="#f9f6f9" fill-opacity="1"><g transform="translate(225.085787, 406.752982)"><g><path d="M 4.1875 -12.53125 C 4.613281 -13.476562 5.269531 -14.210938 6.15625 -14.734375 C 7.039062 -15.253906 8.125 -15.515625 9.40625 -15.515625 L 9.40625 -13.484375 L 8.875 -13.484375 C 7.457031 -13.484375 6.320312 -13.097656 5.46875 -12.328125 C 4.613281 -11.566406 4.1875 -10.296875 4.1875 -8.515625 L 4.1875 0 L 2.234375 0 L 2.234375 -15.234375 L 4.1875 -15.234375 Z M 4.1875 -12.53125 "/></g></g></g><g fill="#f9f6f9" fill-opacity="1"><g transform="translate(235.186422, 406.752982)"><g><path d="M 1.34375 -7.640625 C 1.34375 -9.203125 1.648438 -10.570312 2.265625 -11.75 C 2.890625 -12.9375 3.753906 -13.847656 4.859375 -14.484375 C 5.972656 -15.128906 7.226562 -15.453125 8.625 -15.453125 C 10.070312 -15.453125 11.320312 -15.117188 12.375 -14.453125 C 13.425781 -13.785156 14.1875 -12.929688 14.65625 -11.890625 L 14.65625 -15.234375 L 16.609375 -15.234375 L 16.609375 0 L 14.65625 0 L 14.65625 -3.375 C 14.164062 -2.332031 13.394531 -1.472656 12.34375 -0.796875 C 11.289062 -0.117188 10.039062 0.21875 8.59375 0.21875 C 7.21875 0.21875 5.972656 -0.101562 4.859375 -0.75 C 3.753906 -1.40625 2.890625 -2.328125 2.265625 -3.515625 C 1.648438 -4.703125 1.34375 -6.078125 1.34375 -7.640625 Z M 14.65625 -7.625 C 14.65625 -8.84375 14.398438 -9.914062 13.890625 -10.84375 C 13.390625 -11.78125 12.707031 -12.5 11.84375 -13 C 10.976562 -13.5 10.023438 -13.75 8.984375 -13.75 C 7.910156 -13.75 6.941406 -13.507812 6.078125 -13.03125 C 5.222656 -12.550781 4.550781 -11.847656 4.0625 -10.921875 C 3.570312 -10.003906 3.328125 -8.910156 3.328125 -7.640625 C 3.328125 -6.398438 3.570312 -5.304688 4.0625 -4.359375 C 4.550781 -3.421875 5.222656 -2.707031 6.078125 -2.21875 C 6.941406 -1.726562 7.910156 -1.484375 8.984375 -1.484375 C 10.023438 -1.484375 10.976562 -1.734375 11.84375 -2.234375 C 12.707031 -2.734375 13.390625 -3.445312 13.890625 -4.375 C 14.398438 -5.3125 14.65625 -6.394531 14.65625 -7.625 Z M 14.65625 -7.625 "/></g></g></g><g fill="#f9f6f9" fill-opacity="1"><g transform="translate(254.020479, 406.752982)"><g><path d="M 4.1875 -20.65625 L 4.1875 0 L 2.234375 0 L 2.234375 -20.65625 Z M 4.1875 -20.65625 "/></g></g></g><g fill="#f9f6f9" fill-opacity="1"><g transform="translate(154.05808, 445.752981)"><g><path d="M 8.015625 -19.5 C 10.171875 -19.5 12.019531 -19.109375 13.5625 -18.328125 C 15.101562 -17.546875 16.28125 -16.421875 17.09375 -14.953125 C 17.914062 -13.484375 18.328125 -11.738281 18.328125 -9.71875 C 18.328125 -7.707031 17.914062 -5.96875 17.09375 -4.5 C 16.28125 -3.039062 15.101562 -1.925781 13.5625 -1.15625 C 12.019531 -0.382812 10.171875 0 8.015625 0 L 2.234375 0 L 2.234375 -19.5 Z M 8.015625 -1.625 C 10.722656 -1.625 12.789062 -2.332031 14.21875 -3.75 C 15.644531 -5.175781 16.359375 -7.164062 16.359375 -9.71875 C 16.359375 -12.28125 15.644531 -14.28125 14.21875 -15.71875 C 12.789062 -17.164062 10.722656 -17.890625 8.015625 -17.890625 L 4.1875 -17.890625 L 4.1875 -1.625 Z M 8.015625 -1.625 "/></g></g></g><g fill="#f9f6f9" fill-opacity="1"><g transform="translate(173.757104, 445.752981)"><g><path d="M 1.34375 -7.640625 C 1.34375 -9.203125 1.648438 -10.570312 2.265625 -11.75 C 2.890625 -12.9375 3.753906 -13.847656 4.859375 -14.484375 C 5.972656 -15.128906 7.226562 -15.453125 8.625 -15.453125 C 10.070312 -15.453125 11.320312 -15.117188 12.375 -14.453125 C 13.425781 -13.785156 14.1875 -12.929688 14.65625 -11.890625 L 14.65625 -15.234375 L 16.609375 -15.234375 L 16.609375 0 L 14.65625 0 L 14.65625 -3.375 C 14.164062 -2.332031 13.394531 -1.472656 12.34375 -0.796875 C 11.289062 -0.117188 10.039062 0.21875 8.59375 0.21875 C 7.21875 0.21875 5.972656 -0.101562 4.859375 -0.75 C 3.753906 -1.40625 2.890625 -2.328125 2.265625 -3.515625 C 1.648438 -4.703125 1.34375 -6.078125 1.34375 -7.640625 Z M 14.65625 -7.625 C 14.65625 -8.84375 14.398438 -9.914062 13.890625 -10.84375 C 13.390625 -11.78125 12.707031 -12.5 11.84375 -13 C 10.976562 -13.5 10.023438 -13.75 8.984375 -13.75 C 7.910156 -13.75 6.941406 -13.507812 6.078125 -13.03125 C 5.222656 -12.550781 4.550781 -11.847656 4.0625 -10.921875 C 3.570312 -10.003906 3.328125 -8.910156 3.328125 -7.640625 C 3.328125 -6.398438 3.570312 -5.304688 4.0625 -4.359375 C 4.550781 -3.421875 5.222656 -2.707031 6.078125 -2.21875 C 6.941406 -1.726562 7.910156 -1.484375 8.984375 -1.484375 C 10.023438 -1.484375 10.976562 -1.734375 11.84375 -2.234375 C 12.707031 -2.734375 13.390625 -3.445312 13.890625 -4.375 C 14.398438 -5.3125 14.65625 -6.394531 14.65625 -7.625 Z M 14.65625 -7.625 "/></g></g></g><g fill="#f9f6f9" fill-opacity="1"><g transform="translate(192.59116, 445.752981)"><g><path d="M 4.765625 -13.59375 L 4.765625 -4.125 C 4.765625 -3.195312 4.941406 -2.554688 5.296875 -2.203125 C 5.648438 -1.847656 6.273438 -1.671875 7.171875 -1.671875 L 8.953125 -1.671875 L 8.953125 0 L 6.859375 0 C 5.484375 0 4.460938 -0.316406 3.796875 -0.953125 C 3.128906 -1.597656 2.796875 -2.65625 2.796875 -4.125 L 2.796875 -13.59375 L 0.671875 -13.59375 L 0.671875 -15.234375 L 2.796875 -15.234375 L 2.796875 -19.0625 L 4.765625 -19.0625 L 4.765625 -15.234375 L 8.953125 -15.234375 L 8.953125 -13.59375 Z M 4.765625 -13.59375 "/></g></g></g><g fill="#f9f6f9" fill-opacity="1"><g transform="translate(202.524379, 445.752981)"><g><path d="M 1.34375 -7.640625 C 1.34375 -9.203125 1.648438 -10.570312 2.265625 -11.75 C 2.890625 -12.9375 3.753906 -13.847656 4.859375 -14.484375 C 5.972656 -15.128906 7.226562 -15.453125 8.625 -15.453125 C 10.070312 -15.453125 11.320312 -15.117188 12.375 -14.453125 C 13.425781 -13.785156 14.1875 -12.929688 14.65625 -11.890625 L 14.65625 -15.234375 L 16.609375 -15.234375 L 16.609375 0 L 14.65625 0 L 14.65625 -3.375 C 14.164062 -2.332031 13.394531 -1.472656 12.34375 -0.796875 C 11.289062 -0.117188 10.039062 0.21875 8.59375 0.21875 C 7.21875 0.21875 5.972656 -0.101562 4.859375 -0.75 C 3.753906 -1.40625 2.890625 -2.328125 2.265625 -3.515625 C 1.648438 -4.703125 1.34375 -6.078125 1.34375 -7.640625 Z M 14.65625 -7.625 C 14.65625 -8.84375 14.398438 -9.914062 13.890625 -10.84375 C 13.390625 -11.78125 12.707031 -12.5 11.84375 -13 C 10.976562 -13.5 10.023438 -13.75 8.984375 -13.75 C 7.910156 -13.75 6.941406 -13.507812 6.078125 -13.03125 C 5.222656 -12.550781 4.550781 -11.847656 4.0625 -10.921875 C 3.570312 -10.003906 3.328125 -8.910156 3.328125 -7.640625 C 3.328125 -6.398438 3.570312 -5.304688 4.0625 -4.359375 C 4.550781 -3.421875 5.222656 -2.707031 6.078125 -2.21875 C 6.941406 -1.726562 7.910156 -1.484375 8.984375 -1.484375 C 10.023438 -1.484375 10.976562 -1.734375 11.84375 -2.234375 C 12.707031 -2.734375 13.390625 -3.445312 13.890625 -4.375 C 14.398438 -5.3125 14.65625 -6.394531 14.65625 -7.625 Z M 14.65625 -7.625 "/></g></g></g><g fill="#e67798" fill-opacity="1"><g transform="translate(316.229196, 294.754285)"><g><path d="M 14.734375 -12.8125 C 14.734375 -11.882812 14.515625 -11.007812 14.078125 -10.1875 C 13.640625 -9.363281 12.9375 -8.691406 11.96875 -8.171875 C 11.007812 -7.660156 9.78125 -7.40625 8.28125 -7.40625 L 4.96875 -7.40625 L 4.96875 0 L 1.96875 0 L 1.96875 -18.25 L 8.28125 -18.25 C 9.675781 -18.25 10.859375 -18.007812 11.828125 -17.53125 C 12.804688 -17.050781 13.535156 -16.398438 14.015625 -15.578125 C 14.492188 -14.753906 14.734375 -13.832031 14.734375 -12.8125 Z M 8.28125 -9.84375 C 9.414062 -9.84375 10.257812 -10.101562 10.8125 -10.625 C 11.375 -11.144531 11.65625 -11.875 11.65625 -12.8125 C 11.65625 -14.8125 10.53125 -15.8125 8.28125 -15.8125 L 4.96875 -15.8125 L 4.96875 -9.84375 Z M 8.28125 -9.84375 "/></g></g></g><g fill="#e67798" fill-opacity="1"><g transform="translate(331.854901, 294.754285)"><g><path d="M 11.453125 0 L 7.25 -7.296875 L 4.96875 -7.296875 L 4.96875 0 L 1.96875 0 L 1.96875 -18.25 L 8.28125 -18.25 C 9.675781 -18.25 10.859375 -18.003906 11.828125 -17.515625 C 12.804688 -17.023438 13.535156 -16.367188 14.015625 -15.546875 C 14.492188 -14.722656 14.734375 -13.804688 14.734375 -12.796875 C 14.734375 -11.597656 14.382812 -10.515625 13.6875 -9.546875 C 13 -8.578125 11.9375 -7.914062 10.5 -7.5625 L 15.03125 0 Z M 4.96875 -9.6875 L 8.28125 -9.6875 C 9.394531 -9.6875 10.234375 -9.96875 10.796875 -10.53125 C 11.367188 -11.09375 11.65625 -11.847656 11.65625 -12.796875 C 11.65625 -13.734375 11.375 -14.46875 10.8125 -15 C 10.257812 -15.539062 9.414062 -15.8125 8.28125 -15.8125 L 4.96875 -15.8125 Z M 4.96875 -9.6875 "/></g></g></g><g fill="#e67798" fill-opacity="1"><g transform="translate(348.452289, 294.754285)"><g><path d="M 4.96875 -15.84375 L 4.96875 -10.484375 L 11.265625 -10.484375 L 11.265625 -8.03125 L 4.96875 -8.03125 L 4.96875 -2.4375 L 12.0625 -2.4375 L 12.0625 0 L 1.96875 0 L 1.96875 -18.28125 L 12.0625 -18.28125 L 12.0625 -15.84375 Z M 4.96875 -15.84375 "/></g></g></g><g fill="#e67798" fill-opacity="1"><g transform="translate(362.213408, 294.754285)"><g><path d="M 0.96875 -9.171875 C 0.96875 -10.953125 1.382812 -12.550781 2.21875 -13.96875 C 3.050781 -15.382812 4.179688 -16.488281 5.609375 -17.28125 C 7.035156 -18.082031 8.597656 -18.484375 10.296875 -18.484375 C 12.242188 -18.484375 13.972656 -18.003906 15.484375 -17.046875 C 16.992188 -16.097656 18.09375 -14.75 18.78125 -13 L 15.1875 -13 C 14.707031 -13.96875 14.046875 -14.6875 13.203125 -15.15625 C 12.367188 -15.625 11.398438 -15.859375 10.296875 -15.859375 C 9.085938 -15.859375 8.007812 -15.585938 7.0625 -15.046875 C 6.113281 -14.503906 5.375 -13.722656 4.84375 -12.703125 C 4.3125 -11.691406 4.046875 -10.515625 4.046875 -9.171875 C 4.046875 -7.816406 4.3125 -6.628906 4.84375 -5.609375 C 5.375 -4.597656 6.113281 -3.816406 7.0625 -3.265625 C 8.007812 -2.710938 9.085938 -2.4375 10.296875 -2.4375 C 11.398438 -2.4375 12.367188 -2.671875 13.203125 -3.140625 C 14.046875 -3.617188 14.707031 -4.34375 15.1875 -5.3125 L 18.78125 -5.3125 C 18.09375 -3.550781 16.992188 -2.195312 15.484375 -1.25 C 13.972656 -0.3125 12.242188 0.15625 10.296875 0.15625 C 8.578125 0.15625 7.007812 -0.238281 5.59375 -1.03125 C 4.175781 -1.832031 3.050781 -2.941406 2.21875 -4.359375 C 1.382812 -5.773438 0.96875 -7.378906 0.96875 -9.171875 Z M 0.96875 -9.171875 "/></g></g></g><g fill="#e67798" fill-opacity="1"><g transform="translate(382.513693, 294.754285)"><g><path d="M 4.96875 -18.25 L 4.96875 0 L 1.96875 0 L 1.96875 -18.25 Z M 4.96875 -18.25 "/></g></g></g><g fill="#e67798" fill-opacity="1"><g transform="translate(389.446775, 294.754285)"><g><path d="M 7.984375 0.1875 C 6.753906 0.1875 5.648438 -0.0234375 4.671875 -0.453125 C 3.691406 -0.890625 2.921875 -1.5 2.359375 -2.28125 C 1.796875 -3.070312 1.515625 -3.992188 1.515625 -5.046875 L 4.734375 -5.046875 C 4.796875 -4.253906 5.101562 -3.601562 5.65625 -3.09375 C 6.207031 -2.59375 6.984375 -2.34375 7.984375 -2.34375 C 9.015625 -2.34375 9.816406 -2.585938 10.390625 -3.078125 C 10.972656 -3.578125 11.265625 -4.222656 11.265625 -5.015625 C 11.265625 -5.628906 11.082031 -6.128906 10.71875 -6.515625 C 10.363281 -6.898438 9.921875 -7.195312 9.390625 -7.40625 C 8.859375 -7.613281 8.117188 -7.84375 7.171875 -8.09375 C 5.984375 -8.40625 5.015625 -8.722656 4.265625 -9.046875 C 3.523438 -9.367188 2.890625 -9.867188 2.359375 -10.546875 C 1.835938 -11.234375 1.578125 -12.148438 1.578125 -13.296875 C 1.578125 -14.335938 1.835938 -15.253906 2.359375 -16.046875 C 2.890625 -16.835938 3.625 -17.441406 4.5625 -17.859375 C 5.507812 -18.273438 6.609375 -18.484375 7.859375 -18.484375 C 9.617188 -18.484375 11.0625 -18.039062 12.1875 -17.15625 C 13.320312 -16.28125 13.953125 -15.070312 14.078125 -13.53125 L 10.765625 -13.53125 C 10.710938 -14.195312 10.394531 -14.765625 9.8125 -15.234375 C 9.238281 -15.703125 8.476562 -15.9375 7.53125 -15.9375 C 6.675781 -15.9375 5.976562 -15.71875 5.4375 -15.28125 C 4.894531 -14.84375 4.625 -14.210938 4.625 -13.390625 C 4.625 -12.835938 4.789062 -12.378906 5.125 -12.015625 C 5.46875 -11.660156 5.898438 -11.375 6.421875 -11.15625 C 6.953125 -10.945312 7.675781 -10.722656 8.59375 -10.484375 C 9.800781 -10.148438 10.785156 -9.816406 11.546875 -9.484375 C 12.304688 -9.148438 12.953125 -8.632812 13.484375 -7.9375 C 14.015625 -7.25 14.28125 -6.328125 14.28125 -5.171875 C 14.28125 -4.242188 14.03125 -3.367188 13.53125 -2.546875 C 13.039062 -1.722656 12.316406 -1.0625 11.359375 -0.5625 C 10.398438 -0.0625 9.273438 0.1875 7.984375 0.1875 Z M 7.984375 0.1875 "/></g></g></g><g fill="#e67798" fill-opacity="1"><g transform="translate(405.308835, 294.754285)"><g><path d="M 4.96875 -18.25 L 4.96875 0 L 1.96875 0 L 1.96875 -18.25 Z M 4.96875 -18.25 "/></g></g></g><g fill="#e67798" fill-opacity="1"><g transform="translate(412.241917, 294.754285)"><g><path d="M 10.296875 0.1875 C 8.597656 0.1875 7.035156 -0.207031 5.609375 -1 C 4.179688 -1.800781 3.050781 -2.914062 2.21875 -4.34375 C 1.382812 -5.769531 0.96875 -7.378906 0.96875 -9.171875 C 0.96875 -10.953125 1.382812 -12.550781 2.21875 -13.96875 C 3.050781 -15.382812 4.179688 -16.488281 5.609375 -17.28125 C 7.035156 -18.082031 8.597656 -18.484375 10.296875 -18.484375 C 12.015625 -18.484375 13.585938 -18.082031 15.015625 -17.28125 C 16.441406 -16.488281 17.566406 -15.382812 18.390625 -13.96875 C 19.210938 -12.550781 19.625 -10.953125 19.625 -9.171875 C 19.625 -7.378906 19.210938 -5.769531 18.390625 -4.34375 C 17.566406 -2.914062 16.441406 -1.800781 15.015625 -1 C 13.585938 -0.207031 12.015625 0.1875 10.296875 0.1875 Z M 10.296875 -2.421875 C 11.503906 -2.421875 12.578125 -2.695312 13.515625 -3.25 C 14.460938 -3.800781 15.203125 -4.585938 15.734375 -5.609375 C 16.273438 -6.628906 16.546875 -7.816406 16.546875 -9.171875 C 16.546875 -10.515625 16.273438 -11.691406 15.734375 -12.703125 C 15.203125 -13.722656 14.460938 -14.503906 13.515625 -15.046875 C 12.578125 -15.585938 11.503906 -15.859375 10.296875 -15.859375 C 9.085938 -15.859375 8.007812 -15.585938 7.0625 -15.046875 C 6.113281 -14.503906 5.375 -13.722656 4.84375 -12.703125 C 4.3125 -11.691406 4.046875 -10.515625 4.046875 -9.171875 C 4.046875 -7.816406 4.3125 -6.628906 4.84375 -5.609375 C 5.375 -4.585938 6.113281 -3.800781 7.0625 -3.25 C 8.007812 -2.695312 9.085938 -2.421875 10.296875 -2.421875 Z M 10.296875 -2.421875 "/></g></g></g><g fill="#e67798" fill-opacity="1"><g transform="translate(432.831085, 294.754285)"><g><path d="M 16.96875 0 L 13.96875 0 L 4.96875 -13.625 L 4.96875 0 L 1.96875 0 L 1.96875 -18.28125 L 4.96875 -18.28125 L 13.96875 -4.671875 L 13.96875 -18.28125 L 16.96875 -18.28125 Z M 16.96875 0 "/></g></g></g><g fill="#e67798" fill-opacity="1"><g transform="translate(304.627634, 324.754283)"><g><path d="M 14.734375 -12.8125 C 14.734375 -11.882812 14.515625 -11.007812 14.078125 -10.1875 C 13.640625 -9.363281 12.9375 -8.691406 11.96875 -8.171875 C 11.007812 -7.660156 9.78125 -7.40625 8.28125 -7.40625 L 4.96875 -7.40625 L 4.96875 0 L 1.96875 0 L 1.96875 -18.25 L 8.28125 -18.25 C 9.675781 -18.25 10.859375 -18.007812 11.828125 -17.53125 C 12.804688 -17.050781 13.535156 -16.398438 14.015625 -15.578125 C 14.492188 -14.753906 14.734375 -13.832031 14.734375 -12.8125 Z M 8.28125 -9.84375 C 9.414062 -9.84375 10.257812 -10.101562 10.8125 -10.625 C 11.375 -11.144531 11.65625 -11.875 11.65625 -12.8125 C 11.65625 -14.8125 10.53125 -15.8125 8.28125 -15.8125 L 4.96875 -15.8125 L 4.96875 -9.84375 Z M 8.28125 -9.84375 "/></g></g></g><g fill="#e67798" fill-opacity="1"><g transform="translate(320.253339, 324.754283)"><g><path d="M 7.984375 0.1875 C 6.753906 0.1875 5.648438 -0.0234375 4.671875 -0.453125 C 3.691406 -0.890625 2.921875 -1.5 2.359375 -2.28125 C 1.796875 -3.070312 1.515625 -3.992188 1.515625 -5.046875 L 4.734375 -5.046875 C 4.796875 -4.253906 5.101562 -3.601562 5.65625 -3.09375 C 6.207031 -2.59375 6.984375 -2.34375 7.984375 -2.34375 C 9.015625 -2.34375 9.816406 -2.585938 10.390625 -3.078125 C 10.972656 -3.578125 11.265625 -4.222656 11.265625 -5.015625 C 11.265625 -5.628906 11.082031 -6.128906 10.71875 -6.515625 C 10.363281 -6.898438 9.921875 -7.195312 9.390625 -7.40625 C 8.859375 -7.613281 8.117188 -7.84375 7.171875 -8.09375 C 5.984375 -8.40625 5.015625 -8.722656 4.265625 -9.046875 C 3.523438 -9.367188 2.890625 -9.867188 2.359375 -10.546875 C 1.835938 -11.234375 1.578125 -12.148438 1.578125 -13.296875 C 1.578125 -14.335938 1.835938 -15.253906 2.359375 -16.046875 C 2.890625 -16.835938 3.625 -17.441406 4.5625 -17.859375 C 5.507812 -18.273438 6.609375 -18.484375 7.859375 -18.484375 C 9.617188 -18.484375 11.0625 -18.039062 12.1875 -17.15625 C 13.320312 -16.28125 13.953125 -15.070312 14.078125 -13.53125 L 10.765625 -13.53125 C 10.710938 -14.195312 10.394531 -14.765625 9.8125 -15.234375 C 9.238281 -15.703125 8.476562 -15.9375 7.53125 -15.9375 C 6.675781 -15.9375 5.976562 -15.71875 5.4375 -15.28125 C 4.894531 -14.84375 4.625 -14.210938 4.625 -13.390625 C 4.625 -12.835938 4.789062 -12.378906 5.125 -12.015625 C 5.46875 -11.660156 5.898438 -11.375 6.421875 -11.15625 C 6.953125 -10.945312 7.675781 -10.722656 8.59375 -10.484375 C 9.800781 -10.148438 10.785156 -9.816406 11.546875 -9.484375 C 12.304688 -9.148438 12.953125 -8.632812 13.484375 -7.9375 C 14.015625 -7.25 14.28125 -6.328125 14.28125 -5.171875 C 14.28125 -4.242188 14.03125 -3.367188 13.53125 -2.546875 C 13.039062 -1.722656 12.316406 -1.0625 11.359375 -0.5625 C 10.398438 -0.0625 9.273438 0.1875 7.984375 0.1875 Z M 7.984375 0.1875 "/></g></g></g><g fill="#e67798" fill-opacity="1"><g transform="translate(336.115398, 324.754283)"><g><path d="M 15.5 -18.25 L 9.453125 -6.625 L 9.453125 0 L 6.46875 0 L 6.46875 -6.625 L 0.390625 -18.25 L 3.734375 -18.25 L 7.953125 -9.296875 L 12.1875 -18.25 Z M 15.5 -18.25 "/></g></g></g><g fill="#e67798" fill-opacity="1"><g transform="translate(352.003722, 324.754283)"><g><path d="M 0.96875 -9.171875 C 0.96875 -10.953125 1.382812 -12.550781 2.21875 -13.96875 C 3.050781 -15.382812 4.179688 -16.488281 5.609375 -17.28125 C 7.035156 -18.082031 8.597656 -18.484375 10.296875 -18.484375 C 12.242188 -18.484375 13.972656 -18.003906 15.484375 -17.046875 C 16.992188 -16.097656 18.09375 -14.75 18.78125 -13 L 15.1875 -13 C 14.707031 -13.96875 14.046875 -14.6875 13.203125 -15.15625 C 12.367188 -15.625 11.398438 -15.859375 10.296875 -15.859375 C 9.085938 -15.859375 8.007812 -15.585938 7.0625 -15.046875 C 6.113281 -14.503906 5.375 -13.722656 4.84375 -12.703125 C 4.3125 -11.691406 4.046875 -10.515625 4.046875 -9.171875 C 4.046875 -7.816406 4.3125 -6.628906 4.84375 -5.609375 C 5.375 -4.597656 6.113281 -3.816406 7.0625 -3.265625 C 8.007812 -2.710938 9.085938 -2.4375 10.296875 -2.4375 C 11.398438 -2.4375 12.367188 -2.671875 13.203125 -3.140625 C 14.046875 -3.617188 14.707031 -4.34375 15.1875 -5.3125 L 18.78125 -5.3125 C 18.09375 -3.550781 16.992188 -2.195312 15.484375 -1.25 C 13.972656 -0.3125 12.242188 0.15625 10.296875 0.15625 C 8.578125 0.15625 7.007812 -0.238281 5.59375 -1.03125 C 4.175781 -1.832031 3.050781 -2.941406 2.21875 -4.359375 C 1.382812 -5.773438 0.96875 -7.378906 0.96875 -9.171875 Z M 0.96875 -9.171875 "/></g></g></g><g fill="#e67798" fill-opacity="1"><g transform="translate(372.304007, 324.754283)"><g><path d="M 16.546875 -18.25 L 16.546875 0 L 13.546875 0 L 13.546875 -7.984375 L 4.96875 -7.984375 L 4.96875 0 L 1.96875 0 L 1.96875 -18.25 L 4.96875 -18.25 L 4.96875 -10.421875 L 13.546875 -10.421875 L 13.546875 -18.25 Z M 16.546875 -18.25 "/></g></g></g><g fill="#e67798" fill-opacity="1"><g transform="translate(390.818498, 324.754283)"><g><path d="M 4.96875 -18.25 L 4.96875 0 L 1.96875 0 L 1.96875 -18.25 Z M 4.96875 -18.25 "/></g></g></g><g fill="#e67798" fill-opacity="1"><g transform="translate(397.75158, 324.754283)"><g><path d="M 12.96875 -3.734375 L 5.328125 -3.734375 L 4.015625 0 L 0.890625 0 L 7.4375 -18.28125 L 10.90625 -18.28125 L 17.4375 0 L 14.28125 0 Z M 12.140625 -6.171875 L 9.171875 -14.65625 L 6.171875 -6.171875 Z M 12.140625 -6.171875 "/></g></g></g><g fill="#e67798" fill-opacity="1"><g transform="translate(416.055981, 324.754283)"><g><path d="M 13.765625 -18.25 L 13.765625 -15.8125 L 8.90625 -15.8125 L 8.90625 0 L 5.90625 0 L 5.90625 -15.8125 L 1.03125 -15.8125 L 1.03125 -18.25 Z M 13.765625 -18.25 "/></g></g></g><g fill="#e67798" fill-opacity="1"><g transform="translate(430.867577, 324.754283)"><g><path d="M 11.453125 0 L 7.25 -7.296875 L 4.96875 -7.296875 L 4.96875 0 L 1.96875 0 L 1.96875 -18.25 L 8.28125 -18.25 C 9.675781 -18.25 10.859375 -18.003906 11.828125 -17.515625 C 12.804688 -17.023438 13.535156 -16.367188 14.015625 -15.546875 C 14.492188 -14.722656 14.734375 -13.804688 14.734375 -12.796875 C 14.734375 -11.597656 14.382812 -10.515625 13.6875 -9.546875 C 13 -8.578125 11.9375 -7.914062 10.5 -7.5625 L 15.03125 0 Z M 4.96875 -9.6875 L 8.28125 -9.6875 C 9.394531 -9.6875 10.234375 -9.96875 10.796875 -10.53125 C 11.367188 -11.09375 11.65625 -11.847656 11.65625 -12.796875 C 11.65625 -13.734375 11.375 -14.46875 10.8125 -15 C 10.257812 -15.539062 9.414062 -15.8125 8.28125 -15.8125 L 4.96875 -15.8125 Z M 4.96875 -9.6875 "/></g></g></g><g fill="#e67798" fill-opacity="1"><g transform="translate(447.464965, 324.754283)"><g><path d="M 15.5 -18.25 L 9.453125 -6.625 L 9.453125 0 L 6.46875 0 L 6.46875 -6.625 L 0.390625 -18.25 L 3.734375 -18.25 L 7.953125 -9.296875 L 12.1875 -18.25 Z M 15.5 -18.25 "/></g></g></g><g fill="#e67798" fill-opacity="1"><g transform="translate(332.166695, 354.754282)"><g><path d="M 21.203125 -18.25 L 21.203125 0 L 18.203125 0 L 18.203125 -12.5 L 12.640625 0 L 10.5625 0 L 4.96875 -12.5 L 4.96875 0 L 1.96875 0 L 1.96875 -18.25 L 5.203125 -18.25 L 11.609375 -3.9375 L 17.984375 -18.25 Z M 21.203125 -18.25 "/></g></g></g><g fill="#e67798" fill-opacity="1"><g transform="translate(355.329501, 354.754282)"><g><path d="M 10.296875 0.1875 C 8.597656 0.1875 7.035156 -0.207031 5.609375 -1 C 4.179688 -1.800781 3.050781 -2.914062 2.21875 -4.34375 C 1.382812 -5.769531 0.96875 -7.378906 0.96875 -9.171875 C 0.96875 -10.953125 1.382812 -12.550781 2.21875 -13.96875 C 3.050781 -15.382812 4.179688 -16.488281 5.609375 -17.28125 C 7.035156 -18.082031 8.597656 -18.484375 10.296875 -18.484375 C 12.015625 -18.484375 13.585938 -18.082031 15.015625 -17.28125 C 16.441406 -16.488281 17.566406 -15.382812 18.390625 -13.96875 C 19.210938 -12.550781 19.625 -10.953125 19.625 -9.171875 C 19.625 -7.378906 19.210938 -5.769531 18.390625 -4.34375 C 17.566406 -2.914062 16.441406 -1.800781 15.015625 -1 C 13.585938 -0.207031 12.015625 0.1875 10.296875 0.1875 Z M 10.296875 -2.421875 C 11.503906 -2.421875 12.578125 -2.695312 13.515625 -3.25 C 14.460938 -3.800781 15.203125 -4.585938 15.734375 -5.609375 C 16.273438 -6.628906 16.546875 -7.816406 16.546875 -9.171875 C 16.546875 -10.515625 16.273438 -11.691406 15.734375 -12.703125 C 15.203125 -13.722656 14.460938 -14.503906 13.515625 -15.046875 C 12.578125 -15.585938 11.503906 -15.859375 10.296875 -15.859375 C 9.085938 -15.859375 8.007812 -15.585938 7.0625 -15.046875 C 6.113281 -14.503906 5.375 -13.722656 4.84375 -12.703125 C 4.3125 -11.691406 4.046875 -10.515625 4.046875 -9.171875 C 4.046875 -7.816406 4.3125 -6.628906 4.84375 -5.609375 C 5.375 -4.585938 6.113281 -3.800781 7.0625 -3.25 C 8.007812 -2.695312 9.085938 -2.421875 10.296875 -2.421875 Z M 10.296875 -2.421875 "/></g></g></g><g fill="#e67798" fill-opacity="1"><g transform="translate(375.918669, 354.754282)"><g><path d="M 7.9375 -18.25 C 9.875 -18.25 11.570312 -17.875 13.03125 -17.125 C 14.5 -16.382812 15.628906 -15.316406 16.421875 -13.921875 C 17.222656 -12.535156 17.625 -10.914062 17.625 -9.0625 C 17.625 -7.207031 17.222656 -5.597656 16.421875 -4.234375 C 15.628906 -2.867188 14.5 -1.820312 13.03125 -1.09375 C 11.570312 -0.363281 9.875 0 7.9375 0 L 1.96875 0 L 1.96875 -18.25 Z M 7.9375 -2.4375 C 10.070312 -2.4375 11.707031 -3.015625 12.84375 -4.171875 C 13.976562 -5.328125 14.546875 -6.957031 14.546875 -9.0625 C 14.546875 -11.175781 13.976562 -12.828125 12.84375 -14.015625 C 11.707031 -15.210938 10.070312 -15.8125 7.9375 -15.8125 L 4.96875 -15.8125 L 4.96875 -2.4375 Z M 7.9375 -2.4375 "/></g></g></g><g fill="#e67798" fill-opacity="1"><g transform="translate(394.538206, 354.754282)"><g><path d="M 4.96875 -15.84375 L 4.96875 -10.484375 L 11.265625 -10.484375 L 11.265625 -8.03125 L 4.96875 -8.03125 L 4.96875 -2.4375 L 12.0625 -2.4375 L 12.0625 0 L 1.96875 0 L 1.96875 -18.28125 L 12.0625 -18.28125 L 12.0625 -15.84375 Z M 4.96875 -15.84375 "/></g></g></g><g fill="#e67798" fill-opacity="1"><g transform="translate(408.299325, 354.754282)"><g><path d="M 4.96875 -2.421875 L 11.140625 -2.421875 L 11.140625 0 L 1.96875 0 L 1.96875 -18.25 L 4.96875 -18.25 Z M 4.96875 -2.421875 "/></g></g></g><g fill="#e67798" fill-opacity="1"><g transform="translate(419.959516, 354.754282)"><g><path d="M 7.984375 0.1875 C 6.753906 0.1875 5.648438 -0.0234375 4.671875 -0.453125 C 3.691406 -0.890625 2.921875 -1.5 2.359375 -2.28125 C 1.796875 -3.070312 1.515625 -3.992188 1.515625 -5.046875 L 4.734375 -5.046875 C 4.796875 -4.253906 5.101562 -3.601562 5.65625 -3.09375 C 6.207031 -2.59375 6.984375 -2.34375 7.984375 -2.34375 C 9.015625 -2.34375 9.816406 -2.585938 10.390625 -3.078125 C 10.972656 -3.578125 11.265625 -4.222656 11.265625 -5.015625 C 11.265625 -5.628906 11.082031 -6.128906 10.71875 -6.515625 C 10.363281 -6.898438 9.921875 -7.195312 9.390625 -7.40625 C 8.859375 -7.613281 8.117188 -7.84375 7.171875 -8.09375 C 5.984375 -8.40625 5.015625 -8.722656 4.265625 -9.046875 C 3.523438 -9.367188 2.890625 -9.867188 2.359375 -10.546875 C 1.835938 -11.234375 1.578125 -12.148438 1.578125 -13.296875 C 1.578125 -14.335938 1.835938 -15.253906 2.359375 -16.046875 C 2.890625 -16.835938 3.625 -17.441406 4.5625 -17.859375 C 5.507812 -18.273438 6.609375 -18.484375 7.859375 -18.484375 C 9.617188 -18.484375 11.0625 -18.039062 12.1875 -17.15625 C 13.320312 -16.28125 13.953125 -15.070312 14.078125 -13.53125 L 10.765625 -13.53125 C 10.710938 -14.195312 10.394531 -14.765625 9.8125 -15.234375 C 9.238281 -15.703125 8.476562 -15.9375 7.53125 -15.9375 C 6.675781 -15.9375 5.976562 -15.71875 5.4375 -15.28125 C 4.894531 -14.84375 4.625 -14.210938 4.625 -13.390625 C 4.625 -12.835938 4.789062 -12.378906 5.125 -12.015625 C 5.46875 -11.660156 5.898438 -11.375 6.421875 -11.15625 C 6.953125 -10.945312 7.675781 -10.722656 8.59375 -10.484375 C 9.800781 -10.148438 10.785156 -9.816406 11.546875 -9.484375 C 12.304688 -9.148438 12.953125 -8.632812 13.484375 -7.9375 C 14.015625 -7.25 14.28125 -6.328125 14.28125 -5.171875 C 14.28125 -4.242188 14.03125 -3.367188 13.53125 -2.546875 C 13.039062 -1.722656 12.316406 -1.0625 11.359375 -0.5625 C 10.398438 -0.0625 9.273438 0.1875 7.984375 0.1875 Z M 7.984375 0.1875 "/></g></g></g></svg>