<svg xmlns="http://www.w3.org/2000/svg" xmlns:xlink="http://www.w3.org/1999/xlink" width="500" zoomAndPan="magnify" viewBox="0 0 375 374.999991" height="500" preserveAspectRatio="xMidYMid meet" version="1.0"><defs><clipPath id="95f95b667d"><path d="M 187.5 0 C 83.945312 0 0 83.945312 0 187.5 C 0 291.054688 83.945312 375 187.5 375 C 291.054688 375 375 291.054688 375 187.5 C 375 83.945312 291.054688 0 187.5 0 Z M 187.5 0 " clip-rule="nonzero"/></clipPath><clipPath id="57a23e7a54"><path d="M 62 39 L 315 39 L 315 337.5 L 62 337.5 Z M 62 39 " clip-rule="nonzero"/></clipPath></defs><g clip-path="url(#95f95b667d)"><rect x="-37.5" width="450" fill="#e8acbc" y="-37.499999" height="449.999989" fill-opacity="1"/></g><g clip-path="url(#57a23e7a54)"><path fill="#986373" d="M 197.863281 337.492188 C 197.863281 337.492188 149.320312 277.941406 194.359375 222.898438 C 227.992188 181.792969 251.269531 137.347656 246.351562 95.378906 C 236.507812 11.40625 -11.632812 55.929688 108.792969 234.660156 C 145.550781 289.21875 113.652344 316.277344 113.652344 316.277344 C 122.992188 281.539062 112.15625 270.332031 90.117188 231.855469 C 1.570312 77.273438 146.9375 7.632812 230.890625 53.757812 C 230.890625 53.757812 272.675781 70.019531 278.433594 118.058594 C 284.1875 166.09375 289.945312 169.601562 300.449219 179.855469 C 310.960938 190.113281 317.714844 192.996094 313.210938 200.125 C 308.710938 207.257812 291.695312 212.261719 296.949219 218.390625 C 302.199219 224.515625 304.703125 224.890625 300.199219 230.027344 C 295.699219 235.152344 293.320312 236.777344 293.320312 236.777344 C 293.320312 236.777344 303.457031 239.222656 300.582031 246.164062 C 297.703125 253.109375 292.078125 254.292969 292.328125 267.933594 C 292.578125 281.570312 289.574219 297.210938 266.425781 291.824219 C 202.25 276.914062 184.640625 277.425781 197.863281 337.492188 " fill-opacity="1" fill-rule="evenodd"/></g><path fill="#986373" d="M 149.4375 300.328125 C 149.496094 300.242188 166.246094 276.246094 154.90625 228.035156 L 154.886719 228.035156 L 154.835938 227.738281 C 154.148438 224.851562 153.363281 221.878906 152.46875 218.816406 C 150.222656 214.011719 145.890625 210.921875 134.324219 202.691406 C 131.132812 200.414062 127.375 197.746094 121.359375 193.359375 C 109.3125 184.574219 93.25 159.828125 103.378906 129.347656 C 103.367188 129.445312 99.132812 163.269531 127.96875 184.292969 C 132.03125 187.253906 136.808594 190.65625 140.851562 193.535156 C 142.066406 194.402344 143.203125 195.214844 144.28125 195.992188 C 143.257812 193.566406 142.179688 191.105469 141.023438 188.601562 C 136.53125 178.84375 133.234375 169.710938 130.945312 161.179688 C 116.546875 144 110.027344 111.375 128.039062 90.742188 C 128.003906 90.835938 118.117188 116.230469 127.226562 140.046875 C 125.921875 111.976562 145.011719 70.832031 177.042969 76.097656 C 174.242188 76.433594 171.050781 77.363281 167.714844 78.902344 C 159.902344 82.496094 151.605469 89.304688 145.789062 99.621094 C 140.46875 109.042969 137.210938 121.417969 138.195312 137.019531 C 155.519531 125.800781 165.15625 102.121094 165.183594 102.042969 C 164.886719 120.875 149.058594 138.539062 139.09375 145.398438 C 140.421875 154.207031 143.03125 163.910156 147.242188 174.546875 C 154.40625 141.492188 184.496094 106.535156 218.355469 102.992188 C 218.21875 103.050781 186.140625 116.710938 168.246094 146.113281 C 188.832031 145.273438 213.339844 156.976562 215.089844 171.699219 C 215.03125 171.621094 195.898438 146.496094 163.777344 154.464844 C 158.117188 166.671875 155.078125 181.15625 157.167969 198.046875 C 169.816406 231.324219 178.53125 278.019531 149.4375 300.328125 " fill-opacity="1" fill-rule="nonzero"/><path fill="#f1e0e8" d="M 170.347656 230.453125 C 170.394531 225.660156 170.480469 221.949219 169.980469 213.441406 C 169.476562 204.929688 183.40625 199.796875 186.300781 194.949219 C 189.195312 190.101562 189.691406 189.125 189.691406 189.125 C 189.691406 189.125 191.65625 189.773438 193.789062 207.289062 C 195.824219 223.976562 184.96875 224.226562 172.171875 235.4375 C 172.171875 235.4375 182.835938 222.71875 183.765625 212.785156 C 183.765625 212.785156 177.90625 225.492188 170.347656 230.453125 " fill-opacity="1" fill-rule="evenodd"/><path fill="#e35e85" d="M 161.933594 198.890625 C 161.972656 194.746094 162.046875 191.542969 161.609375 184.1875 C 161.183594 176.832031 173.210938 172.394531 175.71875 168.203125 C 178.226562 164.011719 178.648438 163.171875 178.648438 163.171875 C 178.648438 163.171875 180.347656 163.730469 182.191406 178.867188 C 183.957031 193.292969 174.578125 193.507812 163.511719 203.195312 C 163.511719 203.195312 172.730469 192.203125 173.535156 183.613281 C 173.527344 183.621094 168.464844 194.601562 161.933594 198.890625 " fill-opacity="1" fill-rule="evenodd"/><path fill="#e67798" d="M 186.328125 156.886719 C 188.679688 157.828125 190.488281 158.585938 194.769531 159.972656 C 199.058594 161.359375 198.910156 169.203125 200.746094 171.5625 C 202.574219 173.917969 202.960938 174.347656 202.960938 174.347656 C 202.960938 174.347656 202.261719 175.1875 193.230469 172.882812 C 184.617188 170.679688 186.582031 165.289062 183.519531 156.832031 C 183.519531 156.832031 187.738281 164.527344 192.449219 166.890625 C 192.449219 166.890625 187.316406 161.5625 186.328125 156.886719 " fill-opacity="1" fill-rule="evenodd"/><path fill="#f1e0e8" d="M 182.90625 143.277344 C 186.046875 143.058594 188.46875 142.863281 194.0625 142.855469 C 199.65625 142.851562 202.472656 133.53125 205.53125 131.441406 C 208.59375 129.347656 209.214844 128.992188 209.214844 128.992188 C 209.214844 128.992188 208.710938 127.730469 197.160156 127.019531 C 186.152344 126.34375 186.414062 133.457031 179.574219 142.277344 C 179.574219 142.277344 187.488281 134.796875 193.949219 133.796875 C 193.949219 133.804688 185.855469 138.140625 182.90625 143.277344 " fill-opacity="1" fill-rule="evenodd"/><path fill="#e35e85" d="M 200.839844 150.324219 C 203.011719 150.59375 204.699219 150.777344 208.523438 151.507812 C 212.34375 152.246094 215.507812 146.246094 217.878906 145.21875 C 220.25 144.195312 220.71875 144.035156 220.71875 144.035156 C 220.71875 144.035156 220.539062 143.105469 212.738281 141.085938 C 205.300781 139.164062 204.539062 144.066406 198.691406 149.191406 C 198.691406 149.191406 205.09375 145.125 209.648438 145.296875 C 209.648438 145.304688 203.542969 147.199219 200.839844 150.324219 " fill-opacity="1" fill-rule="evenodd"/><path fill="#e67798" d="M 212.070312 157.398438 C 214.085938 158.269531 215.652344 158.917969 219.109375 160.703125 C 222.570312 162.492188 227.300781 157.625 229.859375 157.308594 C 232.421875 156.996094 232.921875 156.96875 232.921875 156.96875 C 232.921875 156.96875 233.011719 156.03125 226.097656 151.890625 C 219.503906 147.949219 217.390625 152.4375 210.332031 155.703125 C 210.332031 155.703125 217.621094 153.605469 221.945312 155.058594 C 221.941406 155.066406 215.542969 155.160156 212.070312 157.398438 " fill-opacity="1" fill-rule="evenodd"/><path fill="#e35e85" d="M 204.3125 169.941406 C 204.609375 172.109375 204.867188 173.789062 205.132812 177.671875 C 205.402344 181.5625 212.011719 183.074219 213.609375 185.105469 C 215.203125 187.136719 215.484375 187.546875 215.484375 187.546875 C 215.484375 187.546875 216.335938 187.136719 216.289062 179.078125 C 216.242188 171.394531 211.304688 171.914062 204.855469 167.578125 C 204.855469 167.578125 210.429688 172.722656 211.429688 177.171875 C 211.421875 177.171875 208.027344 171.753906 204.3125 169.941406 " fill-opacity="1" fill-rule="evenodd"/><path fill="#e67798" d="M 200.804688 121.96875 C 203.25 122.882812 205.15625 123.5625 209.386719 125.472656 C 213.621094 127.382812 218.945312 121.296875 221.96875 120.769531 C 225 120.238281 225.589844 120.179688 225.589844 120.179688 C 225.589844 120.179688 225.644531 119.050781 217.144531 114.554688 C 209.050781 110.269531 206.8125 115.746094 198.613281 120.078125 C 198.613281 120.078125 207.160156 117.128906 212.394531 118.589844 C 212.410156 118.582031 204.800781 119.089844 200.804688 121.96875 " fill-opacity="1" fill-rule="evenodd"/><path fill="#e35e85" d="M 217.539062 109.632812 C 219.636719 110.410156 221.261719 110.988281 224.882812 112.625 C 228.503906 114.257812 233.058594 109.054688 235.648438 108.601562 C 238.238281 108.148438 238.746094 108.09375 238.746094 108.09375 C 238.746094 108.09375 238.789062 107.128906 231.523438 103.28125 C 224.597656 99.613281 222.679688 104.300781 215.667969 108.003906 C 215.667969 108.003906 222.980469 105.480469 227.460938 106.730469 C 227.460938 106.738281 220.957031 107.164062 217.539062 109.632812 " fill-opacity="1" fill-rule="evenodd"/><path fill="#e67798" d="M 148.445312 157.613281 C 149.9375 155.953125 151.082031 154.652344 153.933594 151.890625 C 156.789062 149.128906 153.632812 142.976562 154.167969 140.398438 C 154.703125 137.816406 154.839844 137.328125 154.839844 137.328125 C 154.839844 137.328125 153.957031 136.9375 147.707031 142.265625 C 141.742188 147.351562 145.390625 150.859375 146.246094 158.746094 C 146.246094 158.746094 146.597656 151.015625 149.414062 147.316406 C 149.410156 147.316406 147.414062 153.527344 148.445312 157.613281 " fill-opacity="1" fill-rule="evenodd"/><path fill="#e67798" d="M 159.78125 138.265625 C 161.070312 136.839844 162.046875 135.726562 164.492188 133.355469 C 166.941406 130.988281 164.230469 125.710938 164.691406 123.496094 C 165.148438 121.285156 165.269531 120.863281 165.269531 120.863281 C 165.269531 120.863281 164.511719 120.523438 159.144531 125.097656 C 154.03125 129.457031 157.15625 132.46875 157.894531 139.234375 C 157.894531 139.234375 158.199219 132.605469 160.609375 129.425781 C 160.609375 129.433594 158.894531 134.757812 159.78125 138.265625 " fill-opacity="1" fill-rule="evenodd"/><path fill="#f1e0e8" d="M 173.648438 123.792969 C 175.386719 121.863281 176.707031 120.355469 180.027344 117.152344 C 183.335938 113.941406 179.675781 106.800781 180.292969 103.804688 C 180.914062 100.816406 181.074219 100.246094 181.074219 100.246094 C 181.074219 100.246094 180.054688 99.785156 172.789062 105.980469 C 165.871094 111.882812 170.105469 115.957031 171.097656 125.109375 C 171.097656 125.109375 171.507812 116.140625 174.773438 111.839844 C 174.773438 111.839844 172.449219 119.046875 173.648438 123.792969 " fill-opacity="1" fill-rule="evenodd"/><path fill="#e35e85" d="M 190.019531 110.34375 C 191.574219 108.617188 192.757812 107.273438 195.722656 104.402344 C 198.691406 101.53125 195.410156 95.136719 195.960938 92.460938 C 196.515625 89.78125 196.660156 89.273438 196.660156 89.273438 C 196.660156 89.273438 195.746094 88.863281 189.246094 94.410156 C 183.050781 99.691406 186.839844 103.335938 187.726562 111.53125 C 187.726562 111.53125 188.09375 103.503906 191.019531 99.65625 C 191.023438 99.648438 188.945312 106.097656 190.019531 110.34375 " fill-opacity="1" fill-rule="evenodd"/><path fill="#f1e0e8" d="M 205.855469 104.515625 C 207.847656 103.269531 209.375 102.28125 213.058594 100.3125 C 216.742188 98.339844 215.324219 91.203125 216.609375 88.75 C 217.890625 86.296875 218.175781 85.84375 218.175781 85.84375 C 218.175781 85.84375 217.402344 85.191406 209.535156 88.78125 C 202.035156 92.207031 204.714844 96.804688 203.304688 105.019531 C 203.304688 105.019531 205.890625 97.308594 209.800781 94.378906 C 209.800781 94.386719 205.992188 100.089844 205.855469 104.515625 " fill-opacity="1" fill-rule="evenodd"/><path fill="#f1e0e8" d="M 146.460938 125.289062 C 147.949219 123.632812 149.085938 122.339844 151.929688 119.589844 C 154.769531 116.835938 151.625 110.707031 152.152344 108.140625 C 152.691406 105.574219 152.828125 105.085938 152.828125 105.085938 C 152.828125 105.085938 151.953125 104.695312 145.722656 110.007812 C 139.785156 115.066406 143.417969 118.5625 144.269531 126.417969 C 144.269531 126.417969 144.621094 118.726562 147.425781 115.03125 C 147.417969 115.03125 145.429688 121.214844 146.460938 125.289062 " fill-opacity="1" fill-rule="evenodd"/><path fill="#e35e85" d="M 159.882812 109.394531 C 160.648438 107.691406 161.21875 106.363281 162.773438 103.429688 C 164.328125 100.5 160.230469 96.429688 159.992188 94.242188 C 159.753906 92.054688 159.734375 91.632812 159.734375 91.632812 C 159.734375 91.632812 158.9375 91.542969 155.339844 97.390625 C 151.914062 102.96875 155.714844 104.8125 158.429688 110.859375 C 158.429688 110.859375 156.722656 104.628906 157.996094 100.964844 C 157.996094 100.964844 158.015625 106.410156 159.882812 109.394531 " fill-opacity="1" fill-rule="evenodd"/><path fill="#e67798" d="M 167.65625 99.179688 C 168.78125 98.261719 169.644531 97.535156 171.753906 96.039062 C 173.863281 94.546875 172.4375 90.277344 173.039062 88.671875 C 173.640625 87.066406 173.777344 86.769531 173.777344 86.769531 C 173.777344 86.769531 173.253906 86.429688 168.703125 89.238281 C 164.367188 91.917969 166.363281 94.535156 166.132812 99.691406 C 166.132812 99.691406 167.125 94.753906 169.300781 92.652344 C 169.300781 92.652344 167.398438 96.453125 167.65625 99.179688 " fill-opacity="1" fill-rule="evenodd"/><path fill="#e67798" d="M 134.203125 101.835938 C 135.015625 100.15625 135.621094 98.84375 137.265625 95.964844 C 138.902344 93.082031 134.929688 88.886719 134.753906 86.695312 C 134.578125 84.503906 134.574219 84.082031 134.574219 84.082031 C 134.574219 84.082031 133.777344 83.96875 130.019531 89.714844 C 126.433594 95.1875 130.179688 97.140625 132.714844 103.265625 C 132.714844 103.265625 131.183594 96.988281 132.574219 93.359375 C 132.566406 93.359375 132.421875 98.804688 134.203125 101.835938 " fill-opacity="1" fill-rule="evenodd"/><path fill="#f1e0e8" d="M 142.660156 89.023438 C 143.394531 87.507812 143.941406 86.328125 145.425781 83.71875 C 146.90625 81.117188 143.316406 77.328125 143.15625 75.351562 C 142.996094 73.375 142.996094 72.992188 142.996094 72.992188 C 142.996094 72.992188 142.273438 72.890625 138.878906 78.078125 C 135.644531 83.023438 139.023438 84.785156 141.316406 90.3125 C 141.316406 90.3125 139.933594 84.640625 141.183594 81.371094 C 141.179688 81.367188 141.046875 86.285156 142.660156 89.023438 " fill-opacity="1" fill-rule="evenodd"/><path fill="#e67798" d="M 150.726562 80.742188 C 151.777344 79.425781 152.582031 78.402344 154.609375 76.195312 C 156.636719 73.992188 153.996094 69.496094 154.28125 67.53125 C 154.570312 65.566406 154.65625 65.191406 154.65625 65.191406 C 154.65625 65.191406 153.976562 64.929688 149.496094 69.21875 C 145.226562 73.304688 148.128906 75.785156 149.117188 81.683594 C 149.117188 81.683594 149.046875 75.851562 151.003906 72.941406 C 151.003906 72.953125 149.773438 77.710938 150.726562 80.742188 " fill-opacity="1" fill-rule="evenodd"/><path fill="#e35e85" d="M 159.847656 74.792969 C 161.234375 73.832031 162.296875 73.078125 164.867188 71.539062 C 167.441406 70.003906 166.183594 64.941406 167.023438 63.144531 C 167.863281 61.34375 168.050781 61.011719 168.050781 61.011719 C 168.050781 61.011719 167.472656 60.570312 161.957031 63.40625 C 156.703125 66.109375 158.777344 69.3125 158.039062 75.25 C 158.039062 75.25 159.632812 69.640625 162.335938 67.40625 C 162.335938 67.40625 159.800781 71.617188 159.847656 74.792969 " fill-opacity="1" fill-rule="evenodd"/><path fill="#f1e0e8" d="M 171.117188 73.355469 C 172.152344 72.640625 172.9375 72.074219 174.855469 70.933594 C 176.773438 69.789062 175.839844 66.011719 176.464844 64.671875 C 177.089844 63.332031 177.226562 63.082031 177.226562 63.082031 C 177.226562 63.082031 176.796875 62.753906 172.6875 64.871094 C 168.769531 66.882812 170.3125 69.269531 169.769531 73.695312 C 169.769531 73.695312 170.957031 69.507812 172.972656 67.847656 C 172.96875 67.847656 171.074219 70.992188 171.117188 73.355469 " fill-opacity="1" fill-rule="evenodd"/><path fill="#e67798" d="M 179.425781 76.554688 C 180.925781 76.839844 182.09375 77.042969 184.722656 77.734375 C 187.351562 78.425781 189.828125 74.386719 191.527344 73.785156 C 193.222656 73.183594 193.554688 73.089844 193.554688 73.089844 C 193.554688 73.089844 193.472656 72.433594 188.128906 70.671875 C 183.039062 68.992188 182.28125 72.367188 177.976562 75.671875 C 177.976562 75.671875 182.621094 73.128906 185.785156 73.464844 C 185.789062 73.464844 181.449219 74.5 179.425781 76.554688 " fill-opacity="1" fill-rule="evenodd"/><path fill="#e35e85" d="M 162.226562 86.273438 C 163.476562 86.511719 164.445312 86.683594 166.644531 87.257812 C 168.835938 87.828125 170.902344 84.46875 172.3125 83.964844 C 173.726562 83.460938 174.003906 83.386719 174.003906 83.386719 C 174.003906 83.386719 173.9375 82.835938 169.484375 81.371094 C 165.238281 79.972656 164.613281 82.789062 161.023438 85.542969 C 161.023438 85.542969 164.894531 83.425781 167.53125 83.699219 C 167.523438 83.695312 163.910156 84.558594 162.226562 86.273438 " fill-opacity="1" fill-rule="evenodd"/><path fill="#f1e0e8" d="M 116.4375 128.164062 C 115.8125 126.105469 115.308594 124.519531 114.445312 120.785156 C 113.582031 117.058594 106.929688 116.605469 105.066406 114.882812 C 103.199219 113.164062 102.867188 112.804688 102.867188 112.804688 C 102.867188 112.804688 102.105469 113.335938 103.402344 121.148438 C 104.640625 128.597656 109.347656 127.332031 116.285156 130.539062 C 116.285156 130.539062 110.078125 126.40625 108.421875 122.246094 C 108.417969 122.25 112.550781 126.984375 116.4375 128.164062 " fill-opacity="1" fill-rule="evenodd"/><path fill="#f1e0e8" d="M 114.457031 110.078125 C 114.355469 107.925781 114.257812 106.261719 114.34375 102.4375 C 114.425781 98.609375 108.097656 96.535156 106.714844 94.402344 C 105.332031 92.277344 105.101562 91.847656 105.101562 91.847656 C 105.101562 91.847656 104.230469 92.167969 103.558594 100.066406 C 102.921875 107.589844 107.792969 107.523438 113.722656 112.347656 C 113.722656 112.347656 108.726562 106.8125 108.148438 102.371094 C 108.144531 102.367188 110.984375 107.976562 114.457031 110.078125 " fill-opacity="1" fill-rule="evenodd"/><path fill="#e35e85" d="M 120.476562 96.933594 C 120.757812 95.070312 120.960938 93.621094 121.679688 90.351562 C 122.40625 87.082031 117.320312 84.21875 116.5 82.160156 C 115.675781 80.097656 115.546875 79.6875 115.546875 79.6875 C 115.546875 79.6875 114.742188 79.816406 112.820312 86.480469 C 110.984375 92.832031 115.183594 93.605469 119.453125 98.757812 C 119.453125 98.757812 116.105469 93.152344 116.367188 89.238281 C 116.375 89.238281 117.855469 94.535156 120.476562 96.933594 " fill-opacity="1" fill-rule="evenodd"/><path fill="#e67798" d="M 108.808594 149.449219 C 110.085938 148.054688 111.050781 146.972656 113.480469 144.65625 C 115.902344 142.34375 113.277344 137.132812 113.742188 134.964844 C 114.207031 132.796875 114.324219 132.378906 114.324219 132.378906 C 114.324219 132.378906 113.585938 132.042969 108.28125 136.5 C 103.21875 140.753906 106.273438 143.738281 106.945312 150.390625 C 106.945312 150.390625 107.292969 143.875 109.6875 140.773438 C 109.691406 140.777344 107.972656 146 108.808594 149.449219 " fill-opacity="1" fill-rule="evenodd"/><path fill="#f1e0e8" d="M 112.59375 161.984375 C 113.742188 160.726562 114.617188 159.75 116.800781 157.667969 C 118.988281 155.582031 116.617188 150.882812 117.039062 148.925781 C 117.464844 146.964844 117.570312 146.597656 117.570312 146.597656 C 117.570312 146.597656 116.902344 146.292969 112.117188 150.3125 C 107.554688 154.148438 110.304688 156.832031 110.914062 162.835938 C 110.914062 162.835938 111.222656 156.964844 113.382812 154.164062 C 113.390625 154.164062 111.835938 158.875 112.59375 161.984375 " fill-opacity="1" fill-rule="evenodd"/><path fill="#e35e85" d="M 117.023438 171.269531 C 117.832031 170.386719 118.445312 169.699219 119.984375 168.226562 C 121.523438 166.753906 119.859375 163.449219 120.148438 162.074219 C 120.449219 160.691406 120.519531 160.4375 120.519531 160.4375 C 120.519531 160.4375 120.046875 160.222656 116.675781 163.050781 C 113.46875 165.75 115.402344 167.644531 115.832031 171.871094 C 115.832031 171.871094 116.050781 167.730469 117.570312 165.761719 C 117.582031 165.761719 116.488281 169.078125 117.023438 171.269531 " fill-opacity="1" fill-rule="evenodd"/><path fill="#e35e85" d="M 130.945312 165.980469 C 130.363281 164.933594 129.90625 164.136719 128.992188 162.207031 C 128.089844 160.28125 124.417969 160.816406 123.210938 160.101562 C 121.996094 159.386719 121.769531 159.234375 121.769531 159.234375 C 121.769531 159.234375 121.417969 159.609375 123.039062 163.699219 C 124.585938 167.601562 126.992188 166.355469 131.136719 167.285156 C 131.136719 167.285156 127.277344 165.773438 125.890625 163.707031 C 125.898438 163.710938 128.703125 165.796875 130.945312 165.980469 " fill-opacity="1" fill-rule="evenodd"/><path fill="#f1e0e8" d="M 135.265625 178.402344 C 134.519531 177.070312 133.929688 176.046875 132.773438 173.585938 C 131.621094 171.125 126.9375 171.816406 125.390625 170.898438 C 123.84375 169.988281 123.554688 169.785156 123.554688 169.785156 C 123.554688 169.785156 123.105469 170.269531 125.175781 175.492188 C 127.152344 180.472656 130.226562 178.886719 135.519531 180.070312 C 135.519531 180.070312 130.59375 178.136719 128.820312 175.503906 C 128.816406 175.511719 132.394531 178.171875 135.265625 178.402344 " fill-opacity="1" fill-rule="evenodd"/><path fill="#e67798" d="M 134.113281 205.328125 C 132.160156 204.125 130.644531 203.214844 127.324219 200.851562 C 124.007812 198.480469 118.386719 202.808594 115.6875 202.742188 C 112.992188 202.683594 112.472656 202.628906 112.472656 202.628906 C 112.472656 202.628906 112.234375 203.589844 118.773438 208.914062 C 125.007812 213.988281 127.875 209.660156 135.667969 207.335938 C 135.667969 207.335938 127.808594 208.40625 123.550781 206.257812 C 123.550781 206.261719 130.183594 207.128906 134.113281 205.328125 " fill-opacity="1" fill-rule="evenodd"/><path fill="#e35e85" d="M 120.757812 193.585938 C 119.136719 192.589844 117.875 191.832031 115.128906 189.867188 C 112.378906 187.902344 107.71875 191.496094 105.480469 191.441406 C 103.242188 191.386719 102.8125 191.351562 102.8125 191.351562 C 102.8125 191.351562 102.617188 192.148438 108.035156 196.5625 C 113.207031 200.765625 115.574219 197.179688 122.042969 195.253906 C 122.042969 195.253906 115.527344 196.144531 111.996094 194.359375 C 111.996094 194.351562 117.5 195.074219 120.757812 193.585938 " fill-opacity="1" fill-rule="evenodd"/><path fill="#f1e0e8" d="M 108.710938 182.101562 C 107.875 180.394531 107.207031 179.082031 105.933594 175.957031 C 104.660156 172.828125 98.800781 173.371094 96.933594 172.132812 C 95.070312 170.894531 94.730469 170.632812 94.730469 170.632812 C 94.730469 170.632812 94.140625 171.199219 96.363281 177.828125 C 98.484375 184.144531 102.410156 182.375 108.90625 184.203125 C 108.90625 184.203125 102.921875 181.476562 100.890625 178.082031 C 100.894531 178.078125 105.160156 181.621094 108.710938 182.101562 " fill-opacity="1" fill-rule="evenodd"/><path fill="#e67798" d="M 101.832031 167.292969 C 101.257812 165.480469 100.800781 164.082031 100.003906 160.800781 C 99.210938 157.519531 93.332031 157.179688 91.675781 155.679688 C 90.015625 154.175781 89.71875 153.863281 89.71875 153.863281 C 89.71875 153.863281 89.050781 154.332031 90.265625 161.222656 C 91.421875 167.785156 95.566406 166.625 101.71875 169.394531 C 101.71875 169.394531 96.203125 165.800781 94.703125 162.144531 C 94.703125 162.140625 98.386719 166.285156 101.832031 167.292969 " fill-opacity="1" fill-rule="evenodd"/><path fill="#e35e85" d="M 99.019531 149.40625 C 98.964844 147.507812 98.90625 146.035156 99.042969 142.664062 C 99.179688 139.289062 93.625 137.351562 92.4375 135.453125 C 91.253906 133.554688 91.058594 133.171875 91.058594 133.171875 C 91.058594 133.171875 90.28125 133.445312 89.5625 140.398438 C 88.871094 147.023438 93.175781 147.042969 98.328125 151.394531 C 98.328125 151.394531 94.011719 146.429688 93.570312 142.503906 C 93.578125 142.503906 95.988281 147.496094 99.019531 149.40625 " fill-opacity="1" fill-rule="evenodd"/><path fill="#e67798" d="M 100.644531 131.441406 C 100.59375 129.539062 100.53125 128.070312 100.667969 124.699219 C 100.804688 121.320312 95.25 119.386719 94.066406 117.484375 C 92.878906 115.585938 92.675781 115.207031 92.675781 115.207031 C 92.675781 115.207031 91.902344 115.480469 91.183594 122.429688 C 90.496094 129.058594 94.796875 129.074219 99.949219 133.429688 C 99.949219 133.429688 95.632812 128.460938 95.191406 124.53125 C 95.203125 124.539062 97.613281 129.535156 100.644531 131.441406 " fill-opacity="1" fill-rule="evenodd"/><path fill="#e35e85" d="M 158.578125 263.988281 C 157.679688 259.277344 156.929688 255.644531 155.898438 247.183594 C 154.871094 238.722656 140.25 236.160156 136.53125 231.90625 C 132.816406 227.65625 132.15625 226.785156 132.15625 226.785156 C 132.15625 226.785156 130.339844 227.773438 131.371094 245.386719 C 132.351562 262.167969 143.070312 260.46875 157.675781 269.21875 C 157.675781 269.21875 144.90625 258.605469 142.21875 249 C 142.21875 249 150.261719 260.457031 158.578125 263.988281 " fill-opacity="1" fill-rule="evenodd"/><path fill="#e35e85" d="M 153.070312 232.707031 C 152.179688 230.074219 151.464844 228.046875 150.199219 223.273438 C 148.9375 218.496094 140.34375 218.1875 137.871094 216.042969 C 135.402344 213.898438 134.953125 213.453125 134.953125 213.453125 C 134.953125 213.453125 133.988281 214.167969 135.980469 224.191406 C 137.871094 233.742188 143.894531 231.917969 152.964844 235.777344 C 152.964844 235.777344 144.792969 230.703125 142.488281 225.40625 C 142.488281 225.40625 148.007812 231.34375 153.070312 232.707031 " fill-opacity="1" fill-rule="evenodd"/></svg>