<svg xmlns="http://www.w3.org/2000/svg" xmlns:xlink="http://www.w3.org/1999/xlink" width="960" zoomAndPan="magnify" viewBox="0 0 720 404.99999" height="540" preserveAspectRatio="xMidYMid meet" version="1.0"><rect x="-72" width="864" fill="#ffffff" y="-40.499999" height="485.999988" fill-opacity="1"/><rect x="-72" width="864" fill="#ffffff" y="-40.499999" height="485.999988" fill-opacity="1"/><path fill="#000000" d="M 0 78 L 65.25 118.5 L 131.25 93.75 L 196.5 98.25 L 261.75 122.25 L 327 122.25 L 393 126 L 458.25 130.5 L 523.5 102 L 588.75 78 L 654.75 93.75 L 720 110.25 L 720 0 L 0 0 Z M 0 78 " fill-opacity="1" fill-rule="nonzero"/><path fill="#5b0101" d="M 0 138.75 L 65.25 146.25 L 131.25 159 L 196.5 162.75 L 261.75 154.5 L 327 179.25 L 393 174.75 L 458.25 166.5 L 523.5 138.75 L 588.75 110.25 L 654.75 142.5 L 720 142.5 L 720 108.75 L 654.75 92.25 L 588.75 76.5 L 523.5 100.5 L 458.25 129 L 393 124.5 L 327 120.75 L 261.75 120.75 L 196.5 96.75 L 131.25 92.25 L 65.25 117 L 0 76.5 Z M 0 138.75 " fill-opacity="1" fill-rule="nonzero"/><path fill="#6a0404" d="M 0 171 L 65.25 186.75 L 131.25 215.25 L 196.5 231.75 L 261.75 227.25 L 327 252 L 393 223.5 L 458.25 211.5 L 523.5 195 L 588.75 191.25 L 654.75 215.25 L 720 191.25 L 720 141 L 654.75 141 L 588.75 108.75 L 523.5 137.25 L 458.25 165 L 393 173.25 L 327 177.75 L 261.75 153 L 196.5 161.25 L 131.25 157.5 L 65.25 144.75 L 0 137.25 Z M 0 171 " fill-opacity="1" fill-rule="nonzero"/><path fill="#990500" d="M 0 267.75 L 65.25 296.25 L 131.25 260.25 L 196.5 276 L 261.75 321 L 327 336.75 L 393 272.25 L 458.25 292.5 L 523.5 264 L 588.75 284.25 L 654.75 276 L 720 300.75 L 720 189.75 L 654.75 213.75 L 588.75 189.75 L 523.5 193.5 L 458.25 210 L 393 222 L 327 250.5 L 261.75 225.75 L 196.5 230.25 L 131.25 213.75 L 65.25 185.25 L 0 169.5 Z M 0 267.75 " fill-opacity="1" fill-rule="nonzero"/><path fill="#b40505" d="M 0 405.75 L 720 405.75 L 720 299.25 L 654.75 274.5 L 588.75 282.75 L 523.5 262.5 L 458.25 291 L 393 270.75 L 327 335.25 L 261.75 319.5 L 196.5 274.5 L 131.25 258.75 L 65.25 294.75 L 0 266.25 Z M 0 405.75 " fill-opacity="1" fill-rule="nonzero"/></svg>