<svg xmlns="http://www.w3.org/2000/svg" xmlns:xlink="http://www.w3.org/1999/xlink" width="500" zoomAndPan="magnify" viewBox="0 0 375 374.999991" height="500" preserveAspectRatio="xMidYMid meet" version="1.0"><defs><clipPath id="b1a02b9f63"><path d="M 38 71 L 243 71 L 243 312.75 L 38 312.75 Z M 38 71 " clip-rule="nonzero"/></clipPath><clipPath id="bba8477e32"><path d="M 321 156 L 337.5 156 L 337.5 165 L 321 165 Z M 321 156 " clip-rule="nonzero"/></clipPath><clipPath id="4a52ac3a31"><path d="M 94 62.25 L 101 62.25 L 101 74 L 94 74 Z M 94 62.25 " clip-rule="nonzero"/></clipPath></defs><g clip-path="url(#b1a02b9f63)"><path fill="#000000" d="M 242.113281 129.421875 C 239.703125 132.316406 237.050781 135.027344 234.039062 137.316406 C 228.738281 141.292969 222.953125 143.640625 216.265625 143.519531 C 210 143.402344 204.398438 141.230469 199.339844 137.675781 C 196.085938 132.675781 192.230469 128.277344 187.832031 124.484375 C 198.3125 121.710938 205.785156 115.085938 210.542969 105.445312 C 216.148438 94 214.941406 82.492188 210 71.105469 C 210.183594 71.648438 210.363281 72.191406 210.542969 72.734375 C 212.773438 79.960938 213.554688 87.3125 211.6875 94.722656 C 209.039062 105.507812 202.652344 113.277344 192.410156 117.734375 C 188.675781 119.363281 184.757812 120.207031 180.78125 119.121094 C 168.855469 111.289062 154.273438 107.253906 138.609375 107.496094 C 137.949219 107.496094 137.347656 107.496094 136.683594 107.554688 C 143.308594 102.613281 148.429688 96.53125 151.019531 88.335938 C 151.925781 85.445312 152.46875 82.492188 152.285156 79.417969 C 152.285156 79.539062 152.226562 79.660156 152.226562 79.78125 C 150.960938 87.25 147.527344 93.515625 141.984375 98.578125 C 136.5625 103.519531 130.175781 106.710938 123.1875 108.699219 C 123.1875 108.699219 123.128906 108.699219 123.128906 108.699219 C 119.574219 109.242188 116.320312 109.902344 113.1875 110.746094 C 114.453125 108.15625 115.234375 105.265625 115.417969 102.070312 C 116.078125 90.804688 109.269531 80.203125 98.847656 76.046875 C 98.308594 75.804688 97.765625 75.445312 96.980469 75.625 C 105.777344 79.78125 111.257812 87.433594 111.800781 96.710938 C 112.222656 104 109.875 110.023438 103.667969 113.878906 C 90.476562 119.183594 81.980469 126.953125 76.558594 133.820312 C 63.003906 151.171875 61.375 172.921875 64.449219 188.222656 C 61.980469 190.152344 56.917969 194.1875 51.976562 198.464844 C 38.964844 209.910156 37.519531 213.644531 39.386719 216.660156 C 41.195312 219.609375 45.710938 220.636719 50.472656 221.71875 C 52.699219 222.261719 56.4375 223.105469 57.460938 223.886719 C 57.398438 224.730469 56.859375 225.515625 55.652344 226.960938 C 54.265625 228.648438 52.582031 230.695312 52.21875 233.769531 C 51.796875 238.046875 53.847656 240.636719 56.558594 242.203125 C 55.652344 243.046875 54.929688 243.890625 54.449219 244.734375 C 53.363281 246.601562 53.183594 248.527344 54.027344 250.035156 C 54.929688 251.722656 57.398438 252.988281 59.808594 253.828125 C 59.929688 256.902344 59.386719 259.734375 58.847656 262.503906 C 57.703125 268.289062 56.4375 274.855469 64.148438 280.097656 C 70.773438 284.617188 78.484375 283.050781 86.679688 281.421875 C 92.765625 280.15625 99.632812 278.773438 107.042969 279.675781 C 114.632812 280.519531 125.839844 288.410156 130.71875 312.75 C 130.597656 311.242188 129.210938 277.566406 107.765625 273.769531 C 99.453125 272.324219 91.980469 274.253906 85.472656 275.578125 C 78.003906 277.085938 72.039062 278.289062 67.519531 275.15625 C 63.242188 272.265625 63.546875 269.675781 64.691406 263.648438 C 65.351562 260.09375 66.136719 256.058594 65.535156 251.238281 C 65.414062 250.09375 64.570312 249.070312 63.425781 248.769531 C 62.160156 248.40625 60.714844 247.867188 59.808594 247.382812 C 60.53125 246.417969 62.339844 244.972656 65.472656 244.914062 C 66.980469 244.851562 68.246094 243.707031 68.363281 242.203125 C 68.484375 240.695312 67.460938 239.3125 65.957031 239.007812 C 57.820312 237.441406 57.941406 235.9375 58.125 234.371094 C 58.242188 233.164062 58.964844 232.261719 60.171875 230.816406 C 61.738281 228.949219 63.664062 226.597656 63.304688 222.984375 C 62.824219 218.464844 57.460938 217.261719 51.675781 215.9375 C 49.628906 215.453125 46.375 214.730469 44.988281 214.007812 C 47.277344 210.210938 58.90625 199.972656 69.390625 191.957031 C 70.351562 191.234375 70.773438 190.03125 70.472656 188.886719 C 67.21875 174.847656 68.246094 154.0625 81.078125 137.617188 C 93.066406 122.253906 112.945312 113.941406 138.609375 113.457031 C 141.441406 113.398438 144.152344 113.519531 146.863281 113.757812 C 153.007812 114.90625 157.648438 118.457031 160.78125 123.882812 C 165.179688 131.53125 165.359375 139.605469 162.289062 147.679688 C 158.671875 157.136719 151.5625 163.28125 142.648438 167.738281 C 143.191406 168.101562 143.609375 167.738281 143.972656 167.558594 C 149.996094 165.027344 155.359375 161.535156 159.578125 156.472656 C 166.566406 148.039062 169.394531 138.398438 166.804688 127.675781 C 165.78125 123.460938 164.035156 119.84375 161.683594 116.832031 C 177.589844 122.011719 190.542969 132.917969 198.253906 148.21875 C 208.011719 167.679688 206.75 189.308594 194.878906 204.667969 L 195.964844 205.511719 C 207.472656 194.546875 214.941406 170.210938 203.796875 145.992188 C 210.785156 148.097656 217.894531 148.160156 225.003906 145.207031 C 231.691406 142.4375 236.691406 137.675781 240.847656 131.894531 C 241.570312 130.929688 242.351562 129.964844 242.894531 128.761719 C 242.472656 128.761719 242.351562 129.183594 242.113281 129.421875 Z M 242.113281 129.421875 " fill-opacity="1" fill-rule="evenodd"/></g><path fill="#b40505" d="M 113.910156 72.429688 C 115.355469 69.480469 115.234375 66.226562 113.789062 63.875 C 111.019531 64.238281 108.367188 66.105469 106.980469 69.058594 C 105.535156 72.007812 105.65625 75.261719 107.101562 77.613281 C 109.8125 77.25 112.464844 75.382812 113.910156 72.429688 Z M 113.910156 72.429688 " fill-opacity="1" fill-rule="nonzero"/><path fill="#b40505" d="M 122.285156 85.683594 C 125.238281 84.117188 127.042969 81.347656 127.285156 78.578125 C 124.816406 77.25 121.5 77.25 118.609375 78.816406 C 115.65625 80.382812 113.851562 83.15625 113.609375 85.925781 C 116.078125 87.25 119.332031 87.3125 122.285156 85.683594 Z M 122.285156 85.683594 " fill-opacity="1" fill-rule="nonzero"/><path fill="#b40505" d="M 155.839844 97.492188 C 152.648438 96.589844 149.453125 97.253906 147.285156 99.058594 C 148.128906 101.710938 150.480469 104.058594 153.671875 105.023438 C 156.867188 105.988281 160.058594 105.265625 162.226562 103.457031 C 161.324219 100.746094 159.035156 98.457031 155.839844 97.492188 Z M 155.839844 97.492188 " fill-opacity="1" fill-rule="nonzero"/><path fill="#b40505" d="M 133.429688 95.023438 C 131.5625 92.613281 128.308594 91.109375 124.695312 91.347656 C 121.078125 91.589844 118.066406 93.515625 116.5 96.167969 C 118.367188 98.578125 121.621094 100.085938 125.238281 99.84375 C 128.910156 99.601562 131.921875 97.675781 133.429688 95.023438 Z M 133.429688 95.023438 " fill-opacity="1" fill-rule="nonzero"/><path fill="#b40505" d="M 127.765625 115.507812 C 126.863281 118.15625 127.34375 121.472656 129.394531 124.121094 C 131.441406 126.773438 134.453125 128.160156 137.285156 127.976562 C 138.1875 125.328125 137.707031 122.011719 135.660156 119.363281 C 133.609375 116.652344 130.539062 115.324219 127.765625 115.507812 Z M 127.765625 115.507812 " fill-opacity="1" fill-rule="nonzero"/><path fill="#b40505" d="M 147.648438 136.894531 C 149.9375 138.460938 153.191406 138.761719 156.203125 137.496094 C 159.214844 136.230469 161.261719 133.699219 161.804688 130.988281 C 159.515625 129.421875 156.261719 129.121094 153.25 130.386719 C 150.179688 131.652344 148.128906 134.183594 147.648438 136.894531 Z M 147.648438 136.894531 " fill-opacity="1" fill-rule="nonzero"/><path fill="#b40505" d="M 185.359375 105.808594 C 184.941406 109.242188 186.144531 112.433594 188.375 114.300781 C 190.964844 113.035156 192.953125 110.265625 193.433594 106.832031 C 193.855469 103.398438 192.652344 100.203125 190.421875 98.335938 C 187.769531 99.601562 185.78125 102.375 185.359375 105.808594 Z M 185.359375 105.808594 " fill-opacity="1" fill-rule="nonzero"/><path fill="#b40505" d="M 189.21875 92.613281 C 190.722656 90.566406 191.144531 87.554688 190.121094 84.722656 C 189.097656 81.890625 186.808594 79.902344 184.335938 79.300781 C 182.832031 81.347656 182.410156 84.359375 183.433594 87.191406 C 184.457031 90.023438 186.746094 92.011719 189.21875 92.613281 Z M 189.21875 92.613281 " fill-opacity="1" fill-rule="nonzero"/><path fill="#b40505" d="M 173.855469 92.492188 C 175.660156 90.6875 176.445312 88.277344 176.082031 86.167969 C 173.976562 85.683594 171.503906 86.410156 169.699219 88.15625 C 167.828125 89.960938 167.105469 92.371094 167.46875 94.480469 C 169.578125 94.964844 171.988281 94.242188 173.855469 92.492188 Z M 173.855469 92.492188 " fill-opacity="1" fill-rule="nonzero"/><path fill="#b40505" d="M 203.195312 104 C 204.820312 101.589844 205.183594 98.214844 203.855469 95.023438 C 202.53125 91.832031 199.878906 89.660156 197.050781 89.121094 C 195.421875 91.527344 195.0625 94.902344 196.386719 98.097656 C 197.652344 101.289062 200.300781 103.457031 203.195312 104 Z M 203.195312 104 " fill-opacity="1" fill-rule="nonzero"/><path fill="#b40505" d="M 153.25 142.796875 C 149.996094 142.375 146.984375 143.582031 145.175781 145.691406 C 146.441406 148.160156 149.09375 150.085938 152.347656 150.449219 C 155.601562 150.871094 158.613281 149.664062 160.417969 147.558594 C 159.15625 145.085938 156.503906 143.160156 153.25 142.796875 Z M 153.25 142.796875 " fill-opacity="1" fill-rule="nonzero"/><path fill="#b40505" d="M 150.960938 124.605469 C 151.5625 121.410156 150.601562 118.398438 148.671875 116.472656 C 146.140625 117.554688 144.09375 120.023438 143.492188 123.15625 C 142.886719 126.351562 143.851562 129.363281 145.78125 131.292969 C 148.371094 130.265625 150.359375 127.796875 150.960938 124.605469 Z M 150.960938 124.605469 " fill-opacity="1" fill-rule="nonzero"/><path fill="#b40505" d="M 162.167969 156.894531 C 160.660156 159.484375 160.601562 162.980469 162.167969 166.171875 C 163.734375 169.367188 166.625 171.355469 169.636719 171.714844 C 171.144531 169.125 171.203125 165.632812 169.636719 162.4375 C 168.011719 159.246094 165.179688 157.257812 162.167969 156.894531 Z M 162.167969 156.894531 " fill-opacity="1" fill-rule="nonzero"/><path fill="#b40505" d="M 168.855469 143.941406 C 167.710938 147.257812 168.371094 151.351562 170.902344 154.667969 C 173.433594 157.980469 177.226562 159.667969 180.722656 159.425781 C 181.867188 156.113281 181.203125 152.015625 178.675781 148.703125 C 176.144531 145.386719 172.347656 143.703125 168.855469 143.941406 Z M 168.855469 143.941406 " fill-opacity="1" fill-rule="nonzero"/><path fill="#b40505" d="M 181.566406 132.074219 C 178.253906 129.605469 174.15625 129 170.84375 130.207031 C 170.660156 133.699219 172.410156 137.4375 175.722656 139.964844 C 179.097656 142.4375 183.132812 143.039062 186.445312 141.835938 C 186.625 138.28125 184.878906 134.542969 181.566406 132.074219 Z M 181.566406 132.074219 " fill-opacity="1" fill-rule="nonzero"/><path fill="#b40505" d="M 204.761719 123.339844 C 201.746094 121.410156 198.195312 121.230469 195.421875 122.433594 C 195.484375 125.449219 197.230469 128.578125 200.300781 130.449219 C 203.3125 132.375 206.867188 132.554688 209.640625 131.351562 C 209.578125 128.339844 207.832031 125.265625 204.761719 123.339844 Z M 204.761719 123.339844 " fill-opacity="1" fill-rule="nonzero"/><path fill="#b40505" d="M 225.847656 161.414062 C 226.570312 158.460938 225.726562 155.027344 223.316406 152.378906 C 220.90625 149.726562 217.53125 148.582031 214.582031 149.003906 C 213.855469 151.957031 214.699219 155.390625 217.109375 158.039062 C 219.519531 160.691406 222.832031 161.835938 225.847656 161.414062 Z M 225.847656 161.414062 " fill-opacity="1" fill-rule="nonzero"/><path fill="#b40505" d="M 233.015625 153.523438 C 235.90625 155.207031 239.21875 155.390625 241.75 154.125 C 241.628906 151.292969 239.882812 148.460938 237.050781 146.714844 C 234.160156 145.027344 230.847656 144.847656 228.316406 146.113281 C 228.4375 148.941406 230.183594 151.773438 233.015625 153.523438 Z M 233.015625 153.523438 " fill-opacity="1" fill-rule="nonzero"/><path fill="#b40505" d="M 263.980469 156.292969 C 262.777344 153.761719 260.066406 151.773438 256.753906 151.351562 C 253.4375 150.871094 250.304688 152.074219 248.4375 154.183594 C 249.644531 156.714844 252.355469 158.703125 255.667969 159.125 C 259.042969 159.546875 262.113281 158.402344 263.980469 156.292969 Z M 263.980469 156.292969 " fill-opacity="1" fill-rule="nonzero"/><path fill="#b40505" d="M 292.898438 158.582031 C 291.695312 156.050781 288.984375 154.0625 285.667969 153.640625 C 282.355469 153.160156 279.222656 154.363281 277.355469 156.472656 C 278.5625 159.003906 281.273438 160.992188 284.585938 161.414062 C 287.898438 161.835938 291.03125 160.691406 292.898438 158.582031 Z M 292.898438 158.582031 " fill-opacity="1" fill-rule="nonzero"/><path fill="#b40505" d="M 321.152344 178.402344 C 317.839844 177.921875 314.707031 179.125 312.839844 181.234375 C 314.046875 183.765625 316.757812 185.753906 320.070312 186.175781 C 323.382812 186.65625 326.515625 185.453125 328.382812 183.34375 C 327.179688 180.8125 324.46875 178.824219 321.152344 178.402344 Z M 321.152344 178.402344 " fill-opacity="1" fill-rule="nonzero"/><path fill="#b40505" d="M 298.199219 165.8125 C 299.40625 168.34375 302.117188 170.328125 305.429688 170.75 C 308.742188 171.234375 311.875 170.027344 313.742188 167.921875 C 312.539062 165.390625 309.828125 163.402344 306.515625 162.980469 C 303.199219 162.558594 300.128906 163.703125 298.199219 165.8125 Z M 298.199219 165.8125 " fill-opacity="1" fill-rule="nonzero"/><g clip-path="url(#bba8477e32)"><path fill="#b40505" d="M 330.25 156.773438 C 326.9375 156.292969 323.804688 157.496094 321.9375 159.605469 C 323.140625 162.136719 325.851562 164.125 329.167969 164.546875 C 332.480469 165.027344 335.613281 163.824219 337.480469 161.714844 C 336.277344 159.183594 333.566406 157.195312 330.25 156.773438 Z M 330.25 156.773438 " fill-opacity="1" fill-rule="nonzero"/></g><path fill="#b40505" d="M 303.019531 148.882812 C 304.765625 150.570312 307.480469 151.351562 310.308594 150.75 C 313.140625 150.148438 315.25 148.28125 316.152344 145.992188 C 314.40625 144.304688 311.695312 143.519531 308.863281 144.125 C 306.03125 144.726562 303.925781 146.59375 303.019531 148.882812 Z M 303.019531 148.882812 " fill-opacity="1" fill-rule="nonzero"/><path fill="#b40505" d="M 262.175781 141.414062 C 263.621094 144.425781 266.8125 146.714844 270.730469 147.257812 C 274.644531 147.796875 278.320312 146.414062 280.550781 143.882812 C 279.101562 140.871094 275.910156 138.582031 271.992188 138.039062 C 268.019531 137.554688 264.34375 138.941406 262.175781 141.414062 Z M 262.175781 141.414062 " fill-opacity="1" fill-rule="nonzero"/><path fill="#b40505" d="M 301.574219 137.316406 C 305.007812 135.386719 307.117188 132.074219 307.417969 128.761719 C 304.464844 127.253906 300.550781 127.253906 297.054688 129.183594 C 293.621094 131.109375 291.511719 134.425781 291.210938 137.738281 C 294.222656 139.304688 298.140625 139.242188 301.574219 137.316406 Z M 301.574219 137.316406 " fill-opacity="1" fill-rule="nonzero"/><path fill="#b40505" d="M 243.980469 144.664062 C 246.933594 145.328125 249.824219 144.546875 251.691406 142.796875 C 250.789062 140.386719 248.558594 138.398438 245.605469 137.738281 C 242.65625 137.074219 239.761719 137.859375 237.894531 139.605469 C 238.800781 142.015625 241.027344 144.003906 243.980469 144.664062 Z M 243.980469 144.664062 " fill-opacity="1" fill-rule="nonzero"/><path fill="#b40505" d="M 249.644531 134.726562 C 252.113281 134.664062 254.28125 133.398438 255.425781 131.652344 C 254.222656 129.90625 251.992188 128.820312 249.523438 128.882812 C 247.050781 128.941406 244.882812 130.207031 243.800781 131.953125 C 244.945312 133.699219 247.113281 134.785156 249.644531 134.726562 Z M 249.644531 134.726562 " fill-opacity="1" fill-rule="nonzero"/><path fill="#b40505" d="M 263.980469 126.289062 C 265.1875 128.039062 267.414062 129.121094 269.886719 129.0625 C 272.355469 129 274.523438 127.738281 275.609375 125.988281 C 274.402344 124.242188 272.175781 123.15625 269.703125 123.21875 C 267.234375 123.277344 265.125 124.484375 263.980469 126.289062 Z M 263.980469 126.289062 " fill-opacity="1" fill-rule="nonzero"/><path fill="#b40505" d="M 220.121094 135.449219 C 221.449219 132.132812 221.027344 128.578125 219.28125 126.109375 C 216.328125 126.773438 213.617188 129.0625 212.289062 132.375 C 210.964844 135.6875 211.386719 139.242188 213.132812 141.714844 C 216.148438 141.109375 218.859375 138.820312 220.121094 135.449219 Z M 220.121094 135.449219 " fill-opacity="1" fill-rule="nonzero"/><path fill="#b40505" d="M 194.519531 160.992188 C 197.289062 157.679688 198.074219 153.523438 197.050781 150.027344 C 193.433594 149.664062 189.519531 151.230469 186.746094 154.546875 C 183.976562 157.859375 183.191406 162.015625 184.214844 165.511719 C 187.832031 165.871094 191.808594 164.304688 194.519531 160.992188 Z M 194.519531 160.992188 " fill-opacity="1" fill-rule="nonzero"/><path fill="#b40505" d="M 190.84375 170.933594 C 187.589844 173.703125 186.085938 177.679688 186.507812 181.292969 C 190 182.257812 194.15625 181.355469 197.410156 178.582031 C 200.664062 175.8125 202.167969 171.835938 201.746094 168.222656 C 198.253906 167.257812 194.097656 168.160156 190.84375 170.933594 Z M 190.84375 170.933594 " fill-opacity="1" fill-rule="nonzero"/><path fill="#b40505" d="M 223.375 167.617188 C 219.941406 165.027344 215.726562 164.425781 212.289062 165.691406 C 212.109375 169.304688 213.917969 173.160156 217.351562 175.753906 C 220.785156 178.34375 225.003906 178.945312 228.4375 177.679688 C 228.617188 174.066406 226.808594 170.210938 223.375 167.617188 Z M 223.375 167.617188 " fill-opacity="1" fill-rule="nonzero"/><path fill="#b40505" d="M 243.4375 165.449219 C 240.003906 162.859375 235.785156 162.257812 232.351562 163.523438 C 232.171875 167.136719 233.980469 170.992188 237.414062 173.582031 C 240.847656 176.175781 245.0625 176.777344 248.5 175.511719 C 248.617188 171.894531 246.871094 168.039062 243.4375 165.449219 Z M 243.4375 165.449219 " fill-opacity="1" fill-rule="nonzero"/><path fill="#b40505" d="M 264.28125 195.933594 C 267.175781 198.101562 270.730469 198.585938 273.621094 197.5625 C 273.800781 194.488281 272.296875 191.234375 269.34375 189.066406 C 266.453125 186.898438 262.898438 186.414062 260.003906 187.441406 C 259.882812 190.511719 261.390625 193.824219 264.28125 195.933594 Z M 264.28125 195.933594 " fill-opacity="1" fill-rule="nonzero"/><path fill="#b40505" d="M 246.691406 187.378906 C 243.980469 185.332031 240.605469 184.847656 237.894531 185.8125 C 237.773438 188.703125 239.160156 191.777344 241.871094 193.765625 C 244.582031 195.8125 247.957031 196.296875 250.667969 195.332031 C 250.847656 192.5 249.402344 189.429688 246.691406 187.378906 Z M 246.691406 187.378906 " fill-opacity="1" fill-rule="nonzero"/><path fill="#b40505" d="M 269.042969 171.777344 C 266.511719 169.910156 263.378906 169.425781 260.910156 170.328125 C 260.789062 172.980469 262.113281 175.8125 264.644531 177.742188 C 267.175781 179.609375 270.308594 180.089844 272.777344 179.1875 C 272.898438 176.535156 271.574219 173.644531 269.042969 171.777344 Z M 269.042969 171.777344 " fill-opacity="1" fill-rule="nonzero"/><path fill="#b40505" d="M 270.609375 207.078125 C 268.078125 205.210938 264.945312 204.730469 262.476562 205.632812 C 262.355469 208.285156 263.679688 211.117188 266.210938 213.042969 C 268.742188 214.910156 271.875 215.394531 274.34375 214.488281 C 274.464844 211.839844 273.140625 209.007812 270.609375 207.078125 Z M 270.609375 207.078125 " fill-opacity="1" fill-rule="nonzero"/><path fill="#b40505" d="M 291.453125 175.269531 C 288.921875 173.402344 285.789062 172.921875 283.320312 173.824219 C 283.199219 176.476562 284.523438 179.304688 287.054688 181.234375 C 289.585938 183.101562 292.71875 183.585938 295.1875 182.679688 C 295.308594 180.03125 293.984375 177.199219 291.453125 175.269531 Z M 291.453125 175.269531 " fill-opacity="1" fill-rule="nonzero"/><path fill="#b40505" d="M 303.320312 195.152344 C 300.792969 193.285156 297.660156 192.800781 295.1875 193.707031 C 295.066406 196.355469 296.394531 199.1875 298.921875 201.117188 C 301.453125 202.984375 304.585938 203.464844 307.058594 202.5625 C 307.175781 199.851562 305.851562 197.019531 303.320312 195.152344 Z M 303.320312 195.152344 " fill-opacity="1" fill-rule="nonzero"/><path fill="#b40505" d="M 223.195312 184.246094 C 219.761719 181.65625 215.542969 181.054688 212.109375 182.320312 C 211.929688 185.933594 213.738281 189.789062 217.171875 192.378906 C 220.605469 194.96875 224.820312 195.574219 228.257812 194.308594 C 228.4375 190.691406 226.691406 186.777344 223.195312 184.246094 Z M 223.195312 184.246094 " fill-opacity="1" fill-rule="nonzero"/><path fill="#b40505" d="M 239.523438 206.71875 C 236.085938 204.128906 231.871094 203.523438 228.4375 204.789062 C 228.257812 208.40625 230.0625 212.261719 233.496094 214.851562 C 236.929688 217.441406 241.148438 218.042969 244.582031 216.777344 C 244.761719 213.164062 242.957031 209.308594 239.523438 206.71875 Z M 239.523438 206.71875 " fill-opacity="1" fill-rule="nonzero"/><path fill="#b40505" d="M 208.316406 196.296875 C 206.386719 198.523438 205.605469 201.839844 206.507812 205.210938 C 207.410156 208.585938 209.820312 211.054688 212.59375 212.019531 C 214.519531 209.789062 215.304688 206.476562 214.398438 203.105469 C 213.496094 199.730469 211.085938 197.257812 208.316406 196.296875 Z M 208.316406 196.296875 " fill-opacity="1" fill-rule="nonzero"/><path fill="#b40505" d="M 190.300781 189.96875 C 187.347656 191.71875 185.601562 194.667969 185.480469 197.5625 C 188.132812 198.824219 191.507812 198.644531 194.457031 196.898438 C 197.410156 195.152344 199.15625 192.199219 199.277344 189.308594 C 196.628906 188.101562 193.253906 188.222656 190.300781 189.96875 Z M 190.300781 189.96875 " fill-opacity="1" fill-rule="nonzero"/><path fill="#b40505" d="M 224.519531 132.015625 C 224.398438 134.84375 225.605469 137.4375 227.59375 138.820312 C 229.640625 137.554688 231.148438 135.148438 231.269531 132.316406 C 231.390625 129.484375 230.183594 126.894531 228.195312 125.507812 C 226.085938 126.710938 224.640625 129.121094 224.519531 132.015625 Z M 224.519531 132.015625 " fill-opacity="1" fill-rule="nonzero"/><path fill="#b40505" d="M 236.449219 130.507812 C 238.378906 129.605469 239.945312 127.554688 240.304688 125.027344 C 240.667969 122.496094 239.761719 120.085938 238.195312 118.640625 C 236.269531 119.542969 234.703125 121.589844 234.339844 124.121094 C 233.980469 126.710938 234.882812 129.0625 236.449219 130.507812 Z M 236.449219 130.507812 " fill-opacity="1" fill-rule="nonzero"/><path fill="#b40505" d="M 249.824219 121.710938 C 251.75 120.75 253.257812 118.699219 253.558594 116.109375 C 253.859375 113.578125 252.957031 111.167969 251.328125 109.785156 C 249.402344 110.746094 247.894531 112.796875 247.59375 115.386719 C 247.292969 117.917969 248.195312 120.265625 249.824219 121.710938 Z M 249.824219 121.710938 " fill-opacity="1" fill-rule="nonzero"/><path fill="#b40505" d="M 266.03125 118.878906 C 267.957031 117.132812 268.800781 114.785156 268.441406 112.613281 C 266.332031 112.074219 263.859375 112.675781 261.933594 114.421875 C 260.003906 116.167969 259.160156 118.519531 259.523438 120.6875 C 261.632812 121.230469 264.101562 120.628906 266.03125 118.878906 Z M 266.03125 118.878906 " fill-opacity="1" fill-rule="nonzero"/><path fill="#b40505" d="M 213.015625 120.6875 C 216.449219 121.773438 219.941406 121.167969 222.292969 119.242188 C 221.449219 116.351562 219.039062 113.757812 215.605469 112.675781 C 212.171875 111.589844 208.675781 112.191406 206.328125 114.121094 C 207.171875 117.011719 209.578125 119.542969 213.015625 120.6875 Z M 213.015625 120.6875 " fill-opacity="1" fill-rule="nonzero"/><path fill="#b40505" d="M 221.449219 105.085938 C 224.640625 104.664062 227.171875 102.734375 228.316406 100.324219 C 226.507812 98.335938 223.558594 97.191406 220.363281 97.675781 C 217.171875 98.097656 214.640625 100.023438 213.496094 102.433594 C 215.304688 104.421875 218.253906 105.566406 221.449219 105.085938 Z M 221.449219 105.085938 " fill-opacity="1" fill-rule="nonzero"/><path fill="#b40505" d="M 225.363281 86.410156 C 227.835938 84.359375 229.039062 81.46875 228.796875 78.757812 C 226.207031 77.972656 223.136719 78.578125 220.605469 80.566406 C 218.132812 82.613281 216.929688 85.503906 217.171875 88.214844 C 219.761719 89.058594 222.894531 88.457031 225.363281 86.410156 Z M 225.363281 86.410156 " fill-opacity="1" fill-rule="nonzero"/><path fill="#b40505" d="M 200.363281 84.058594 C 202.773438 86.167969 205.84375 86.949219 208.433594 86.226562 C 208.796875 83.578125 207.773438 80.566406 205.363281 78.457031 C 202.953125 76.347656 199.878906 75.625 197.289062 76.289062 C 196.929688 78.9375 198.011719 81.949219 200.363281 84.058594 Z M 200.363281 84.058594 " fill-opacity="1" fill-rule="nonzero"/><path fill="#b40505" d="M 164.757812 109.601562 C 167.949219 111.046875 172.105469 110.808594 175.601562 108.578125 C 179.15625 106.347656 181.144531 102.734375 181.265625 99.242188 C 178.070312 97.792969 173.914062 98.035156 170.421875 100.265625 C 166.867188 102.433594 164.816406 106.046875 164.757812 109.601562 Z M 164.757812 109.601562 " fill-opacity="1" fill-rule="nonzero"/><path fill="#b40505" d="M 151.804688 166.113281 C 149.757812 167.199219 148.25 169.425781 147.949219 172.136719 C 147.648438 174.847656 148.730469 177.320312 150.480469 178.824219 C 152.527344 177.742188 154.035156 175.511719 154.335938 172.800781 C 154.636719 170.027344 153.613281 167.558594 151.804688 166.113281 Z M 151.804688 166.113281 " fill-opacity="1" fill-rule="nonzero"/><path fill="#b40505" d="M 153.371094 159.246094 C 152.585938 157.074219 150.601562 155.269531 147.949219 154.605469 C 145.296875 153.941406 142.707031 154.667969 141.019531 156.234375 C 141.804688 158.402344 143.792969 160.207031 146.441406 160.871094 C 149.09375 161.535156 151.683594 160.8125 153.371094 159.246094 Z M 153.371094 159.246094 " fill-opacity="1" fill-rule="nonzero"/><path fill="#b40505" d="M 95.175781 141.472656 C 92.160156 138.703125 88.1875 137.738281 84.8125 138.582031 C 84.269531 142.015625 85.65625 145.808594 88.667969 148.582031 C 91.679688 151.351562 95.65625 152.316406 99.03125 151.472656 C 99.511719 148.039062 98.1875 144.183594 95.175781 141.472656 Z M 95.175781 141.472656 " fill-opacity="1" fill-rule="nonzero"/><path fill="#b40505" d="M 90.234375 110.324219 C 89.933594 106.230469 87.703125 102.855469 84.691406 101.109375 C 81.980469 103.214844 80.292969 106.953125 80.65625 111.046875 C 80.957031 115.144531 83.183594 118.519531 86.199219 120.265625 C 88.847656 118.15625 90.535156 114.421875 90.234375 110.324219 Z M 90.234375 110.324219 " fill-opacity="1" fill-rule="nonzero"/><path fill="#b40505" d="M 61.917969 112.3125 C 60.472656 116.289062 61.136719 121.167969 64.085938 125.144531 C 67.039062 129.183594 71.496094 131.230469 75.714844 131.050781 C 77.160156 127.074219 76.496094 122.195312 73.546875 118.21875 C 70.59375 114.242188 66.136719 112.132812 61.917969 112.3125 Z M 61.917969 112.3125 " fill-opacity="1" fill-rule="nonzero"/><path fill="#b40505" d="M 98.1875 127.433594 C 97.28125 130.265625 97.886719 133.761719 100.054688 136.53125 C 102.222656 139.304688 105.476562 140.6875 108.488281 140.449219 C 109.390625 137.617188 108.789062 134.121094 106.621094 131.351562 C 104.390625 128.578125 101.136719 127.195312 98.1875 127.433594 Z M 98.1875 127.433594 " fill-opacity="1" fill-rule="nonzero"/><path fill="#b40505" d="M 119.695312 121.230469 C 116.5 119.484375 112.945312 119.421875 110.234375 120.808594 C 110.476562 123.882812 112.402344 126.894531 115.597656 128.640625 C 118.789062 130.386719 122.34375 130.449219 125.054688 129.0625 C 124.753906 125.988281 122.828125 122.976562 119.695312 121.230469 Z M 119.695312 121.230469 " fill-opacity="1" fill-rule="nonzero"/><path fill="#b40505" d="M 142.886719 87.070312 C 142.347656 83.515625 140.175781 80.625 137.464844 79.300781 C 135.175781 81.347656 133.972656 84.722656 134.515625 88.277344 C 135.054688 91.832031 137.226562 94.722656 139.9375 96.046875 C 142.164062 94 143.371094 90.625 142.886719 87.070312 Z M 142.886719 87.070312 " fill-opacity="1" fill-rule="nonzero"/><path fill="#b40505" d="M 136.140625 75.082031 C 137.105469 72.792969 136.925781 70.324219 135.78125 68.574219 C 133.730469 68.9375 131.742188 70.503906 130.777344 72.792969 C 129.816406 75.082031 129.996094 77.550781 131.140625 79.300781 C 133.1875 78.9375 135.175781 77.371094 136.140625 75.082031 Z M 136.140625 75.082031 " fill-opacity="1" fill-rule="nonzero"/><g clip-path="url(#4a52ac3a31)"><path fill="#b40505" d="M 99.269531 73.636719 C 100.65625 72.007812 101.199219 69.601562 100.535156 67.128906 C 99.875 64.71875 98.125 62.914062 96.078125 62.25 C 94.691406 63.875 94.148438 66.285156 94.8125 68.757812 C 95.535156 71.226562 97.28125 73.035156 99.269531 73.636719 Z M 99.269531 73.636719 " fill-opacity="1" fill-rule="nonzero"/></g><path fill="#b40505" d="M 91.257812 94.242188 C 94.210938 95.082031 97.703125 94.359375 100.476562 92.011719 C 103.246094 89.660156 104.511719 86.289062 104.152344 83.277344 C 101.199219 82.433594 97.703125 83.15625 94.933594 85.503906 C 92.160156 87.855469 90.898438 91.226562 91.257812 94.242188 Z M 91.257812 94.242188 " fill-opacity="1" fill-rule="nonzero"/><path fill="#b40505" d="M 99.570312 96.53125 C 96.320312 98.15625 94.269531 101.109375 93.910156 104.121094 C 96.558594 105.625 100.175781 105.746094 103.367188 104.121094 C 106.621094 102.492188 108.667969 99.542969 109.03125 96.53125 C 106.378906 95.023438 102.824219 94.902344 99.570312 96.53125 Z M 99.570312 96.53125 " fill-opacity="1" fill-rule="nonzero"/><path fill="#b40505" d="M 90.535156 82.972656 C 93.066406 81.589844 94.632812 79.179688 94.8125 76.769531 C 92.644531 75.625 89.8125 75.625 87.28125 77.011719 C 84.75 78.394531 83.183594 80.804688 83.003906 83.214844 C 85.171875 84.359375 88.003906 84.300781 90.535156 82.972656 Z M 90.535156 82.972656 " fill-opacity="1" fill-rule="nonzero"/><path fill="#b40505" d="M 159.335938 90.324219 C 162.226562 90.144531 164.636719 88.699219 165.902344 86.589844 C 164.457031 84.660156 161.867188 83.394531 158.972656 83.578125 C 156.082031 83.757812 153.671875 85.203125 152.40625 87.3125 C 153.914062 89.238281 156.503906 90.445312 159.335938 90.324219 Z M 159.335938 90.324219 " fill-opacity="1" fill-rule="nonzero"/><path fill="#b40505" d="M 147.828125 85.023438 C 149.09375 83.816406 149.757812 81.949219 149.453125 79.902344 C 149.152344 77.855469 147.890625 76.289062 146.324219 75.5625 C 145.058594 76.769531 144.394531 78.636719 144.695312 80.683594 C 144.996094 82.734375 146.261719 84.300781 147.828125 85.023438 Z M 147.828125 85.023438 " fill-opacity="1" fill-rule="nonzero"/></svg>