<svg xmlns="http://www.w3.org/2000/svg" xmlns:xlink="http://www.w3.org/1999/xlink" width="500" zoomAndPan="magnify" viewBox="0 0 375 374.999991" height="500" preserveAspectRatio="xMidYMid meet" version="1.0"><defs><clipPath id="27004dd93f"><path d="M 187.5 0 C 83.945312 0 0 83.945312 0 187.5 C 0 291.054688 83.945312 375 187.5 375 C 291.054688 375 375 291.054688 375 187.5 C 375 83.945312 291.054688 0 187.5 0 Z M 187.5 0 " clip-rule="nonzero"/></clipPath><clipPath id="cf61b923be"><path d="M 264 134 L 337.5 134 L 337.5 200 L 264 200 Z M 264 134 " clip-rule="nonzero"/></clipPath><clipPath id="cd602b54bd"><path d="M 264 175 L 337.5 175 L 337.5 247 L 264 247 Z M 264 175 " clip-rule="nonzero"/></clipPath><clipPath id="2f24d9f606"><path d="M 226 242 L 294 242 L 294 304.125 L 226 304.125 Z M 226 242 " clip-rule="nonzero"/></clipPath><clipPath id="c799a03346"><path d="M 254 246 L 294 246 L 294 304.125 L 254 304.125 Z M 254 246 " clip-rule="nonzero"/></clipPath><clipPath id="1b37745584"><path d="M 173 70.875 L 233 70.875 L 233 115 L 173 115 Z M 173 70.875 " clip-rule="nonzero"/></clipPath><clipPath id="7876892b0c"><path d="M 130 70.875 L 227 70.875 L 227 115 L 130 115 Z M 130 70.875 " clip-rule="nonzero"/></clipPath><clipPath id="b49138009b"><path d="M 37.5 187 L 107 187 L 107 246 L 37.5 246 Z M 37.5 187 " clip-rule="nonzero"/></clipPath><clipPath id="a386c36092"><path d="M 37.5 161 L 107 161 L 107 227 L 37.5 227 Z M 37.5 161 " clip-rule="nonzero"/></clipPath></defs><g clip-path="url(#27004dd93f)"><rect x="-37.5" width="450" fill="#ffffff" y="-37.499999" height="449.999989" fill-opacity="1"/></g><g clip-path="url(#cf61b923be)"><path fill="#820606" d="M 324.75 134.363281 L 264.039062 175.914062 L 337.5 199.539062 Z M 324.75 134.363281 " fill-opacity="1" fill-rule="nonzero"/></g><g clip-path="url(#cd602b54bd)"><path fill="#545454" d="M 264.039062 175.914062 L 293.886719 246.710938 L 337.5 199.539062 Z M 264.039062 175.914062 " fill-opacity="1" fill-rule="nonzero"/></g><path fill="#b40505" d="M 285.113281 85.351562 L 278.101562 134.398438 L 324.75 134.363281 Z M 285.113281 85.351562 " fill-opacity="1" fill-rule="nonzero"/><path fill="#d9d9d9" d="M 278.101562 134.398438 L 264.039062 175.914062 L 324.75 134.363281 Z M 278.101562 134.398438 " fill-opacity="1" fill-rule="nonzero"/><g clip-path="url(#2f24d9f606)"><path fill="#000000" d="M 226.3125 242.699219 L 291.824219 304.125 L 293.886719 246.710938 Z M 226.3125 242.699219 " fill-opacity="1" fill-rule="nonzero"/></g><g clip-path="url(#c799a03346)"><path fill="#820606" d="M 293.886719 246.710938 L 254.886719 269.511719 L 291.824219 304.125 Z M 293.886719 246.710938 " fill-opacity="1" fill-rule="nonzero"/></g><path fill="#b40505" d="M 264.039062 175.914062 L 226.3125 242.699219 L 293.886719 246.710938 Z M 264.039062 175.914062 " fill-opacity="1" fill-rule="nonzero"/><path fill="#d9d9d9" d="M 226.164062 114.5625 L 278.101562 134.398438 L 285.1875 85.386719 Z M 226.164062 114.5625 " fill-opacity="1" fill-rule="nonzero"/><path fill="#820606" d="M 232.085938 72.789062 L 226.164062 114.5625 L 285.226562 85.425781 Z M 232.085938 72.789062 " fill-opacity="1" fill-rule="nonzero"/><path fill="#000000" d="M 226.164062 114.5625 L 264.039062 175.914062 L 278.101562 134.398438 Z M 226.164062 114.5625 " fill-opacity="1" fill-rule="nonzero"/><path fill="#d9d9d9" d="M 160.085938 200.511719 L 226.3125 242.699219 L 264.039062 175.914062 Z M 160.085938 200.511719 " fill-opacity="1" fill-rule="nonzero"/><path fill="#545454" d="M 226.164062 114.5625 L 191.289062 149.210938 L 264.039062 175.914062 Z M 226.164062 114.5625 " fill-opacity="1" fill-rule="nonzero"/><path fill="#820606" d="M 191.289062 149.210938 L 160.085938 200.511719 L 264.039062 175.914062 Z M 191.289062 149.210938 " fill-opacity="1" fill-rule="nonzero"/><g clip-path="url(#1b37745584)"><path fill="#b40505" d="M 173.289062 70.875 L 226.164062 114.5625 L 232.164062 72.789062 Z M 173.289062 70.875 " fill-opacity="1" fill-rule="nonzero"/></g><path fill="#000000" d="M 160.085938 200.511719 L 172.914062 267.9375 L 226.3125 242.699219 Z M 160.085938 200.511719 " fill-opacity="1" fill-rule="nonzero"/><path fill="#b40505" d="M 137.175781 137.925781 L 191.289062 149.210938 L 226.164062 114.5625 Z M 137.175781 137.925781 " fill-opacity="1" fill-rule="nonzero"/><g clip-path="url(#7876892b0c)"><path fill="#000000" d="M 173.289062 70.875 L 130.3125 93.226562 L 226.164062 114.5625 Z M 173.289062 70.875 " fill-opacity="1" fill-rule="nonzero"/></g><path fill="#d9d9d9" d="M 130.3125 93.226562 L 137.175781 137.925781 L 226.164062 114.5625 Z M 130.3125 93.226562 " fill-opacity="1" fill-rule="nonzero"/><path fill="#545454" d="M 106.125 187.273438 L 160.085938 200.511719 L 191.289062 149.210938 Z M 106.125 187.273438 " fill-opacity="1" fill-rule="nonzero"/><path fill="#000000" d="M 137.175781 137.925781 L 106.125 187.273438 L 191.289062 149.210938 Z M 137.175781 137.925781 " fill-opacity="1" fill-rule="nonzero"/><path fill="#545454" d="M 160.085938 200.511719 L 132.113281 245.0625 L 172.988281 267.9375 Z M 160.085938 200.511719 " fill-opacity="1" fill-rule="nonzero"/><path fill="#b40505" d="M 106.125 187.273438 L 132.113281 245.0625 L 160.085938 200.511719 Z M 106.125 187.273438 " fill-opacity="1" fill-rule="nonzero"/><path fill="#820606" d="M 130.3125 93.226562 L 80.585938 114.335938 L 137.175781 137.925781 Z M 130.3125 93.226562 " fill-opacity="1" fill-rule="nonzero"/><path fill="#545454" d="M 80.585938 114.335938 L 106.125 187.273438 L 137.175781 137.925781 Z M 80.585938 114.335938 " fill-opacity="1" fill-rule="nonzero"/><path fill="#820606" d="M 106.125 187.273438 L 92.511719 245.398438 L 132.113281 245.0625 Z M 106.125 187.273438 " fill-opacity="1" fill-rule="nonzero"/><g clip-path="url(#b49138009b)"><path fill="#d9d9d9" d="M 37.5 226.835938 L 92.511719 245.398438 L 106.125 187.273438 Z M 37.5 226.835938 " fill-opacity="1" fill-rule="nonzero"/></g><path fill="#b40505" d="M 80.585938 114.335938 L 42.5625 161.511719 L 106.125 187.273438 Z M 80.585938 114.335938 " fill-opacity="1" fill-rule="nonzero"/><g clip-path="url(#a386c36092)"><path fill="#000000" d="M 42.5625 161.511719 L 37.5 226.835938 L 106.125 187.273438 Z M 42.5625 161.511719 " fill-opacity="1" fill-rule="nonzero"/></g></svg>