<svg xmlns="http://www.w3.org/2000/svg" xmlns:xlink="http://www.w3.org/1999/xlink" width="1584" zoomAndPan="magnify" viewBox="0 0 1188 296.999993" height="396" preserveAspectRatio="xMidYMid meet" version="1.0"><defs><g/></defs><g fill="#000000" fill-opacity="1"><g transform="translate(68.032471, 131.189936)"><g><path d="M 11.25 -33.875 L 11.25 0 L 2.984375 0 L 2.984375 -33.875 Z M 11.25 -33.875 "/></g></g></g><g fill="#000000" fill-opacity="1"><g transform="translate(82.312152, 131.189936)"><g><path d="M 19.390625 -27.21875 C 22.546875 -27.21875 25.0625 -26.191406 26.9375 -24.140625 C 28.820312 -22.097656 29.765625 -19.296875 29.765625 -15.734375 L 29.765625 0 L 21.5625 0 L 21.5625 -14.625 C 21.5625 -16.425781 21.09375 -17.820312 20.15625 -18.8125 C 19.226562 -19.8125 17.976562 -20.3125 16.40625 -20.3125 C 14.832031 -20.3125 13.578125 -19.8125 12.640625 -18.8125 C 11.710938 -17.820312 11.25 -16.425781 11.25 -14.625 L 11.25 0 L 2.984375 0 L 2.984375 -26.921875 L 11.25 -26.921875 L 11.25 -23.359375 C 12.082031 -24.546875 13.207031 -25.484375 14.625 -26.171875 C 16.039062 -26.867188 17.628906 -27.21875 19.390625 -27.21875 Z M 19.390625 -27.21875 "/></g></g></g><g fill="#000000" fill-opacity="1"><g transform="translate(114.875565, 131.189936)"><g><path d="M 18 -7 L 18 0 L 13.796875 0 C 10.804688 0 8.472656 -0.726562 6.796875 -2.1875 C 5.128906 -3.65625 4.296875 -6.046875 4.296875 -9.359375 L 4.296875 -20.078125 L 1.015625 -20.078125 L 1.015625 -26.921875 L 4.296875 -26.921875 L 4.296875 -33.484375 L 12.546875 -33.484375 L 12.546875 -26.921875 L 17.953125 -26.921875 L 17.953125 -20.078125 L 12.546875 -20.078125 L 12.546875 -9.265625 C 12.546875 -8.460938 12.738281 -7.882812 13.125 -7.53125 C 13.507812 -7.175781 14.148438 -7 15.046875 -7 Z M 18 -7 "/></g></g></g><g fill="#000000" fill-opacity="1"><g transform="translate(134.510105, 131.189936)"><g><path d="M 28.375 -13.890625 C 28.375 -13.117188 28.320312 -12.316406 28.21875 -11.484375 L 9.546875 -11.484375 C 9.679688 -9.804688 10.222656 -8.523438 11.171875 -7.640625 C 12.117188 -6.765625 13.285156 -6.328125 14.671875 -6.328125 C 16.722656 -6.328125 18.15625 -7.191406 18.96875 -8.921875 L 27.75 -8.921875 C 27.289062 -7.148438 26.472656 -5.554688 25.296875 -4.140625 C 24.128906 -2.734375 22.660156 -1.625 20.890625 -0.8125 C 19.117188 -0.0078125 17.140625 0.390625 14.953125 0.390625 C 12.316406 0.390625 9.96875 -0.171875 7.90625 -1.296875 C 5.851562 -2.421875 4.242188 -4.03125 3.078125 -6.125 C 1.921875 -8.21875 1.34375 -10.664062 1.34375 -13.46875 C 1.34375 -16.257812 1.914062 -18.703125 3.0625 -20.796875 C 4.207031 -22.890625 5.804688 -24.5 7.859375 -25.625 C 9.921875 -26.75 12.285156 -27.3125 14.953125 -27.3125 C 17.554688 -27.3125 19.867188 -26.765625 21.890625 -25.671875 C 23.921875 -24.578125 25.507812 -23.015625 26.65625 -20.984375 C 27.800781 -18.960938 28.375 -16.597656 28.375 -13.890625 Z M 19.921875 -16.0625 C 19.921875 -17.476562 19.4375 -18.601562 18.46875 -19.4375 C 17.507812 -20.28125 16.304688 -20.703125 14.859375 -20.703125 C 13.472656 -20.703125 12.304688 -20.296875 11.359375 -19.484375 C 10.410156 -18.679688 9.828125 -17.539062 9.609375 -16.0625 Z M 19.921875 -16.0625 "/></g></g></g><g fill="#000000" fill-opacity="1"><g transform="translate(164.275489, 131.189936)"><g><path d="M 13.21875 -27.3125 C 15.113281 -27.3125 16.773438 -26.925781 18.203125 -26.15625 C 19.640625 -25.382812 20.742188 -24.367188 21.515625 -23.109375 L 21.515625 -26.921875 L 29.765625 -26.921875 L 29.765625 -0.046875 C 29.765625 2.429688 29.273438 4.675781 28.296875 6.6875 C 27.316406 8.695312 25.820312 10.296875 23.8125 11.484375 C 21.800781 12.671875 19.300781 13.265625 16.3125 13.265625 C 12.320312 13.265625 9.085938 12.320312 6.609375 10.4375 C 4.128906 8.5625 2.710938 6.015625 2.359375 2.796875 L 10.515625 2.796875 C 10.773438 3.828125 11.382812 4.640625 12.34375 5.234375 C 13.3125 5.828125 14.503906 6.125 15.921875 6.125 C 17.628906 6.125 18.988281 5.632812 20 4.65625 C 21.007812 3.675781 21.515625 2.109375 21.515625 -0.046875 L 21.515625 -3.859375 C 20.710938 -2.609375 19.601562 -1.585938 18.1875 -0.796875 C 16.769531 -0.00390625 15.113281 0.390625 13.21875 0.390625 C 11 0.390625 8.988281 -0.179688 7.1875 -1.328125 C 5.382812 -2.472656 3.957031 -4.097656 2.90625 -6.203125 C 1.863281 -8.304688 1.34375 -10.742188 1.34375 -13.515625 C 1.34375 -16.273438 1.863281 -18.703125 2.90625 -20.796875 C 3.957031 -22.890625 5.382812 -24.5 7.1875 -25.625 C 8.988281 -26.75 11 -27.3125 13.21875 -27.3125 Z M 21.515625 -13.46875 C 21.515625 -15.519531 20.941406 -17.140625 19.796875 -18.328125 C 18.660156 -19.523438 17.273438 -20.125 15.640625 -20.125 C 13.992188 -20.125 12.597656 -19.535156 11.453125 -18.359375 C 10.316406 -17.179688 9.75 -15.566406 9.75 -13.515625 C 9.75 -11.453125 10.316406 -9.816406 11.453125 -8.609375 C 12.597656 -7.398438 13.992188 -6.796875 15.640625 -6.796875 C 17.273438 -6.796875 18.660156 -7.390625 19.796875 -8.578125 C 20.941406 -9.773438 21.515625 -11.40625 21.515625 -13.46875 Z M 21.515625 -13.46875 "/></g></g></g><g fill="#000000" fill-opacity="1"><g transform="translate(197.080132, 131.189936)"><g><path d="M 11.25 -22.4375 C 12.207031 -23.914062 13.410156 -25.082031 14.859375 -25.9375 C 16.304688 -26.789062 17.914062 -27.21875 19.6875 -27.21875 L 19.6875 -18.484375 L 17.421875 -18.484375 C 15.359375 -18.484375 13.8125 -18.039062 12.78125 -17.15625 C 11.757812 -16.269531 11.25 -14.71875 11.25 -12.5 L 11.25 0 L 2.984375 0 L 2.984375 -26.921875 L 11.25 -26.921875 Z M 11.25 -22.4375 "/></g></g></g><g fill="#000000" fill-opacity="1"><g transform="translate(217.776002, 131.189936)"><g><path d="M 1.34375 -13.515625 C 1.34375 -16.273438 1.863281 -18.703125 2.90625 -20.796875 C 3.957031 -22.890625 5.382812 -24.5 7.1875 -25.625 C 8.988281 -26.75 11 -27.3125 13.21875 -27.3125 C 15.113281 -27.3125 16.773438 -26.925781 18.203125 -26.15625 C 19.640625 -25.382812 20.742188 -24.367188 21.515625 -23.109375 L 21.515625 -26.921875 L 29.765625 -26.921875 L 29.765625 0 L 21.515625 0 L 21.515625 -3.8125 C 20.710938 -2.5625 19.59375 -1.546875 18.15625 -0.765625 C 16.726562 0.00390625 15.066406 0.390625 13.171875 0.390625 C 10.984375 0.390625 8.988281 -0.179688 7.1875 -1.328125 C 5.382812 -2.472656 3.957031 -4.097656 2.90625 -6.203125 C 1.863281 -8.304688 1.34375 -10.742188 1.34375 -13.515625 Z M 21.515625 -13.46875 C 21.515625 -15.519531 20.941406 -17.140625 19.796875 -18.328125 C 18.660156 -19.523438 17.273438 -20.125 15.640625 -20.125 C 13.992188 -20.125 12.597656 -19.535156 11.453125 -18.359375 C 10.316406 -17.179688 9.75 -15.566406 9.75 -13.515625 C 9.75 -11.453125 10.316406 -9.816406 11.453125 -8.609375 C 12.597656 -7.398438 13.992188 -6.796875 15.640625 -6.796875 C 17.273438 -6.796875 18.660156 -7.390625 19.796875 -8.578125 C 20.941406 -9.773438 21.515625 -11.40625 21.515625 -13.46875 Z M 21.515625 -13.46875 "/></g></g></g><g fill="#000000" fill-opacity="1"><g transform="translate(250.580646, 131.189936)"><g><path d="M 18 -7 L 18 0 L 13.796875 0 C 10.804688 0 8.472656 -0.726562 6.796875 -2.1875 C 5.128906 -3.65625 4.296875 -6.046875 4.296875 -9.359375 L 4.296875 -20.078125 L 1.015625 -20.078125 L 1.015625 -26.921875 L 4.296875 -26.921875 L 4.296875 -33.484375 L 12.546875 -33.484375 L 12.546875 -26.921875 L 17.953125 -26.921875 L 17.953125 -20.078125 L 12.546875 -20.078125 L 12.546875 -9.265625 C 12.546875 -8.460938 12.738281 -7.882812 13.125 -7.53125 C 13.507812 -7.175781 14.148438 -7 15.046875 -7 Z M 18 -7 "/></g></g></g><g fill="#000000" fill-opacity="1"><g transform="translate(270.215191, 131.189936)"><g><path d="M 7.140625 -29.71875 C 5.691406 -29.71875 4.507812 -30.144531 3.59375 -31 C 2.675781 -31.851562 2.21875 -32.90625 2.21875 -34.15625 C 2.21875 -35.445312 2.675781 -36.515625 3.59375 -37.359375 C 4.507812 -38.210938 5.691406 -38.640625 7.140625 -38.640625 C 8.554688 -38.640625 9.722656 -38.210938 10.640625 -37.359375 C 11.554688 -36.515625 12.015625 -35.445312 12.015625 -34.15625 C 12.015625 -32.90625 11.554688 -31.851562 10.640625 -31 C 9.722656 -30.144531 8.554688 -29.71875 7.140625 -29.71875 Z M 11.25 -26.921875 L 11.25 0 L 2.984375 0 L 2.984375 -26.921875 Z M 11.25 -26.921875 "/></g></g></g><g fill="#000000" fill-opacity="1"><g transform="translate(284.494876, 131.189936)"><g><path d="M 15.109375 -7.71875 L 20.9375 -26.921875 L 29.71875 -26.921875 L 20.171875 0 L 9.984375 0 L 0.4375 -26.921875 L 9.265625 -26.921875 Z M 15.109375 -7.71875 "/></g></g></g><g fill="#000000" fill-opacity="1"><g transform="translate(314.742688, 131.189936)"><g><path d="M 28.375 -13.890625 C 28.375 -13.117188 28.320312 -12.316406 28.21875 -11.484375 L 9.546875 -11.484375 C 9.679688 -9.804688 10.222656 -8.523438 11.171875 -7.640625 C 12.117188 -6.765625 13.285156 -6.328125 14.671875 -6.328125 C 16.722656 -6.328125 18.15625 -7.191406 18.96875 -8.921875 L 27.75 -8.921875 C 27.289062 -7.148438 26.472656 -5.554688 25.296875 -4.140625 C 24.128906 -2.734375 22.660156 -1.625 20.890625 -0.8125 C 19.117188 -0.0078125 17.140625 0.390625 14.953125 0.390625 C 12.316406 0.390625 9.96875 -0.171875 7.90625 -1.296875 C 5.851562 -2.421875 4.242188 -4.03125 3.078125 -6.125 C 1.921875 -8.21875 1.34375 -10.664062 1.34375 -13.46875 C 1.34375 -16.257812 1.914062 -18.703125 3.0625 -20.796875 C 4.207031 -22.890625 5.804688 -24.5 7.859375 -25.625 C 9.921875 -26.75 12.285156 -27.3125 14.953125 -27.3125 C 17.554688 -27.3125 19.867188 -26.765625 21.890625 -25.671875 C 23.921875 -24.578125 25.507812 -23.015625 26.65625 -20.984375 C 27.800781 -18.960938 28.375 -16.597656 28.375 -13.890625 Z M 19.921875 -16.0625 C 19.921875 -17.476562 19.4375 -18.601562 18.46875 -19.4375 C 17.507812 -20.28125 16.304688 -20.703125 14.859375 -20.703125 C 13.472656 -20.703125 12.304688 -20.296875 11.359375 -19.484375 C 10.410156 -18.679688 9.828125 -17.539062 9.609375 -16.0625 Z M 19.921875 -16.0625 "/></g></g></g><g fill="#000000" fill-opacity="1"><g transform="translate(344.508078, 131.189936)"><g/></g></g><g fill="#000000" fill-opacity="1"><g transform="translate(354.783665, 131.189936)"><g><path d="M 25.046875 -33.875 L 25.046875 -27.265625 L 11.25 -27.265625 L 11.25 -20.125 L 21.5625 -20.125 L 21.5625 -13.703125 L 11.25 -13.703125 L 11.25 0 L 2.984375 0 L 2.984375 -33.875 Z M 25.046875 -33.875 "/></g></g></g><g fill="#000000" fill-opacity="1"><g transform="translate(381.220339, 131.189936)"><g><path d="M 11.25 -22.4375 C 12.207031 -23.914062 13.410156 -25.082031 14.859375 -25.9375 C 16.304688 -26.789062 17.914062 -27.21875 19.6875 -27.21875 L 19.6875 -18.484375 L 17.421875 -18.484375 C 15.359375 -18.484375 13.8125 -18.039062 12.78125 -17.15625 C 11.757812 -16.269531 11.25 -14.71875 11.25 -12.5 L 11.25 0 L 2.984375 0 L 2.984375 -26.921875 L 11.25 -26.921875 Z M 11.25 -22.4375 "/></g></g></g><g fill="#000000" fill-opacity="1"><g transform="translate(401.916209, 131.189936)"><g><path d="M 1.34375 -13.515625 C 1.34375 -16.273438 1.863281 -18.703125 2.90625 -20.796875 C 3.957031 -22.890625 5.382812 -24.5 7.1875 -25.625 C 8.988281 -26.75 11 -27.3125 13.21875 -27.3125 C 15.113281 -27.3125 16.773438 -26.925781 18.203125 -26.15625 C 19.640625 -25.382812 20.742188 -24.367188 21.515625 -23.109375 L 21.515625 -26.921875 L 29.765625 -26.921875 L 29.765625 0 L 21.515625 0 L 21.515625 -3.8125 C 20.710938 -2.5625 19.59375 -1.546875 18.15625 -0.765625 C 16.726562 0.00390625 15.066406 0.390625 13.171875 0.390625 C 10.984375 0.390625 8.988281 -0.179688 7.1875 -1.328125 C 5.382812 -2.472656 3.957031 -4.097656 2.90625 -6.203125 C 1.863281 -8.304688 1.34375 -10.742188 1.34375 -13.515625 Z M 21.515625 -13.46875 C 21.515625 -15.519531 20.941406 -17.140625 19.796875 -18.328125 C 18.660156 -19.523438 17.273438 -20.125 15.640625 -20.125 C 13.992188 -20.125 12.597656 -19.535156 11.453125 -18.359375 C 10.316406 -17.179688 9.75 -15.566406 9.75 -13.515625 C 9.75 -11.453125 10.316406 -9.816406 11.453125 -8.609375 C 12.597656 -7.398438 13.992188 -6.796875 15.640625 -6.796875 C 17.273438 -6.796875 18.660156 -7.390625 19.796875 -8.578125 C 20.941406 -9.773438 21.515625 -11.40625 21.515625 -13.46875 Z M 21.515625 -13.46875 "/></g></g></g><g fill="#000000" fill-opacity="1"><g transform="translate(434.720853, 131.189936)"><g><path d="M 37.34375 -27.21875 C 40.6875 -27.21875 43.347656 -26.203125 45.328125 -24.171875 C 47.304688 -22.148438 48.296875 -19.335938 48.296875 -15.734375 L 48.296875 0 L 40.09375 0 L 40.09375 -14.625 C 40.09375 -16.351562 39.632812 -17.691406 38.71875 -18.640625 C 37.800781 -19.597656 36.539062 -20.078125 34.9375 -20.078125 C 33.320312 -20.078125 32.054688 -19.597656 31.140625 -18.640625 C 30.222656 -17.691406 29.765625 -16.351562 29.765625 -14.625 L 29.765625 0 L 21.5625 0 L 21.5625 -14.625 C 21.5625 -16.351562 21.101562 -17.691406 20.1875 -18.640625 C 19.269531 -19.597656 18.007812 -20.078125 16.40625 -20.078125 C 14.800781 -20.078125 13.539062 -19.597656 12.625 -18.640625 C 11.707031 -17.691406 11.25 -16.351562 11.25 -14.625 L 11.25 0 L 2.984375 0 L 2.984375 -26.921875 L 11.25 -26.921875 L 11.25 -23.546875 C 12.082031 -24.671875 13.171875 -25.5625 14.515625 -26.21875 C 15.867188 -26.882812 17.398438 -27.21875 19.109375 -27.21875 C 21.128906 -27.21875 22.9375 -26.78125 24.53125 -25.90625 C 26.125 -25.039062 27.375 -23.800781 28.28125 -22.1875 C 29.207031 -23.675781 30.472656 -24.882812 32.078125 -25.8125 C 33.691406 -26.75 35.445312 -27.21875 37.34375 -27.21875 Z M 37.34375 -27.21875 "/></g></g></g><g fill="#000000" fill-opacity="1"><g transform="translate(485.857471, 131.189936)"><g><path d="M 28.375 -13.890625 C 28.375 -13.117188 28.320312 -12.316406 28.21875 -11.484375 L 9.546875 -11.484375 C 9.679688 -9.804688 10.222656 -8.523438 11.171875 -7.640625 C 12.117188 -6.765625 13.285156 -6.328125 14.671875 -6.328125 C 16.722656 -6.328125 18.15625 -7.191406 18.96875 -8.921875 L 27.75 -8.921875 C 27.289062 -7.148438 26.472656 -5.554688 25.296875 -4.140625 C 24.128906 -2.734375 22.660156 -1.625 20.890625 -0.8125 C 19.117188 -0.0078125 17.140625 0.390625 14.953125 0.390625 C 12.316406 0.390625 9.96875 -0.171875 7.90625 -1.296875 C 5.851562 -2.421875 4.242188 -4.03125 3.078125 -6.125 C 1.921875 -8.21875 1.34375 -10.664062 1.34375 -13.46875 C 1.34375 -16.257812 1.914062 -18.703125 3.0625 -20.796875 C 4.207031 -22.890625 5.804688 -24.5 7.859375 -25.625 C 9.921875 -26.75 12.285156 -27.3125 14.953125 -27.3125 C 17.554688 -27.3125 19.867188 -26.765625 21.890625 -25.671875 C 23.921875 -24.578125 25.507812 -23.015625 26.65625 -20.984375 C 27.800781 -18.960938 28.375 -16.597656 28.375 -13.890625 Z M 19.921875 -16.0625 C 19.921875 -17.476562 19.4375 -18.601562 18.46875 -19.4375 C 17.507812 -20.28125 16.304688 -20.703125 14.859375 -20.703125 C 13.472656 -20.703125 12.304688 -20.296875 11.359375 -19.484375 C 10.410156 -18.679688 9.828125 -17.539062 9.609375 -16.0625 Z M 19.921875 -16.0625 "/></g></g></g><g fill="#000000" fill-opacity="1"><g transform="translate(515.622861, 131.189936)"><g><path d="M 41.640625 -26.921875 L 34.359375 0 L 25.234375 0 L 20.984375 -17.46875 L 16.59375 0 L 7.53125 0 L 0.1875 -26.921875 L 8.4375 -26.921875 L 12.25 -7.671875 L 16.796875 -26.921875 L 25.53125 -26.921875 L 30.109375 -7.765625 L 33.875 -26.921875 Z M 41.640625 -26.921875 "/></g></g></g><g fill="#000000" fill-opacity="1"><g transform="translate(557.448736, 131.189936)"><g><path d="M 15.25 0.390625 C 12.613281 0.390625 10.238281 -0.171875 8.125 -1.296875 C 6.019531 -2.421875 4.363281 -4.03125 3.15625 -6.125 C 1.945312 -8.21875 1.34375 -10.664062 1.34375 -13.46875 C 1.34375 -16.226562 1.953125 -18.660156 3.171875 -20.765625 C 4.398438 -22.878906 6.078125 -24.5 8.203125 -25.625 C 10.328125 -26.75 12.707031 -27.3125 15.34375 -27.3125 C 17.976562 -27.3125 20.359375 -26.75 22.484375 -25.625 C 24.609375 -24.5 26.28125 -22.878906 27.5 -20.765625 C 28.726562 -18.660156 29.34375 -16.226562 29.34375 -13.46875 C 29.34375 -10.695312 28.722656 -8.253906 27.484375 -6.140625 C 26.242188 -4.035156 24.550781 -2.421875 22.40625 -1.296875 C 20.269531 -0.171875 17.882812 0.390625 15.25 0.390625 Z M 15.25 -6.75 C 16.820312 -6.75 18.160156 -7.328125 19.265625 -8.484375 C 20.378906 -9.648438 20.9375 -11.3125 20.9375 -13.46875 C 20.9375 -15.613281 20.394531 -17.265625 19.3125 -18.421875 C 18.238281 -19.585938 16.914062 -20.171875 15.34375 -20.171875 C 13.738281 -20.171875 12.40625 -19.597656 11.34375 -18.453125 C 10.28125 -17.316406 9.75 -15.65625 9.75 -13.46875 C 9.75 -11.3125 10.269531 -9.648438 11.3125 -8.484375 C 12.351562 -7.328125 13.664062 -6.75 15.25 -6.75 Z M 15.25 -6.75 "/></g></g></g><g fill="#000000" fill-opacity="1"><g transform="translate(588.227186, 131.189936)"><g><path d="M 11.25 -22.4375 C 12.207031 -23.914062 13.410156 -25.082031 14.859375 -25.9375 C 16.304688 -26.789062 17.914062 -27.21875 19.6875 -27.21875 L 19.6875 -18.484375 L 17.421875 -18.484375 C 15.359375 -18.484375 13.8125 -18.039062 12.78125 -17.15625 C 11.757812 -16.269531 11.25 -14.71875 11.25 -12.5 L 11.25 0 L 2.984375 0 L 2.984375 -26.921875 L 11.25 -26.921875 Z M 11.25 -22.4375 "/></g></g></g><g fill="#000000" fill-opacity="1"><g transform="translate(608.923056, 131.189936)"><g><path d="M 19.4375 0 L 11.25 -11.296875 L 11.25 0 L 2.984375 0 L 2.984375 -35.703125 L 11.25 -35.703125 L 11.25 -15.96875 L 19.390625 -26.921875 L 29.578125 -26.921875 L 18.390625 -13.40625 L 29.671875 0 Z M 19.4375 0 "/></g></g></g><g fill="#000000" fill-opacity="1"><g transform="translate(638.784926, 131.189936)"><g/></g></g><g fill="#000000" fill-opacity="1"><g transform="translate(649.060513, 131.189936)"><g><path d="M 15.25 0.390625 C 12.613281 0.390625 10.238281 -0.171875 8.125 -1.296875 C 6.019531 -2.421875 4.363281 -4.03125 3.15625 -6.125 C 1.945312 -8.21875 1.34375 -10.664062 1.34375 -13.46875 C 1.34375 -16.226562 1.953125 -18.660156 3.171875 -20.765625 C 4.398438 -22.878906 6.078125 -24.5 8.203125 -25.625 C 10.328125 -26.75 12.707031 -27.3125 15.34375 -27.3125 C 17.976562 -27.3125 20.359375 -26.75 22.484375 -25.625 C 24.609375 -24.5 26.28125 -22.878906 27.5 -20.765625 C 28.726562 -18.660156 29.34375 -16.226562 29.34375 -13.46875 C 29.34375 -10.695312 28.722656 -8.253906 27.484375 -6.140625 C 26.242188 -4.035156 24.550781 -2.421875 22.40625 -1.296875 C 20.269531 -0.171875 17.882812 0.390625 15.25 0.390625 Z M 15.25 -6.75 C 16.820312 -6.75 18.160156 -7.328125 19.265625 -8.484375 C 20.378906 -9.648438 20.9375 -11.3125 20.9375 -13.46875 C 20.9375 -15.613281 20.394531 -17.265625 19.3125 -18.421875 C 18.238281 -19.585938 16.914062 -20.171875 15.34375 -20.171875 C 13.738281 -20.171875 12.40625 -19.597656 11.34375 -18.453125 C 10.28125 -17.316406 9.75 -15.65625 9.75 -13.46875 C 9.75 -11.3125 10.269531 -9.648438 11.3125 -8.484375 C 12.351562 -7.328125 13.664062 -6.75 15.25 -6.75 Z M 15.25 -6.75 "/></g></g></g><g fill="#000000" fill-opacity="1"><g transform="translate(679.838963, 131.189936)"><g><path d="M 16.5 -20.078125 L 12.0625 -20.078125 L 12.0625 0 L 3.8125 0 L 3.8125 -20.078125 L 0.8125 -20.078125 L 0.8125 -26.921875 L 3.8125 -26.921875 L 3.8125 -27.703125 C 3.8125 -31.015625 4.757812 -33.53125 6.65625 -35.25 C 8.550781 -36.96875 11.332031 -37.828125 15 -37.828125 C 15.613281 -37.828125 16.066406 -37.8125 16.359375 -37.78125 L 16.359375 -30.78125 C 14.785156 -30.875 13.675781 -30.644531 13.03125 -30.09375 C 12.382812 -29.550781 12.0625 -28.578125 12.0625 -27.171875 L 12.0625 -26.921875 L 16.5 -26.921875 Z M 16.5 -20.078125 "/></g></g></g><g fill="#000000" fill-opacity="1"><g transform="translate(697.254381, 131.189936)"><g/></g></g><g fill="#000000" fill-opacity="1"><g transform="translate(707.529968, 131.189936)"><g><path d="M 11.25 -33.875 L 11.25 0 L 2.984375 0 L 2.984375 -33.875 Z M 11.25 -33.875 "/></g></g></g><g fill="#000000" fill-opacity="1"><g transform="translate(721.809629, 131.189936)"><g><path d="M 19.390625 -27.21875 C 22.546875 -27.21875 25.0625 -26.191406 26.9375 -24.140625 C 28.820312 -22.097656 29.765625 -19.296875 29.765625 -15.734375 L 29.765625 0 L 21.5625 0 L 21.5625 -14.625 C 21.5625 -16.425781 21.09375 -17.820312 20.15625 -18.8125 C 19.226562 -19.8125 17.976562 -20.3125 16.40625 -20.3125 C 14.832031 -20.3125 13.578125 -19.8125 12.640625 -18.8125 C 11.710938 -17.820312 11.25 -16.425781 11.25 -14.625 L 11.25 0 L 2.984375 0 L 2.984375 -26.921875 L 11.25 -26.921875 L 11.25 -23.359375 C 12.082031 -24.546875 13.207031 -25.484375 14.625 -26.171875 C 16.039062 -26.867188 17.628906 -27.21875 19.390625 -27.21875 Z M 19.390625 -27.21875 "/></g></g></g><g fill="#000000" fill-opacity="1"><g transform="translate(754.373026, 131.189936)"><g><path d="M 18 -7 L 18 0 L 13.796875 0 C 10.804688 0 8.472656 -0.726562 6.796875 -2.1875 C 5.128906 -3.65625 4.296875 -6.046875 4.296875 -9.359375 L 4.296875 -20.078125 L 1.015625 -20.078125 L 1.015625 -26.921875 L 4.296875 -26.921875 L 4.296875 -33.484375 L 12.546875 -33.484375 L 12.546875 -26.921875 L 17.953125 -26.921875 L 17.953125 -20.078125 L 12.546875 -20.078125 L 12.546875 -9.265625 C 12.546875 -8.460938 12.738281 -7.882812 13.125 -7.53125 C 13.507812 -7.175781 14.148438 -7 15.046875 -7 Z M 18 -7 "/></g></g></g><g fill="#000000" fill-opacity="1"><g transform="translate(774.007572, 131.189936)"><g><path d="M 28.375 -13.890625 C 28.375 -13.117188 28.320312 -12.316406 28.21875 -11.484375 L 9.546875 -11.484375 C 9.679688 -9.804688 10.222656 -8.523438 11.171875 -7.640625 C 12.117188 -6.765625 13.285156 -6.328125 14.671875 -6.328125 C 16.722656 -6.328125 18.15625 -7.191406 18.96875 -8.921875 L 27.75 -8.921875 C 27.289062 -7.148438 26.472656 -5.554688 25.296875 -4.140625 C 24.128906 -2.734375 22.660156 -1.625 20.890625 -0.8125 C 19.117188 -0.0078125 17.140625 0.390625 14.953125 0.390625 C 12.316406 0.390625 9.96875 -0.171875 7.90625 -1.296875 C 5.851562 -2.421875 4.242188 -4.03125 3.078125 -6.125 C 1.921875 -8.21875 1.34375 -10.664062 1.34375 -13.46875 C 1.34375 -16.257812 1.914062 -18.703125 3.0625 -20.796875 C 4.207031 -22.890625 5.804688 -24.5 7.859375 -25.625 C 9.921875 -26.75 12.285156 -27.3125 14.953125 -27.3125 C 17.554688 -27.3125 19.867188 -26.765625 21.890625 -25.671875 C 23.921875 -24.578125 25.507812 -23.015625 26.65625 -20.984375 C 27.800781 -18.960938 28.375 -16.597656 28.375 -13.890625 Z M 19.921875 -16.0625 C 19.921875 -17.476562 19.4375 -18.601562 18.46875 -19.4375 C 17.507812 -20.28125 16.304688 -20.703125 14.859375 -20.703125 C 13.472656 -20.703125 12.304688 -20.296875 11.359375 -19.484375 C 10.410156 -18.679688 9.828125 -17.539062 9.609375 -16.0625 Z M 19.921875 -16.0625 "/></g></g></g><g fill="#000000" fill-opacity="1"><g transform="translate(803.772961, 131.189936)"><g><path d="M 11.25 -22.4375 C 12.207031 -23.914062 13.410156 -25.082031 14.859375 -25.9375 C 16.304688 -26.789062 17.914062 -27.21875 19.6875 -27.21875 L 19.6875 -18.484375 L 17.421875 -18.484375 C 15.359375 -18.484375 13.8125 -18.039062 12.78125 -17.15625 C 11.757812 -16.269531 11.25 -14.71875 11.25 -12.5 L 11.25 0 L 2.984375 0 L 2.984375 -26.921875 L 11.25 -26.921875 Z M 11.25 -22.4375 "/></g></g></g><g fill="#000000" fill-opacity="1"><g transform="translate(824.468831, 131.189936)"><g><path d="M 1.34375 -13.515625 C 1.34375 -16.273438 1.863281 -18.703125 2.90625 -20.796875 C 3.957031 -22.890625 5.382812 -24.5 7.1875 -25.625 C 8.988281 -26.75 11 -27.3125 13.21875 -27.3125 C 14.988281 -27.3125 16.601562 -26.941406 18.0625 -26.203125 C 19.53125 -25.460938 20.679688 -24.460938 21.515625 -23.203125 L 21.515625 -35.703125 L 29.765625 -35.703125 L 29.765625 0 L 21.515625 0 L 21.515625 -3.859375 C 20.742188 -2.578125 19.640625 -1.546875 18.203125 -0.765625 C 16.773438 0.00390625 15.113281 0.390625 13.21875 0.390625 C 11 0.390625 8.988281 -0.179688 7.1875 -1.328125 C 5.382812 -2.472656 3.957031 -4.097656 2.90625 -6.203125 C 1.863281 -8.304688 1.34375 -10.742188 1.34375 -13.515625 Z M 21.515625 -13.46875 C 21.515625 -15.519531 20.941406 -17.140625 19.796875 -18.328125 C 18.660156 -19.523438 17.273438 -20.125 15.640625 -20.125 C 13.992188 -20.125 12.597656 -19.535156 11.453125 -18.359375 C 10.316406 -17.179688 9.75 -15.566406 9.75 -13.515625 C 9.75 -11.453125 10.316406 -9.816406 11.453125 -8.609375 C 12.597656 -7.398438 13.992188 -6.796875 15.640625 -6.796875 C 17.273438 -6.796875 18.660156 -7.390625 19.796875 -8.578125 C 20.941406 -9.773438 21.515625 -11.40625 21.515625 -13.46875 Z M 21.515625 -13.46875 "/></g></g></g><g fill="#000000" fill-opacity="1"><g transform="translate(857.27345, 131.189936)"><g><path d="M 7.140625 -29.71875 C 5.691406 -29.71875 4.507812 -30.144531 3.59375 -31 C 2.675781 -31.851562 2.21875 -32.90625 2.21875 -34.15625 C 2.21875 -35.445312 2.675781 -36.515625 3.59375 -37.359375 C 4.507812 -38.210938 5.691406 -38.640625 7.140625 -38.640625 C 8.554688 -38.640625 9.722656 -38.210938 10.640625 -37.359375 C 11.554688 -36.515625 12.015625 -35.445312 12.015625 -34.15625 C 12.015625 -32.90625 11.554688 -31.851562 10.640625 -31 C 9.722656 -30.144531 8.554688 -29.71875 7.140625 -29.71875 Z M 11.25 -26.921875 L 11.25 0 L 2.984375 0 L 2.984375 -26.921875 Z M 11.25 -26.921875 "/></g></g></g><g fill="#000000" fill-opacity="1"><g transform="translate(871.553111, 131.189936)"><g><path d="M 13.9375 0.390625 C 11.59375 0.390625 9.503906 -0.0078125 7.671875 -0.8125 C 5.835938 -1.625 4.390625 -2.726562 3.328125 -4.125 C 2.265625 -5.519531 1.671875 -7.085938 1.546875 -8.828125 L 9.703125 -8.828125 C 9.796875 -7.898438 10.226562 -7.144531 11 -6.5625 C 11.769531 -5.976562 12.71875 -5.6875 13.84375 -5.6875 C 14.875 -5.6875 15.671875 -5.890625 16.234375 -6.296875 C 16.796875 -6.703125 17.078125 -7.222656 17.078125 -7.859375 C 17.078125 -8.628906 16.675781 -9.195312 15.875 -9.5625 C 15.070312 -9.9375 13.769531 -10.351562 11.96875 -10.8125 C 10.039062 -11.257812 8.429688 -11.734375 7.140625 -12.234375 C 5.859375 -12.734375 4.75 -13.519531 3.8125 -14.59375 C 2.875 -15.675781 2.40625 -17.132812 2.40625 -18.96875 C 2.40625 -20.507812 2.832031 -21.914062 3.6875 -23.1875 C 4.539062 -24.457031 5.796875 -25.460938 7.453125 -26.203125 C 9.109375 -26.941406 11.078125 -27.3125 13.359375 -27.3125 C 16.742188 -27.3125 19.40625 -26.472656 21.34375 -24.796875 C 23.289062 -23.128906 24.410156 -20.910156 24.703125 -18.140625 L 17.078125 -18.140625 C 16.953125 -19.078125 16.539062 -19.816406 15.84375 -20.359375 C 15.15625 -20.910156 14.25 -21.1875 13.125 -21.1875 C 12.15625 -21.1875 11.410156 -21 10.890625 -20.625 C 10.378906 -20.257812 10.125 -19.753906 10.125 -19.109375 C 10.125 -18.335938 10.535156 -17.757812 11.359375 -17.375 C 12.179688 -16.988281 13.460938 -16.601562 15.203125 -16.21875 C 17.191406 -15.695312 18.8125 -15.1875 20.0625 -14.6875 C 21.320312 -14.1875 22.425781 -13.378906 23.375 -12.265625 C 24.320312 -11.160156 24.8125 -9.675781 24.84375 -7.8125 C 24.84375 -6.238281 24.398438 -4.832031 23.515625 -3.59375 C 22.628906 -2.351562 21.359375 -1.378906 19.703125 -0.671875 C 18.046875 0.0351562 16.125 0.390625 13.9375 0.390625 Z M 13.9375 0.390625 "/></g></g></g><g fill="#000000" fill-opacity="1"><g transform="translate(898.520398, 131.189936)"><g><path d="M 1.34375 -13.46875 C 1.34375 -16.257812 1.914062 -18.703125 3.0625 -20.796875 C 4.207031 -22.890625 5.800781 -24.5 7.84375 -25.625 C 9.882812 -26.75 12.222656 -27.3125 14.859375 -27.3125 C 18.234375 -27.3125 21.054688 -26.425781 23.328125 -24.65625 C 25.597656 -22.882812 27.085938 -20.390625 27.796875 -17.171875 L 19.015625 -17.171875 C 18.273438 -19.234375 16.84375 -20.265625 14.71875 -20.265625 C 13.207031 -20.265625 12 -19.675781 11.09375 -18.5 C 10.195312 -17.332031 9.75 -15.65625 9.75 -13.46875 C 9.75 -11.28125 10.195312 -9.597656 11.09375 -8.421875 C 12 -7.242188 13.207031 -6.65625 14.71875 -6.65625 C 16.84375 -6.65625 18.273438 -7.6875 19.015625 -9.75 L 27.796875 -9.75 C 27.085938 -6.59375 25.585938 -4.113281 23.296875 -2.3125 C 21.015625 -0.507812 18.203125 0.390625 14.859375 0.390625 C 12.222656 0.390625 9.882812 -0.171875 7.84375 -1.296875 C 5.800781 -2.421875 4.207031 -4.03125 3.0625 -6.125 C 1.914062 -8.21875 1.34375 -10.664062 1.34375 -13.46875 Z M 1.34375 -13.46875 "/></g></g></g><g fill="#000000" fill-opacity="1"><g transform="translate(927.755126, 131.189936)"><g><path d="M 7.140625 -29.71875 C 5.691406 -29.71875 4.507812 -30.144531 3.59375 -31 C 2.675781 -31.851562 2.21875 -32.90625 2.21875 -34.15625 C 2.21875 -35.445312 2.675781 -36.515625 3.59375 -37.359375 C 4.507812 -38.210938 5.691406 -38.640625 7.140625 -38.640625 C 8.554688 -38.640625 9.722656 -38.210938 10.640625 -37.359375 C 11.554688 -36.515625 12.015625 -35.445312 12.015625 -34.15625 C 12.015625 -32.90625 11.554688 -31.851562 10.640625 -31 C 9.722656 -30.144531 8.554688 -29.71875 7.140625 -29.71875 Z M 11.25 -26.921875 L 11.25 0 L 2.984375 0 L 2.984375 -26.921875 Z M 11.25 -26.921875 "/></g></g></g><g fill="#000000" fill-opacity="1"><g transform="translate(942.034787, 131.189936)"><g><path d="M 11.25 -23.109375 C 12.050781 -24.367188 13.15625 -25.382812 14.5625 -26.15625 C 15.976562 -26.925781 17.640625 -27.3125 19.546875 -27.3125 C 21.765625 -27.3125 23.773438 -26.75 25.578125 -25.625 C 27.378906 -24.5 28.800781 -22.890625 29.84375 -20.796875 C 30.882812 -18.703125 31.40625 -16.273438 31.40625 -13.515625 C 31.40625 -10.742188 30.882812 -8.304688 29.84375 -6.203125 C 28.800781 -4.097656 27.378906 -2.472656 25.578125 -1.328125 C 23.773438 -0.179688 21.765625 0.390625 19.546875 0.390625 C 17.679688 0.390625 16.03125 0.00390625 14.59375 -0.765625 C 13.164062 -1.546875 12.050781 -2.546875 11.25 -3.765625 L 11.25 12.828125 L 2.984375 12.828125 L 2.984375 -26.921875 L 11.25 -26.921875 Z M 23.015625 -13.515625 C 23.015625 -15.566406 22.441406 -17.179688 21.296875 -18.359375 C 20.160156 -19.535156 18.753906 -20.125 17.078125 -20.125 C 15.441406 -20.125 14.050781 -19.523438 12.90625 -18.328125 C 11.757812 -17.140625 11.1875 -15.519531 11.1875 -13.46875 C 11.1875 -11.40625 11.757812 -9.773438 12.90625 -8.578125 C 14.050781 -7.390625 15.441406 -6.796875 17.078125 -6.796875 C 18.722656 -6.796875 20.125 -7.398438 21.28125 -8.609375 C 22.4375 -9.816406 23.015625 -11.453125 23.015625 -13.515625 Z M 23.015625 -13.515625 "/></g></g></g><g fill="#000000" fill-opacity="1"><g transform="translate(974.839405, 131.189936)"><g><path d="M 11.25 -35.703125 L 11.25 0 L 2.984375 0 L 2.984375 -35.703125 Z M 11.25 -35.703125 "/></g></g></g><g fill="#000000" fill-opacity="1"><g transform="translate(989.119066, 131.189936)"><g><path d="M 7.140625 -29.71875 C 5.691406 -29.71875 4.507812 -30.144531 3.59375 -31 C 2.675781 -31.851562 2.21875 -32.90625 2.21875 -34.15625 C 2.21875 -35.445312 2.675781 -36.515625 3.59375 -37.359375 C 4.507812 -38.210938 5.691406 -38.640625 7.140625 -38.640625 C 8.554688 -38.640625 9.722656 -38.210938 10.640625 -37.359375 C 11.554688 -36.515625 12.015625 -35.445312 12.015625 -34.15625 C 12.015625 -32.90625 11.554688 -31.851562 10.640625 -31 C 9.722656 -30.144531 8.554688 -29.71875 7.140625 -29.71875 Z M 11.25 -26.921875 L 11.25 0 L 2.984375 0 L 2.984375 -26.921875 Z M 11.25 -26.921875 "/></g></g></g><g fill="#000000" fill-opacity="1"><g transform="translate(1003.398727, 131.189936)"><g><path d="M 19.390625 -27.21875 C 22.546875 -27.21875 25.0625 -26.191406 26.9375 -24.140625 C 28.820312 -22.097656 29.765625 -19.296875 29.765625 -15.734375 L 29.765625 0 L 21.5625 0 L 21.5625 -14.625 C 21.5625 -16.425781 21.09375 -17.820312 20.15625 -18.8125 C 19.226562 -19.8125 17.976562 -20.3125 16.40625 -20.3125 C 14.832031 -20.3125 13.578125 -19.8125 12.640625 -18.8125 C 11.710938 -17.820312 11.25 -16.425781 11.25 -14.625 L 11.25 0 L 2.984375 0 L 2.984375 -26.921875 L 11.25 -26.921875 L 11.25 -23.359375 C 12.082031 -24.546875 13.207031 -25.484375 14.625 -26.171875 C 16.039062 -26.867188 17.628906 -27.21875 19.390625 -27.21875 Z M 19.390625 -27.21875 "/></g></g></g><g fill="#000000" fill-opacity="1"><g transform="translate(1035.962171, 131.189936)"><g><path d="M 1.34375 -13.515625 C 1.34375 -16.273438 1.863281 -18.703125 2.90625 -20.796875 C 3.957031 -22.890625 5.382812 -24.5 7.1875 -25.625 C 8.988281 -26.75 11 -27.3125 13.21875 -27.3125 C 15.113281 -27.3125 16.773438 -26.925781 18.203125 -26.15625 C 19.640625 -25.382812 20.742188 -24.367188 21.515625 -23.109375 L 21.515625 -26.921875 L 29.765625 -26.921875 L 29.765625 0 L 21.515625 0 L 21.515625 -3.8125 C 20.710938 -2.5625 19.59375 -1.546875 18.15625 -0.765625 C 16.726562 0.00390625 15.066406 0.390625 13.171875 0.390625 C 10.984375 0.390625 8.988281 -0.179688 7.1875 -1.328125 C 5.382812 -2.472656 3.957031 -4.097656 2.90625 -6.203125 C 1.863281 -8.304688 1.34375 -10.742188 1.34375 -13.515625 Z M 21.515625 -13.46875 C 21.515625 -15.519531 20.941406 -17.140625 19.796875 -18.328125 C 18.660156 -19.523438 17.273438 -20.125 15.640625 -20.125 C 13.992188 -20.125 12.597656 -19.535156 11.453125 -18.359375 C 10.316406 -17.179688 9.75 -15.566406 9.75 -13.515625 C 9.75 -11.453125 10.316406 -9.816406 11.453125 -8.609375 C 12.597656 -7.398438 13.992188 -6.796875 15.640625 -6.796875 C 17.273438 -6.796875 18.660156 -7.390625 19.796875 -8.578125 C 20.941406 -9.773438 21.515625 -11.40625 21.515625 -13.46875 Z M 21.515625 -13.46875 "/></g></g></g><g fill="#000000" fill-opacity="1"><g transform="translate(1068.766789, 131.189936)"><g><path d="M 11.25 -22.4375 C 12.207031 -23.914062 13.410156 -25.082031 14.859375 -25.9375 C 16.304688 -26.789062 17.914062 -27.21875 19.6875 -27.21875 L 19.6875 -18.484375 L 17.421875 -18.484375 C 15.359375 -18.484375 13.8125 -18.039062 12.78125 -17.15625 C 11.757812 -16.269531 11.25 -14.71875 11.25 -12.5 L 11.25 0 L 2.984375 0 L 2.984375 -26.921875 L 11.25 -26.921875 Z M 11.25 -22.4375 "/></g></g></g><g fill="#000000" fill-opacity="1"><g transform="translate(1089.462611, 131.189936)"><g><path d="M 30.5 -26.921875 L 13.609375 12.78125 L 4.734375 12.78125 L 10.90625 -0.921875 L -0.046875 -26.921875 L 9.171875 -26.921875 L 15.390625 -10.078125 L 21.5625 -26.921875 Z M 30.5 -26.921875 "/></g></g></g><g fill="#000000" fill-opacity="1"><g transform="translate(111.528899, 197.282869)"><g><path d="M 20.265625 0 L 13.21875 -12.78125 L 11.25 -12.78125 L 11.25 0 L 2.984375 0 L 2.984375 -33.875 L 16.84375 -33.875 C 19.507812 -33.875 21.78125 -33.40625 23.65625 -32.46875 C 25.539062 -31.539062 26.945312 -30.265625 27.875 -28.640625 C 28.8125 -27.015625 29.28125 -25.203125 29.28125 -23.203125 C 29.28125 -20.953125 28.644531 -18.941406 27.375 -17.171875 C 26.101562 -15.398438 24.234375 -14.144531 21.765625 -13.40625 L 29.578125 0 Z M 11.25 -18.625 L 16.359375 -18.625 C 17.867188 -18.625 19 -18.992188 19.75 -19.734375 C 20.507812 -20.472656 20.890625 -21.519531 20.890625 -22.875 C 20.890625 -24.15625 20.507812 -25.164062 19.75 -25.90625 C 19 -26.644531 17.867188 -27.015625 16.359375 -27.015625 L 11.25 -27.015625 Z M 11.25 -18.625 "/></g></g></g><g fill="#000000" fill-opacity="1"><g transform="translate(143.030989, 197.282869)"><g><path d="M 28.375 -13.890625 C 28.375 -13.117188 28.320312 -12.316406 28.21875 -11.484375 L 9.546875 -11.484375 C 9.679688 -9.804688 10.222656 -8.523438 11.171875 -7.640625 C 12.117188 -6.765625 13.285156 -6.328125 14.671875 -6.328125 C 16.722656 -6.328125 18.15625 -7.191406 18.96875 -8.921875 L 27.75 -8.921875 C 27.289062 -7.148438 26.472656 -5.554688 25.296875 -4.140625 C 24.128906 -2.734375 22.660156 -1.625 20.890625 -0.8125 C 19.117188 -0.0078125 17.140625 0.390625 14.953125 0.390625 C 12.316406 0.390625 9.96875 -0.171875 7.90625 -1.296875 C 5.851562 -2.421875 4.242188 -4.03125 3.078125 -6.125 C 1.921875 -8.21875 1.34375 -10.664062 1.34375 -13.46875 C 1.34375 -16.257812 1.914062 -18.703125 3.0625 -20.796875 C 4.207031 -22.890625 5.804688 -24.5 7.859375 -25.625 C 9.921875 -26.75 12.285156 -27.3125 14.953125 -27.3125 C 17.554688 -27.3125 19.867188 -26.765625 21.890625 -25.671875 C 23.921875 -24.578125 25.507812 -23.015625 26.65625 -20.984375 C 27.800781 -18.960938 28.375 -16.597656 28.375 -13.890625 Z M 19.921875 -16.0625 C 19.921875 -17.476562 19.4375 -18.601562 18.46875 -19.4375 C 17.507812 -20.28125 16.304688 -20.703125 14.859375 -20.703125 C 13.472656 -20.703125 12.304688 -20.296875 11.359375 -19.484375 C 10.410156 -18.679688 9.828125 -17.539062 9.609375 -16.0625 Z M 19.921875 -16.0625 "/></g></g></g><g fill="#000000" fill-opacity="1"><g transform="translate(172.796373, 197.282869)"><g><path d="M 13.9375 0.390625 C 11.59375 0.390625 9.503906 -0.0078125 7.671875 -0.8125 C 5.835938 -1.625 4.390625 -2.726562 3.328125 -4.125 C 2.265625 -5.519531 1.671875 -7.085938 1.546875 -8.828125 L 9.703125 -8.828125 C 9.796875 -7.898438 10.226562 -7.144531 11 -6.5625 C 11.769531 -5.976562 12.71875 -5.6875 13.84375 -5.6875 C 14.875 -5.6875 15.671875 -5.890625 16.234375 -6.296875 C 16.796875 -6.703125 17.078125 -7.222656 17.078125 -7.859375 C 17.078125 -8.628906 16.675781 -9.195312 15.875 -9.5625 C 15.070312 -9.9375 13.769531 -10.351562 11.96875 -10.8125 C 10.039062 -11.257812 8.429688 -11.734375 7.140625 -12.234375 C 5.859375 -12.734375 4.75 -13.519531 3.8125 -14.59375 C 2.875 -15.675781 2.40625 -17.132812 2.40625 -18.96875 C 2.40625 -20.507812 2.832031 -21.914062 3.6875 -23.1875 C 4.539062 -24.457031 5.796875 -25.460938 7.453125 -26.203125 C 9.109375 -26.941406 11.078125 -27.3125 13.359375 -27.3125 C 16.742188 -27.3125 19.40625 -26.472656 21.34375 -24.796875 C 23.289062 -23.128906 24.410156 -20.910156 24.703125 -18.140625 L 17.078125 -18.140625 C 16.953125 -19.078125 16.539062 -19.816406 15.84375 -20.359375 C 15.15625 -20.910156 14.25 -21.1875 13.125 -21.1875 C 12.15625 -21.1875 11.410156 -21 10.890625 -20.625 C 10.378906 -20.257812 10.125 -19.753906 10.125 -19.109375 C 10.125 -18.335938 10.535156 -17.757812 11.359375 -17.375 C 12.179688 -16.988281 13.460938 -16.601562 15.203125 -16.21875 C 17.191406 -15.695312 18.8125 -15.1875 20.0625 -14.6875 C 21.320312 -14.1875 22.425781 -13.378906 23.375 -12.265625 C 24.320312 -11.160156 24.8125 -9.675781 24.84375 -7.8125 C 24.84375 -6.238281 24.398438 -4.832031 23.515625 -3.59375 C 22.628906 -2.351562 21.359375 -1.378906 19.703125 -0.671875 C 18.046875 0.0351562 16.125 0.390625 13.9375 0.390625 Z M 13.9375 0.390625 "/></g></g></g><g fill="#000000" fill-opacity="1"><g transform="translate(199.763702, 197.282869)"><g><path d="M 28.375 -13.890625 C 28.375 -13.117188 28.320312 -12.316406 28.21875 -11.484375 L 9.546875 -11.484375 C 9.679688 -9.804688 10.222656 -8.523438 11.171875 -7.640625 C 12.117188 -6.765625 13.285156 -6.328125 14.671875 -6.328125 C 16.722656 -6.328125 18.15625 -7.191406 18.96875 -8.921875 L 27.75 -8.921875 C 27.289062 -7.148438 26.472656 -5.554688 25.296875 -4.140625 C 24.128906 -2.734375 22.660156 -1.625 20.890625 -0.8125 C 19.117188 -0.0078125 17.140625 0.390625 14.953125 0.390625 C 12.316406 0.390625 9.96875 -0.171875 7.90625 -1.296875 C 5.851562 -2.421875 4.242188 -4.03125 3.078125 -6.125 C 1.921875 -8.21875 1.34375 -10.664062 1.34375 -13.46875 C 1.34375 -16.257812 1.914062 -18.703125 3.0625 -20.796875 C 4.207031 -22.890625 5.804688 -24.5 7.859375 -25.625 C 9.921875 -26.75 12.285156 -27.3125 14.953125 -27.3125 C 17.554688 -27.3125 19.867188 -26.765625 21.890625 -25.671875 C 23.921875 -24.578125 25.507812 -23.015625 26.65625 -20.984375 C 27.800781 -18.960938 28.375 -16.597656 28.375 -13.890625 Z M 19.921875 -16.0625 C 19.921875 -17.476562 19.4375 -18.601562 18.46875 -19.4375 C 17.507812 -20.28125 16.304688 -20.703125 14.859375 -20.703125 C 13.472656 -20.703125 12.304688 -20.296875 11.359375 -19.484375 C 10.410156 -18.679688 9.828125 -17.539062 9.609375 -16.0625 Z M 19.921875 -16.0625 "/></g></g></g><g fill="#000000" fill-opacity="1"><g transform="translate(229.529086, 197.282869)"><g><path d="M 1.34375 -13.515625 C 1.34375 -16.273438 1.863281 -18.703125 2.90625 -20.796875 C 3.957031 -22.890625 5.382812 -24.5 7.1875 -25.625 C 8.988281 -26.75 11 -27.3125 13.21875 -27.3125 C 15.113281 -27.3125 16.773438 -26.925781 18.203125 -26.15625 C 19.640625 -25.382812 20.742188 -24.367188 21.515625 -23.109375 L 21.515625 -26.921875 L 29.765625 -26.921875 L 29.765625 0 L 21.515625 0 L 21.515625 -3.8125 C 20.710938 -2.5625 19.59375 -1.546875 18.15625 -0.765625 C 16.726562 0.00390625 15.066406 0.390625 13.171875 0.390625 C 10.984375 0.390625 8.988281 -0.179688 7.1875 -1.328125 C 5.382812 -2.472656 3.957031 -4.097656 2.90625 -6.203125 C 1.863281 -8.304688 1.34375 -10.742188 1.34375 -13.515625 Z M 21.515625 -13.46875 C 21.515625 -15.519531 20.941406 -17.140625 19.796875 -18.328125 C 18.660156 -19.523438 17.273438 -20.125 15.640625 -20.125 C 13.992188 -20.125 12.597656 -19.535156 11.453125 -18.359375 C 10.316406 -17.179688 9.75 -15.566406 9.75 -13.515625 C 9.75 -11.453125 10.316406 -9.816406 11.453125 -8.609375 C 12.597656 -7.398438 13.992188 -6.796875 15.640625 -6.796875 C 17.273438 -6.796875 18.660156 -7.390625 19.796875 -8.578125 C 20.941406 -9.773438 21.515625 -11.40625 21.515625 -13.46875 Z M 21.515625 -13.46875 "/></g></g></g><g fill="#000000" fill-opacity="1"><g transform="translate(262.333729, 197.282869)"><g><path d="M 11.25 -22.4375 C 12.207031 -23.914062 13.410156 -25.082031 14.859375 -25.9375 C 16.304688 -26.789062 17.914062 -27.21875 19.6875 -27.21875 L 19.6875 -18.484375 L 17.421875 -18.484375 C 15.359375 -18.484375 13.8125 -18.039062 12.78125 -17.15625 C 11.757812 -16.269531 11.25 -14.71875 11.25 -12.5 L 11.25 0 L 2.984375 0 L 2.984375 -26.921875 L 11.25 -26.921875 Z M 11.25 -22.4375 "/></g></g></g><g fill="#000000" fill-opacity="1"><g transform="translate(283.029599, 197.282869)"><g><path d="M 1.34375 -13.46875 C 1.34375 -16.257812 1.914062 -18.703125 3.0625 -20.796875 C 4.207031 -22.890625 5.800781 -24.5 7.84375 -25.625 C 9.882812 -26.75 12.222656 -27.3125 14.859375 -27.3125 C 18.234375 -27.3125 21.054688 -26.425781 23.328125 -24.65625 C 25.597656 -22.882812 27.085938 -20.390625 27.796875 -17.171875 L 19.015625 -17.171875 C 18.273438 -19.234375 16.84375 -20.265625 14.71875 -20.265625 C 13.207031 -20.265625 12 -19.675781 11.09375 -18.5 C 10.195312 -17.332031 9.75 -15.65625 9.75 -13.46875 C 9.75 -11.28125 10.195312 -9.597656 11.09375 -8.421875 C 12 -7.242188 13.207031 -6.65625 14.71875 -6.65625 C 16.84375 -6.65625 18.273438 -7.6875 19.015625 -9.75 L 27.796875 -9.75 C 27.085938 -6.59375 25.585938 -4.113281 23.296875 -2.3125 C 21.015625 -0.507812 18.203125 0.390625 14.859375 0.390625 C 12.222656 0.390625 9.882812 -0.171875 7.84375 -1.296875 C 5.800781 -2.421875 4.207031 -4.03125 3.0625 -6.125 C 1.914062 -8.21875 1.34375 -10.664062 1.34375 -13.46875 Z M 1.34375 -13.46875 "/></g></g></g><g fill="#000000" fill-opacity="1"><g transform="translate(312.264327, 197.282869)"><g><path d="M 19.546875 -27.21875 C 22.628906 -27.21875 25.101562 -26.191406 26.96875 -24.140625 C 28.832031 -22.097656 29.765625 -19.296875 29.765625 -15.734375 L 29.765625 0 L 21.5625 0 L 21.5625 -14.625 C 21.5625 -16.425781 21.09375 -17.820312 20.15625 -18.8125 C 19.226562 -19.8125 17.976562 -20.3125 16.40625 -20.3125 C 14.832031 -20.3125 13.578125 -19.8125 12.640625 -18.8125 C 11.710938 -17.820312 11.25 -16.425781 11.25 -14.625 L 11.25 0 L 2.984375 0 L 2.984375 -35.703125 L 11.25 -35.703125 L 11.25 -23.3125 C 12.082031 -24.5 13.222656 -25.445312 14.671875 -26.15625 C 16.117188 -26.863281 17.742188 -27.21875 19.546875 -27.21875 Z M 19.546875 -27.21875 "/></g></g></g><g fill="#000000" fill-opacity="1"><g transform="translate(344.827747, 197.282869)"><g/></g></g><g fill="#000000" fill-opacity="1"><g transform="translate(355.103335, 197.282869)"><g><path d="M 7.140625 -29.71875 C 5.691406 -29.71875 4.507812 -30.144531 3.59375 -31 C 2.675781 -31.851562 2.21875 -32.90625 2.21875 -34.15625 C 2.21875 -35.445312 2.675781 -36.515625 3.59375 -37.359375 C 4.507812 -38.210938 5.691406 -38.640625 7.140625 -38.640625 C 8.554688 -38.640625 9.722656 -38.210938 10.640625 -37.359375 C 11.554688 -36.515625 12.015625 -35.445312 12.015625 -34.15625 C 12.015625 -32.90625 11.554688 -31.851562 10.640625 -31 C 9.722656 -30.144531 8.554688 -29.71875 7.140625 -29.71875 Z M 11.25 -26.921875 L 11.25 0 L 2.984375 0 L 2.984375 -26.921875 Z M 11.25 -26.921875 "/></g></g></g><g fill="#000000" fill-opacity="1"><g transform="translate(369.38302, 197.282869)"><g><path d="M 19.390625 -27.21875 C 22.546875 -27.21875 25.0625 -26.191406 26.9375 -24.140625 C 28.820312 -22.097656 29.765625 -19.296875 29.765625 -15.734375 L 29.765625 0 L 21.5625 0 L 21.5625 -14.625 C 21.5625 -16.425781 21.09375 -17.820312 20.15625 -18.8125 C 19.226562 -19.8125 17.976562 -20.3125 16.40625 -20.3125 C 14.832031 -20.3125 13.578125 -19.8125 12.640625 -18.8125 C 11.710938 -17.820312 11.25 -16.425781 11.25 -14.625 L 11.25 0 L 2.984375 0 L 2.984375 -26.921875 L 11.25 -26.921875 L 11.25 -23.359375 C 12.082031 -24.546875 13.207031 -25.484375 14.625 -26.171875 C 16.039062 -26.867188 17.628906 -27.21875 19.390625 -27.21875 Z M 19.390625 -27.21875 "/></g></g></g><g fill="#000000" fill-opacity="1"><g transform="translate(401.946439, 197.282869)"><g/></g></g><g fill="#000000" fill-opacity="1"><g transform="translate(412.222027, 197.282869)"><g><path d="M 23.5 -17.375 C 25.457031 -16.957031 27.03125 -15.984375 28.21875 -14.453125 C 29.414062 -12.921875 30.015625 -11.175781 30.015625 -9.21875 C 30.015625 -6.382812 29.023438 -4.140625 27.046875 -2.484375 C 25.066406 -0.828125 22.304688 0 18.765625 0 L 2.984375 0 L 2.984375 -33.875 L 18.234375 -33.875 C 21.679688 -33.875 24.375 -33.082031 26.3125 -31.5 C 28.257812 -29.925781 29.234375 -27.789062 29.234375 -25.09375 C 29.234375 -23.09375 28.710938 -21.429688 27.671875 -20.109375 C 26.628906 -18.796875 25.238281 -17.882812 23.5 -17.375 Z M 11.25 -20.171875 L 16.640625 -20.171875 C 17.992188 -20.171875 19.03125 -20.46875 19.75 -21.0625 C 20.476562 -21.65625 20.84375 -22.53125 20.84375 -23.6875 C 20.84375 -24.84375 20.476562 -25.726562 19.75 -26.34375 C 19.03125 -26.957031 17.992188 -27.265625 16.640625 -27.265625 L 11.25 -27.265625 Z M 17.328125 -6.65625 C 18.703125 -6.65625 19.769531 -6.96875 20.53125 -7.59375 C 21.289062 -8.226562 21.671875 -9.140625 21.671875 -10.328125 C 21.671875 -11.515625 21.273438 -12.445312 20.484375 -13.125 C 19.691406 -13.800781 18.601562 -14.140625 17.21875 -14.140625 L 11.25 -14.140625 L 11.25 -6.65625 Z M 17.328125 -6.65625 "/></g></g></g><g fill="#000000" fill-opacity="1"><g transform="translate(444.061825, 197.282869)"><g><path d="M 11.25 -22.4375 C 12.207031 -23.914062 13.410156 -25.082031 14.859375 -25.9375 C 16.304688 -26.789062 17.914062 -27.21875 19.6875 -27.21875 L 19.6875 -18.484375 L 17.421875 -18.484375 C 15.359375 -18.484375 13.8125 -18.039062 12.78125 -17.15625 C 11.757812 -16.269531 11.25 -14.71875 11.25 -12.5 L 11.25 0 L 2.984375 0 L 2.984375 -26.921875 L 11.25 -26.921875 Z M 11.25 -22.4375 "/></g></g></g><g fill="#000000" fill-opacity="1"><g transform="translate(464.757695, 197.282869)"><g><path d="M 1.34375 -13.515625 C 1.34375 -16.273438 1.863281 -18.703125 2.90625 -20.796875 C 3.957031 -22.890625 5.382812 -24.5 7.1875 -25.625 C 8.988281 -26.75 11 -27.3125 13.21875 -27.3125 C 15.113281 -27.3125 16.773438 -26.925781 18.203125 -26.15625 C 19.640625 -25.382812 20.742188 -24.367188 21.515625 -23.109375 L 21.515625 -26.921875 L 29.765625 -26.921875 L 29.765625 0 L 21.515625 0 L 21.515625 -3.8125 C 20.710938 -2.5625 19.59375 -1.546875 18.15625 -0.765625 C 16.726562 0.00390625 15.066406 0.390625 13.171875 0.390625 C 10.984375 0.390625 8.988281 -0.179688 7.1875 -1.328125 C 5.382812 -2.472656 3.957031 -4.097656 2.90625 -6.203125 C 1.863281 -8.304688 1.34375 -10.742188 1.34375 -13.515625 Z M 21.515625 -13.46875 C 21.515625 -15.519531 20.941406 -17.140625 19.796875 -18.328125 C 18.660156 -19.523438 17.273438 -20.125 15.640625 -20.125 C 13.992188 -20.125 12.597656 -19.535156 11.453125 -18.359375 C 10.316406 -17.179688 9.75 -15.566406 9.75 -13.515625 C 9.75 -11.453125 10.316406 -9.816406 11.453125 -8.609375 C 12.597656 -7.398438 13.992188 -6.796875 15.640625 -6.796875 C 17.273438 -6.796875 18.660156 -7.390625 19.796875 -8.578125 C 20.941406 -9.773438 21.515625 -11.40625 21.515625 -13.46875 Z M 21.515625 -13.46875 "/></g></g></g><g fill="#000000" fill-opacity="1"><g transform="translate(497.562339, 197.282869)"><g><path d="M 7.140625 -29.71875 C 5.691406 -29.71875 4.507812 -30.144531 3.59375 -31 C 2.675781 -31.851562 2.21875 -32.90625 2.21875 -34.15625 C 2.21875 -35.445312 2.675781 -36.515625 3.59375 -37.359375 C 4.507812 -38.210938 5.691406 -38.640625 7.140625 -38.640625 C 8.554688 -38.640625 9.722656 -38.210938 10.640625 -37.359375 C 11.554688 -36.515625 12.015625 -35.445312 12.015625 -34.15625 C 12.015625 -32.90625 11.554688 -31.851562 10.640625 -31 C 9.722656 -30.144531 8.554688 -29.71875 7.140625 -29.71875 Z M 11.25 -26.921875 L 11.25 0 L 2.984375 0 L 2.984375 -26.921875 Z M 11.25 -26.921875 "/></g></g></g><g fill="#000000" fill-opacity="1"><g transform="translate(511.842024, 197.282869)"><g><path d="M 19.390625 -27.21875 C 22.546875 -27.21875 25.0625 -26.191406 26.9375 -24.140625 C 28.820312 -22.097656 29.765625 -19.296875 29.765625 -15.734375 L 29.765625 0 L 21.5625 0 L 21.5625 -14.625 C 21.5625 -16.425781 21.09375 -17.820312 20.15625 -18.8125 C 19.226562 -19.8125 17.976562 -20.3125 16.40625 -20.3125 C 14.832031 -20.3125 13.578125 -19.8125 12.640625 -18.8125 C 11.710938 -17.820312 11.25 -16.425781 11.25 -14.625 L 11.25 0 L 2.984375 0 L 2.984375 -26.921875 L 11.25 -26.921875 L 11.25 -23.359375 C 12.082031 -24.546875 13.207031 -25.484375 14.625 -26.171875 C 16.039062 -26.867188 17.628906 -27.21875 19.390625 -27.21875 Z M 19.390625 -27.21875 "/></g></g></g><g fill="#000000" fill-opacity="1"><g transform="translate(544.405444, 197.282869)"><g/></g></g><g fill="#000000" fill-opacity="1"><g transform="translate(554.681031, 197.282869)"><g><path d="M 28.90625 0 L 25.765625 -3.046875 C 22.640625 -0.660156 18.910156 0.53125 14.578125 0.53125 C 11.960938 0.53125 9.691406 0.101562 7.765625 -0.75 C 5.835938 -1.601562 4.347656 -2.804688 3.296875 -4.359375 C 2.253906 -5.921875 1.734375 -7.75 1.734375 -9.84375 C 1.734375 -11.96875 2.300781 -13.890625 3.4375 -15.609375 C 4.582031 -17.328125 6.300781 -18.734375 8.59375 -19.828125 C 7.75 -20.859375 7.148438 -21.847656 6.796875 -22.796875 C 6.441406 -23.742188 6.265625 -24.78125 6.265625 -25.90625 C 6.265625 -27.519531 6.679688 -28.984375 7.515625 -30.296875 C 8.359375 -31.617188 9.578125 -32.65625 11.171875 -33.40625 C 12.765625 -34.164062 14.65625 -34.546875 16.84375 -34.546875 C 19.0625 -34.546875 20.941406 -34.144531 22.484375 -33.34375 C 24.023438 -32.539062 25.179688 -31.460938 25.953125 -30.109375 C 26.722656 -28.753906 27.078125 -27.273438 27.015625 -25.671875 L 19.25 -25.671875 C 19.28125 -26.535156 19.0625 -27.203125 18.59375 -27.671875 C 18.132812 -28.140625 17.519531 -28.375 16.75 -28.375 C 15.96875 -28.375 15.320312 -28.144531 14.8125 -27.6875 C 14.300781 -27.238281 14.046875 -26.660156 14.046875 -25.953125 C 14.046875 -25.273438 14.257812 -24.566406 14.6875 -23.828125 C 15.125 -23.085938 15.8125 -22.238281 16.75 -21.28125 L 25 -13.21875 C 25.0625 -13.382812 25.144531 -13.578125 25.25 -13.796875 C 25.363281 -14.023438 25.488281 -14.285156 25.625 -14.578125 L 27.40625 -17.609375 L 35.65625 -17.609375 L 33.34375 -13.40625 C 32.46875 -11.507812 31.46875 -9.710938 30.34375 -8.015625 L 38.5 0 Z M 14.953125 -6.125 C 17.109375 -6.125 19.023438 -6.738281 20.703125 -7.96875 L 13.171875 -15.25 C 10.859375 -14.0625 9.703125 -12.453125 9.703125 -10.421875 C 9.703125 -9.203125 10.175781 -8.179688 11.125 -7.359375 C 12.070312 -6.535156 13.347656 -6.125 14.953125 -6.125 Z M 14.953125 -6.125 "/></g></g></g><g fill="#000000" fill-opacity="1"><g transform="translate(593.226453, 197.282869)"><g/></g></g><g fill="#000000" fill-opacity="1"><g transform="translate(603.50204, 197.282869)"><g><path d="M 1.59375 -16.984375 C 1.59375 -20.328125 2.316406 -23.304688 3.765625 -25.921875 C 5.210938 -28.546875 7.226562 -30.585938 9.8125 -32.046875 C 12.40625 -33.515625 15.34375 -34.25 18.625 -34.25 C 22.644531 -34.25 26.085938 -33.1875 28.953125 -31.0625 C 31.816406 -28.945312 33.726562 -26.054688 34.6875 -22.390625 L 25.625 -22.390625 C 24.945312 -23.804688 23.988281 -24.882812 22.75 -25.625 C 21.507812 -26.363281 20.101562 -26.734375 18.53125 -26.734375 C 15.988281 -26.734375 13.925781 -25.847656 12.34375 -24.078125 C 10.769531 -22.304688 9.984375 -19.941406 9.984375 -16.984375 C 9.984375 -14.023438 10.769531 -11.660156 12.34375 -9.890625 C 13.925781 -8.117188 15.988281 -7.234375 18.53125 -7.234375 C 20.101562 -7.234375 21.507812 -7.601562 22.75 -8.34375 C 23.988281 -9.082031 24.945312 -10.160156 25.625 -11.578125 L 34.6875 -11.578125 C 33.726562 -7.910156 31.816406 -5.023438 28.953125 -2.921875 C 26.085938 -0.816406 22.644531 0.234375 18.625 0.234375 C 15.34375 0.234375 12.40625 -0.492188 9.8125 -1.953125 C 7.226562 -3.421875 5.210938 -5.457031 3.765625 -8.0625 C 2.316406 -10.664062 1.59375 -13.640625 1.59375 -16.984375 Z M 1.59375 -16.984375 "/></g></g></g><g fill="#000000" fill-opacity="1"><g transform="translate(640.310734, 197.282869)"><g><path d="M 15.25 0.390625 C 12.613281 0.390625 10.238281 -0.171875 8.125 -1.296875 C 6.019531 -2.421875 4.363281 -4.03125 3.15625 -6.125 C 1.945312 -8.21875 1.34375 -10.664062 1.34375 -13.46875 C 1.34375 -16.226562 1.953125 -18.660156 3.171875 -20.765625 C 4.398438 -22.878906 6.078125 -24.5 8.203125 -25.625 C 10.328125 -26.75 12.707031 -27.3125 15.34375 -27.3125 C 17.976562 -27.3125 20.359375 -26.75 22.484375 -25.625 C 24.609375 -24.5 26.28125 -22.878906 27.5 -20.765625 C 28.726562 -18.660156 29.34375 -16.226562 29.34375 -13.46875 C 29.34375 -10.695312 28.722656 -8.253906 27.484375 -6.140625 C 26.242188 -4.035156 24.550781 -2.421875 22.40625 -1.296875 C 20.269531 -0.171875 17.882812 0.390625 15.25 0.390625 Z M 15.25 -6.75 C 16.820312 -6.75 18.160156 -7.328125 19.265625 -8.484375 C 20.378906 -9.648438 20.9375 -11.3125 20.9375 -13.46875 C 20.9375 -15.613281 20.394531 -17.265625 19.3125 -18.421875 C 18.238281 -19.585938 16.914062 -20.171875 15.34375 -20.171875 C 13.738281 -20.171875 12.40625 -19.597656 11.34375 -18.453125 C 10.28125 -17.316406 9.75 -15.65625 9.75 -13.46875 C 9.75 -11.3125 10.269531 -9.648438 11.3125 -8.484375 C 12.351562 -7.328125 13.664062 -6.75 15.25 -6.75 Z M 15.25 -6.75 "/></g></g></g><g fill="#000000" fill-opacity="1"><g transform="translate(671.089183, 197.282869)"><g><path d="M 13.21875 -27.3125 C 15.113281 -27.3125 16.773438 -26.925781 18.203125 -26.15625 C 19.640625 -25.382812 20.742188 -24.367188 21.515625 -23.109375 L 21.515625 -26.921875 L 29.765625 -26.921875 L 29.765625 -0.046875 C 29.765625 2.429688 29.273438 4.675781 28.296875 6.6875 C 27.316406 8.695312 25.820312 10.296875 23.8125 11.484375 C 21.800781 12.671875 19.300781 13.265625 16.3125 13.265625 C 12.320312 13.265625 9.085938 12.320312 6.609375 10.4375 C 4.128906 8.5625 2.710938 6.015625 2.359375 2.796875 L 10.515625 2.796875 C 10.773438 3.828125 11.382812 4.640625 12.34375 5.234375 C 13.3125 5.828125 14.503906 6.125 15.921875 6.125 C 17.628906 6.125 18.988281 5.632812 20 4.65625 C 21.007812 3.675781 21.515625 2.109375 21.515625 -0.046875 L 21.515625 -3.859375 C 20.710938 -2.609375 19.601562 -1.585938 18.1875 -0.796875 C 16.769531 -0.00390625 15.113281 0.390625 13.21875 0.390625 C 11 0.390625 8.988281 -0.179688 7.1875 -1.328125 C 5.382812 -2.472656 3.957031 -4.097656 2.90625 -6.203125 C 1.863281 -8.304688 1.34375 -10.742188 1.34375 -13.515625 C 1.34375 -16.273438 1.863281 -18.703125 2.90625 -20.796875 C 3.957031 -22.890625 5.382812 -24.5 7.1875 -25.625 C 8.988281 -26.75 11 -27.3125 13.21875 -27.3125 Z M 21.515625 -13.46875 C 21.515625 -15.519531 20.941406 -17.140625 19.796875 -18.328125 C 18.660156 -19.523438 17.273438 -20.125 15.640625 -20.125 C 13.992188 -20.125 12.597656 -19.535156 11.453125 -18.359375 C 10.316406 -17.179688 9.75 -15.566406 9.75 -13.515625 C 9.75 -11.453125 10.316406 -9.816406 11.453125 -8.609375 C 12.597656 -7.398438 13.992188 -6.796875 15.640625 -6.796875 C 17.273438 -6.796875 18.660156 -7.390625 19.796875 -8.578125 C 20.941406 -9.773438 21.515625 -11.40625 21.515625 -13.46875 Z M 21.515625 -13.46875 "/></g></g></g><g fill="#000000" fill-opacity="1"><g transform="translate(703.893802, 197.282869)"><g><path d="M 19.390625 -27.21875 C 22.546875 -27.21875 25.0625 -26.191406 26.9375 -24.140625 C 28.820312 -22.097656 29.765625 -19.296875 29.765625 -15.734375 L 29.765625 0 L 21.5625 0 L 21.5625 -14.625 C 21.5625 -16.425781 21.09375 -17.820312 20.15625 -18.8125 C 19.226562 -19.8125 17.976562 -20.3125 16.40625 -20.3125 C 14.832031 -20.3125 13.578125 -19.8125 12.640625 -18.8125 C 11.710938 -17.820312 11.25 -16.425781 11.25 -14.625 L 11.25 0 L 2.984375 0 L 2.984375 -26.921875 L 11.25 -26.921875 L 11.25 -23.359375 C 12.082031 -24.546875 13.207031 -25.484375 14.625 -26.171875 C 16.039062 -26.867188 17.628906 -27.21875 19.390625 -27.21875 Z M 19.390625 -27.21875 "/></g></g></g><g fill="#000000" fill-opacity="1"><g transform="translate(736.457198, 197.282869)"><g><path d="M 7.140625 -29.71875 C 5.691406 -29.71875 4.507812 -30.144531 3.59375 -31 C 2.675781 -31.851562 2.21875 -32.90625 2.21875 -34.15625 C 2.21875 -35.445312 2.675781 -36.515625 3.59375 -37.359375 C 4.507812 -38.210938 5.691406 -38.640625 7.140625 -38.640625 C 8.554688 -38.640625 9.722656 -38.210938 10.640625 -37.359375 C 11.554688 -36.515625 12.015625 -35.445312 12.015625 -34.15625 C 12.015625 -32.90625 11.554688 -31.851562 10.640625 -31 C 9.722656 -30.144531 8.554688 -29.71875 7.140625 -29.71875 Z M 11.25 -26.921875 L 11.25 0 L 2.984375 0 L 2.984375 -26.921875 Z M 11.25 -26.921875 "/></g></g></g><g fill="#000000" fill-opacity="1"><g transform="translate(750.736859, 197.282869)"><g><path d="M 18 -7 L 18 0 L 13.796875 0 C 10.804688 0 8.472656 -0.726562 6.796875 -2.1875 C 5.128906 -3.65625 4.296875 -6.046875 4.296875 -9.359375 L 4.296875 -20.078125 L 1.015625 -20.078125 L 1.015625 -26.921875 L 4.296875 -26.921875 L 4.296875 -33.484375 L 12.546875 -33.484375 L 12.546875 -26.921875 L 17.953125 -26.921875 L 17.953125 -20.078125 L 12.546875 -20.078125 L 12.546875 -9.265625 C 12.546875 -8.460938 12.738281 -7.882812 13.125 -7.53125 C 13.507812 -7.175781 14.148438 -7 15.046875 -7 Z M 18 -7 "/></g></g></g><g fill="#000000" fill-opacity="1"><g transform="translate(770.371405, 197.282869)"><g><path d="M 7.140625 -29.71875 C 5.691406 -29.71875 4.507812 -30.144531 3.59375 -31 C 2.675781 -31.851562 2.21875 -32.90625 2.21875 -34.15625 C 2.21875 -35.445312 2.675781 -36.515625 3.59375 -37.359375 C 4.507812 -38.210938 5.691406 -38.640625 7.140625 -38.640625 C 8.554688 -38.640625 9.722656 -38.210938 10.640625 -37.359375 C 11.554688 -36.515625 12.015625 -35.445312 12.015625 -34.15625 C 12.015625 -32.90625 11.554688 -31.851562 10.640625 -31 C 9.722656 -30.144531 8.554688 -29.71875 7.140625 -29.71875 Z M 11.25 -26.921875 L 11.25 0 L 2.984375 0 L 2.984375 -26.921875 Z M 11.25 -26.921875 "/></g></g></g><g fill="#000000" fill-opacity="1"><g transform="translate(784.651066, 197.282869)"><g><path d="M 15.109375 -7.71875 L 20.9375 -26.921875 L 29.71875 -26.921875 L 20.171875 0 L 9.984375 0 L 0.4375 -26.921875 L 9.265625 -26.921875 Z M 15.109375 -7.71875 "/></g></g></g><g fill="#000000" fill-opacity="1"><g transform="translate(814.898854, 197.282869)"><g><path d="M 28.375 -13.890625 C 28.375 -13.117188 28.320312 -12.316406 28.21875 -11.484375 L 9.546875 -11.484375 C 9.679688 -9.804688 10.222656 -8.523438 11.171875 -7.640625 C 12.117188 -6.765625 13.285156 -6.328125 14.671875 -6.328125 C 16.722656 -6.328125 18.15625 -7.191406 18.96875 -8.921875 L 27.75 -8.921875 C 27.289062 -7.148438 26.472656 -5.554688 25.296875 -4.140625 C 24.128906 -2.734375 22.660156 -1.625 20.890625 -0.8125 C 19.117188 -0.0078125 17.140625 0.390625 14.953125 0.390625 C 12.316406 0.390625 9.96875 -0.171875 7.90625 -1.296875 C 5.851562 -2.421875 4.242188 -4.03125 3.078125 -6.125 C 1.921875 -8.21875 1.34375 -10.664062 1.34375 -13.46875 C 1.34375 -16.257812 1.914062 -18.703125 3.0625 -20.796875 C 4.207031 -22.890625 5.804688 -24.5 7.859375 -25.625 C 9.921875 -26.75 12.285156 -27.3125 14.953125 -27.3125 C 17.554688 -27.3125 19.867188 -26.765625 21.890625 -25.671875 C 23.921875 -24.578125 25.507812 -23.015625 26.65625 -20.984375 C 27.800781 -18.960938 28.375 -16.597656 28.375 -13.890625 Z M 19.921875 -16.0625 C 19.921875 -17.476562 19.4375 -18.601562 18.46875 -19.4375 C 17.507812 -20.28125 16.304688 -20.703125 14.859375 -20.703125 C 13.472656 -20.703125 12.304688 -20.296875 11.359375 -19.484375 C 10.410156 -18.679688 9.828125 -17.539062 9.609375 -16.0625 Z M 19.921875 -16.0625 "/></g></g></g><g fill="#000000" fill-opacity="1"><g transform="translate(844.664244, 197.282869)"><g/></g></g><g fill="#000000" fill-opacity="1"><g transform="translate(854.939831, 197.282869)"><g><path d="M 15.25 0.34375 C 12.769531 0.34375 10.546875 -0.0546875 8.578125 -0.859375 C 6.617188 -1.671875 5.050781 -2.863281 3.875 -4.4375 C 2.707031 -6.007812 2.09375 -7.90625 2.03125 -10.125 L 10.8125 -10.125 C 10.9375 -8.875 11.367188 -7.914062 12.109375 -7.25 C 12.847656 -6.59375 13.8125 -6.265625 15 -6.265625 C 16.226562 -6.265625 17.195312 -6.546875 17.90625 -7.109375 C 18.613281 -7.679688 18.96875 -8.460938 18.96875 -9.453125 C 18.96875 -10.296875 18.6875 -10.988281 18.125 -11.53125 C 17.5625 -12.082031 16.867188 -12.53125 16.046875 -12.875 C 15.222656 -13.226562 14.054688 -13.632812 12.546875 -14.09375 C 10.359375 -14.769531 8.570312 -15.441406 7.1875 -16.109375 C 5.800781 -16.785156 4.609375 -17.78125 3.609375 -19.09375 C 2.617188 -20.414062 2.125 -22.140625 2.125 -24.265625 C 2.125 -27.421875 3.265625 -29.890625 5.546875 -31.671875 C 7.828125 -33.460938 10.800781 -34.359375 14.46875 -34.359375 C 18.207031 -34.359375 21.21875 -33.460938 23.5 -31.671875 C 25.78125 -29.890625 27.003906 -27.40625 27.171875 -24.21875 L 18.234375 -24.21875 C 18.171875 -25.3125 17.769531 -26.171875 17.03125 -26.796875 C 16.289062 -27.429688 15.34375 -27.75 14.1875 -27.75 C 13.1875 -27.75 12.378906 -27.484375 11.765625 -26.953125 C 11.160156 -26.421875 10.859375 -25.65625 10.859375 -24.65625 C 10.859375 -23.5625 11.367188 -22.707031 12.390625 -22.09375 C 13.421875 -21.488281 15.03125 -20.832031 17.21875 -20.125 C 19.40625 -19.382812 21.179688 -18.675781 22.546875 -18 C 23.921875 -17.320312 25.101562 -16.335938 26.09375 -15.046875 C 27.09375 -13.765625 27.59375 -12.109375 27.59375 -10.078125 C 27.59375 -8.148438 27.101562 -6.394531 26.125 -4.8125 C 25.144531 -3.238281 23.722656 -1.984375 21.859375 -1.046875 C 19.992188 -0.117188 17.789062 0.34375 15.25 0.34375 Z M 15.25 0.34375 "/></g></g></g><g fill="#000000" fill-opacity="1"><g transform="translate(884.656957, 197.282869)"><g><path d="M 1.34375 -13.46875 C 1.34375 -16.257812 1.914062 -18.703125 3.0625 -20.796875 C 4.207031 -22.890625 5.800781 -24.5 7.84375 -25.625 C 9.882812 -26.75 12.222656 -27.3125 14.859375 -27.3125 C 18.234375 -27.3125 21.054688 -26.425781 23.328125 -24.65625 C 25.597656 -22.882812 27.085938 -20.390625 27.796875 -17.171875 L 19.015625 -17.171875 C 18.273438 -19.234375 16.84375 -20.265625 14.71875 -20.265625 C 13.207031 -20.265625 12 -19.675781 11.09375 -18.5 C 10.195312 -17.332031 9.75 -15.65625 9.75 -13.46875 C 9.75 -11.28125 10.195312 -9.597656 11.09375 -8.421875 C 12 -7.242188 13.207031 -6.65625 14.71875 -6.65625 C 16.84375 -6.65625 18.273438 -7.6875 19.015625 -9.75 L 27.796875 -9.75 C 27.085938 -6.59375 25.585938 -4.113281 23.296875 -2.3125 C 21.015625 -0.507812 18.203125 0.390625 14.859375 0.390625 C 12.222656 0.390625 9.882812 -0.171875 7.84375 -1.296875 C 5.800781 -2.421875 4.207031 -4.03125 3.0625 -6.125 C 1.914062 -8.21875 1.34375 -10.664062 1.34375 -13.46875 Z M 1.34375 -13.46875 "/></g></g></g><g fill="#000000" fill-opacity="1"><g transform="translate(913.891685, 197.282869)"><g><path d="M 7.140625 -29.71875 C 5.691406 -29.71875 4.507812 -30.144531 3.59375 -31 C 2.675781 -31.851562 2.21875 -32.90625 2.21875 -34.15625 C 2.21875 -35.445312 2.675781 -36.515625 3.59375 -37.359375 C 4.507812 -38.210938 5.691406 -38.640625 7.140625 -38.640625 C 8.554688 -38.640625 9.722656 -38.210938 10.640625 -37.359375 C 11.554688 -36.515625 12.015625 -35.445312 12.015625 -34.15625 C 12.015625 -32.90625 11.554688 -31.851562 10.640625 -31 C 9.722656 -30.144531 8.554688 -29.71875 7.140625 -29.71875 Z M 11.25 -26.921875 L 11.25 0 L 2.984375 0 L 2.984375 -26.921875 Z M 11.25 -26.921875 "/></g></g></g><g fill="#000000" fill-opacity="1"><g transform="translate(928.171394, 197.282869)"><g><path d="M 28.375 -13.890625 C 28.375 -13.117188 28.320312 -12.316406 28.21875 -11.484375 L 9.546875 -11.484375 C 9.679688 -9.804688 10.222656 -8.523438 11.171875 -7.640625 C 12.117188 -6.765625 13.285156 -6.328125 14.671875 -6.328125 C 16.722656 -6.328125 18.15625 -7.191406 18.96875 -8.921875 L 27.75 -8.921875 C 27.289062 -7.148438 26.472656 -5.554688 25.296875 -4.140625 C 24.128906 -2.734375 22.660156 -1.625 20.890625 -0.8125 C 19.117188 -0.0078125 17.140625 0.390625 14.953125 0.390625 C 12.316406 0.390625 9.96875 -0.171875 7.90625 -1.296875 C 5.851562 -2.421875 4.242188 -4.03125 3.078125 -6.125 C 1.921875 -8.21875 1.34375 -10.664062 1.34375 -13.46875 C 1.34375 -16.257812 1.914062 -18.703125 3.0625 -20.796875 C 4.207031 -22.890625 5.804688 -24.5 7.859375 -25.625 C 9.921875 -26.75 12.285156 -27.3125 14.953125 -27.3125 C 17.554688 -27.3125 19.867188 -26.765625 21.890625 -25.671875 C 23.921875 -24.578125 25.507812 -23.015625 26.65625 -20.984375 C 27.800781 -18.960938 28.375 -16.597656 28.375 -13.890625 Z M 19.921875 -16.0625 C 19.921875 -17.476562 19.4375 -18.601562 18.46875 -19.4375 C 17.507812 -20.28125 16.304688 -20.703125 14.859375 -20.703125 C 13.472656 -20.703125 12.304688 -20.296875 11.359375 -19.484375 C 10.410156 -18.679688 9.828125 -17.539062 9.609375 -16.0625 Z M 19.921875 -16.0625 "/></g></g></g><g fill="#000000" fill-opacity="1"><g transform="translate(957.936784, 197.282869)"><g><path d="M 19.390625 -27.21875 C 22.546875 -27.21875 25.0625 -26.191406 26.9375 -24.140625 C 28.820312 -22.097656 29.765625 -19.296875 29.765625 -15.734375 L 29.765625 0 L 21.5625 0 L 21.5625 -14.625 C 21.5625 -16.425781 21.09375 -17.820312 20.15625 -18.8125 C 19.226562 -19.8125 17.976562 -20.3125 16.40625 -20.3125 C 14.832031 -20.3125 13.578125 -19.8125 12.640625 -18.8125 C 11.710938 -17.820312 11.25 -16.425781 11.25 -14.625 L 11.25 0 L 2.984375 0 L 2.984375 -26.921875 L 11.25 -26.921875 L 11.25 -23.359375 C 12.082031 -24.546875 13.207031 -25.484375 14.625 -26.171875 C 16.039062 -26.867188 17.628906 -27.21875 19.390625 -27.21875 Z M 19.390625 -27.21875 "/></g></g></g><g fill="#000000" fill-opacity="1"><g transform="translate(990.500227, 197.282869)"><g><path d="M 1.34375 -13.46875 C 1.34375 -16.257812 1.914062 -18.703125 3.0625 -20.796875 C 4.207031 -22.890625 5.800781 -24.5 7.84375 -25.625 C 9.882812 -26.75 12.222656 -27.3125 14.859375 -27.3125 C 18.234375 -27.3125 21.054688 -26.425781 23.328125 -24.65625 C 25.597656 -22.882812 27.085938 -20.390625 27.796875 -17.171875 L 19.015625 -17.171875 C 18.273438 -19.234375 16.84375 -20.265625 14.71875 -20.265625 C 13.207031 -20.265625 12 -19.675781 11.09375 -18.5 C 10.195312 -17.332031 9.75 -15.65625 9.75 -13.46875 C 9.75 -11.28125 10.195312 -9.597656 11.09375 -8.421875 C 12 -7.242188 13.207031 -6.65625 14.71875 -6.65625 C 16.84375 -6.65625 18.273438 -7.6875 19.015625 -9.75 L 27.796875 -9.75 C 27.085938 -6.59375 25.585938 -4.113281 23.296875 -2.3125 C 21.015625 -0.507812 18.203125 0.390625 14.859375 0.390625 C 12.222656 0.390625 9.882812 -0.171875 7.84375 -1.296875 C 5.800781 -2.421875 4.207031 -4.03125 3.0625 -6.125 C 1.914062 -8.21875 1.34375 -10.664062 1.34375 -13.46875 Z M 1.34375 -13.46875 "/></g></g></g><g fill="#000000" fill-opacity="1"><g transform="translate(1019.734956, 197.282869)"><g><path d="M 28.375 -13.890625 C 28.375 -13.117188 28.320312 -12.316406 28.21875 -11.484375 L 9.546875 -11.484375 C 9.679688 -9.804688 10.222656 -8.523438 11.171875 -7.640625 C 12.117188 -6.765625 13.285156 -6.328125 14.671875 -6.328125 C 16.722656 -6.328125 18.15625 -7.191406 18.96875 -8.921875 L 27.75 -8.921875 C 27.289062 -7.148438 26.472656 -5.554688 25.296875 -4.140625 C 24.128906 -2.734375 22.660156 -1.625 20.890625 -0.8125 C 19.117188 -0.0078125 17.140625 0.390625 14.953125 0.390625 C 12.316406 0.390625 9.96875 -0.171875 7.90625 -1.296875 C 5.851562 -2.421875 4.242188 -4.03125 3.078125 -6.125 C 1.921875 -8.21875 1.34375 -10.664062 1.34375 -13.46875 C 1.34375 -16.257812 1.914062 -18.703125 3.0625 -20.796875 C 4.207031 -22.890625 5.804688 -24.5 7.859375 -25.625 C 9.921875 -26.75 12.285156 -27.3125 14.953125 -27.3125 C 17.554688 -27.3125 19.867188 -26.765625 21.890625 -25.671875 C 23.921875 -24.578125 25.507812 -23.015625 26.65625 -20.984375 C 27.800781 -18.960938 28.375 -16.597656 28.375 -13.890625 Z M 19.921875 -16.0625 C 19.921875 -17.476562 19.4375 -18.601562 18.46875 -19.4375 C 17.507812 -20.28125 16.304688 -20.703125 14.859375 -20.703125 C 13.472656 -20.703125 12.304688 -20.296875 11.359375 -19.484375 C 10.410156 -18.679688 9.828125 -17.539062 9.609375 -16.0625 Z M 19.921875 -16.0625 "/></g></g></g><g fill="#000000" fill-opacity="1"><g transform="translate(1049.500345, 197.282869)"><g><path d="M 13.9375 0.390625 C 11.59375 0.390625 9.503906 -0.0078125 7.671875 -0.8125 C 5.835938 -1.625 4.390625 -2.726562 3.328125 -4.125 C 2.265625 -5.519531 1.671875 -7.085938 1.546875 -8.828125 L 9.703125 -8.828125 C 9.796875 -7.898438 10.226562 -7.144531 11 -6.5625 C 11.769531 -5.976562 12.71875 -5.6875 13.84375 -5.6875 C 14.875 -5.6875 15.671875 -5.890625 16.234375 -6.296875 C 16.796875 -6.703125 17.078125 -7.222656 17.078125 -7.859375 C 17.078125 -8.628906 16.675781 -9.195312 15.875 -9.5625 C 15.070312 -9.9375 13.769531 -10.351562 11.96875 -10.8125 C 10.039062 -11.257812 8.429688 -11.734375 7.140625 -12.234375 C 5.859375 -12.734375 4.75 -13.519531 3.8125 -14.59375 C 2.875 -15.675781 2.40625 -17.132812 2.40625 -18.96875 C 2.40625 -20.507812 2.832031 -21.914062 3.6875 -23.1875 C 4.539062 -24.457031 5.796875 -25.460938 7.453125 -26.203125 C 9.109375 -26.941406 11.078125 -27.3125 13.359375 -27.3125 C 16.742188 -27.3125 19.40625 -26.472656 21.34375 -24.796875 C 23.289062 -23.128906 24.410156 -20.910156 24.703125 -18.140625 L 17.078125 -18.140625 C 16.953125 -19.078125 16.539062 -19.816406 15.84375 -20.359375 C 15.15625 -20.910156 14.25 -21.1875 13.125 -21.1875 C 12.15625 -21.1875 11.410156 -21 10.890625 -20.625 C 10.378906 -20.257812 10.125 -19.753906 10.125 -19.109375 C 10.125 -18.335938 10.535156 -17.757812 11.359375 -17.375 C 12.179688 -16.988281 13.460938 -16.601562 15.203125 -16.21875 C 17.191406 -15.695312 18.8125 -15.1875 20.0625 -14.6875 C 21.320312 -14.1875 22.425781 -13.378906 23.375 -12.265625 C 24.320312 -11.160156 24.8125 -9.675781 24.84375 -7.8125 C 24.84375 -6.238281 24.398438 -4.832031 23.515625 -3.59375 C 22.628906 -2.351562 21.359375 -1.378906 19.703125 -0.671875 C 18.046875 0.0351562 16.125 0.390625 13.9375 0.390625 Z M 13.9375 0.390625 "/></g></g></g></svg>